Kufam-Black.ufo
<glyph name="exclam" format="2">
  <advance width="364"/>
  <unicode hex="0021"/>
  <note>
exclam
</note>
  <outline>
    <contour>
      <point x="92" y="280" type="curve"/>
      <point x="272" y="280" type="line"/>
      <point x="280" y="320"/>
      <point x="288" y="416"/>
      <point x="288" y="487" type="curve" smooth="yes"/>
      <point x="288" y="566" type="line" smooth="yes"/>
      <point x="288" y="624"/>
      <point x="288" y="672"/>
      <point x="296" y="708" type="curve"/>
      <point x="290" y="720" type="line"/>
      <point x="76" y="720" type="line"/>
      <point x="76" y="487" type="line" smooth="yes"/>
      <point x="76" y="416"/>
      <point x="84" y="320"/>
    </contour>
    <contour>
      <point x="182" y="-12" type="curve" smooth="yes"/>
      <point x="248" y="-12"/>
      <point x="292" y="32"/>
      <point x="292" y="98" type="curve" smooth="yes"/>
      <point x="292" y="164"/>
      <point x="248" y="208"/>
      <point x="182" y="208" type="curve" smooth="yes"/>
      <point x="116" y="208"/>
      <point x="72" y="164"/>
      <point x="72" y="98" type="curve" smooth="yes"/>
      <point x="72" y="32"/>
      <point x="116" y="-12"/>
    </contour>
  </outline>
</glyph>
<glyph name="numbersign" format="2">
  <advance width="616"/>
  <unicode hex="0023"/>
  <note>
numbersign
</note>
  <outline>
    <contour>
      <point x="292" y="0" type="line"/>
      <point x="420" y="0" type="line"/>
      <point x="552" y="720" type="line"/>
      <point x="424" y="720" type="line"/>
    </contour>
    <contour>
      <point x="32" y="180" type="line"/>
      <point x="560" y="180" type="line"/>
      <point x="560" y="296" type="line"/>
      <point x="32" y="296" type="line"/>
    </contour>
    <contour>
      <point x="64" y="0" type="line"/>
      <point x="192" y="0" type="line"/>
      <point x="324" y="720" type="line"/>
      <point x="196" y="720" type="line"/>
    </contour>
    <contour>
      <point x="56" y="424" type="line"/>
      <point x="584" y="424" type="line"/>
      <point x="584" y="540" type="line"/>
      <point x="56" y="540" type="line"/>
    </contour>
  </outline>
</glyph>
<glyph name="dollar" format="2">
  <advance width="616"/>
  <unicode hex="0024"/>
  <note>
dollar
</note>
  <outline>
    <contour>
      <point x="276" y="-12" type="curve" smooth="yes"/>
      <point x="424" y="-12"/>
      <point x="568" y="48"/>
      <point x="568" y="208" type="curve" smooth="yes"/>
      <point x="568" y="332"/>
      <point x="479" y="394"/>
      <point x="360" y="412" type="curve" smooth="yes"/>
      <point x="308" y="420" type="line" smooth="yes"/>
      <point x="260" y="427"/>
      <point x="240" y="460"/>
      <point x="240" y="492" type="curve" smooth="yes"/>
      <point x="240" y="540"/>
      <point x="274" y="572"/>
      <point x="352" y="572" type="curve" smooth="yes"/>
      <point x="420" y="572"/>
      <point x="480" y="552"/>
      <point x="516" y="536" type="curve"/>
      <point x="528" y="536" type="line"/>
      <point x="528" y="704" type="line"/>
      <point x="476" y="724"/>
      <point x="428" y="732"/>
      <point x="356" y="732" type="curve" smooth="yes"/>
      <point x="124" y="732"/>
      <point x="40" y="624"/>
      <point x="40" y="484" type="curve" smooth="yes"/>
      <point x="40" y="356"/>
      <point x="104" y="279"/>
      <point x="264" y="256" type="curve" smooth="yes"/>
      <point x="320" y="248" type="line" smooth="yes"/>
      <point x="356" y="243"/>
      <point x="368" y="224"/>
      <point x="368" y="202" type="curve" smooth="yes"/>
      <point x="368" y="172"/>
      <point x="344" y="152"/>
      <point x="276" y="152" type="curve" smooth="yes"/>
      <point x="196" y="152"/>
      <point x="120" y="172"/>
      <point x="72" y="198" type="curve"/>
      <point x="64" y="198" type="line"/>
      <point x="64" y="22" type="line" name="hr00"/>
      <point x="112" y="0"/>
      <point x="207" y="-12"/>
    </contour>
    <contour>
      <point x="218" y="-158" type="line"/>
      <point x="390" y="-158" type="line"/>
      <point x="390" y="52" type="line"/>
      <point x="218" y="52" type="line"/>
    </contour>
    <contour>
      <point x="214" y="650" type="line"/>
      <point x="386" y="650" type="line"/>
      <point x="386" y="860" type="line"/>
      <point x="214" y="860" type="line"/>
    </contour>
  </outline>
</glyph>
<glyph name="quotesingle" format="2">
  <advance width="240"/>
  <unicode hex="0027"/>
  <note>
quotesingle
</note>
  <outline>
    <contour>
      <point x="40" y="720" type="line"/>
      <point x="48" y="460" type="line"/>
      <point x="192" y="460" type="line"/>
      <point x="200" y="720" type="line"/>
    </contour>
  </outline>
</glyph>
<glyph name="asterisk" format="2">
  <advance width="544"/>
  <unicode hex="002A"/>
  <note>
asterisk
</note>
  <outline>
    <contour>
      <point x="226" y="488" type="line"/>
      <point x="202" y="256" type="line"/>
      <point x="342" y="256" type="line"/>
      <point x="318" y="488" type="line"/>
      <point x="342" y="720" type="line"/>
      <point x="202" y="720" type="line"/>
    </contour>
    <contour>
      <point x="249" y="448" type="line"/>
      <point x="438" y="311" type="line"/>
      <point x="508" y="433" type="line"/>
      <point x="295" y="528" type="line"/>
      <point x="106" y="665" type="line"/>
      <point x="36" y="543" type="line"/>
    </contour>
    <contour>
      <point x="295" y="448" type="line"/>
      <point x="508" y="543" type="line"/>
      <point x="438" y="665" type="line"/>
      <point x="249" y="528" type="line"/>
      <point x="36" y="433" type="line"/>
      <point x="106" y="311" type="line"/>
    </contour>
  </outline>
</glyph>
<glyph name="plus" format="2">
  <advance width="616"/>
  <unicode hex="002B"/>
  <note>
plus
</note>
  <outline>
    <contour>
      <point x="244" y="72" type="line"/>
      <point x="372" y="72" type="line"/>
      <point x="372" y="560" type="line"/>
      <point x="244" y="560" type="line"/>
    </contour>
    <contour>
      <point x="64" y="252" type="line"/>
      <point x="552" y="252" type="line"/>
      <point x="552" y="380" type="line"/>
      <point x="64" y="380" type="line"/>
    </contour>
  </outline>
</glyph>
<glyph name="hyphen" format="2">
  <advance width="548"/>
  <unicode hex="002D"/>
  <note>
hyphen
</note>
  <outline>
    <contour>
      <point x="72" y="396" type="line"/>
      <point x="72" y="232" type="line"/>
      <point x="476" y="232" type="line"/>
      <point x="476" y="396" type="line"/>
    </contour>
  </outline>
</glyph>
<glyph name="slash" format="2">
  <advance width="588"/>
  <unicode hex="002F"/>
  <note>
slash
</note>
  <outline>
    <contour>
      <point x="376" y="720" type="line"/>
      <point x="32" y="0" type="line"/>
      <point x="212" y="0" type="line"/>
      <point x="556" y="720" type="line"/>
    </contour>
  </outline>
</glyph>
<glyph name="zero" format="2">
  <advance width="616"/>
  <unicode hex="0030"/>
  <note>
zero
</note>
  <outline>
    <contour>
      <point x="308" y="-12" type="curve" smooth="yes"/>
      <point x="516" y="-12"/>
      <point x="596" y="152"/>
      <point x="596" y="360" type="curve" smooth="yes"/>
      <point x="596" y="568"/>
      <point x="516" y="732"/>
      <point x="308" y="732" type="curve" smooth="yes"/>
      <point x="100" y="732"/>
      <point x="20" y="568"/>
      <point x="20" y="360" type="curve" smooth="yes"/>
      <point x="20" y="152"/>
      <point x="100" y="-12"/>
    </contour>
    <contour>
      <point x="308" y="152" type="curve" smooth="yes"/>
      <point x="240" y="152"/>
      <point x="220" y="244"/>
      <point x="220" y="360" type="curve" smooth="yes" name="hr00"/>
      <point x="220" y="476"/>
      <point x="240" y="568"/>
      <point x="308" y="568" type="curve" smooth="yes"/>
      <point x="376" y="568"/>
      <point x="396" y="476"/>
      <point x="396" y="360" type="curve" smooth="yes"/>
      <point x="396" y="244"/>
      <point x="376" y="152"/>
    </contour>
  </outline>
</glyph>
<glyph name="one" format="2">
  <advance width="616"/>
  <unicode hex="0031"/>
  <note>
one
</note>
  <outline>
    <contour>
      <point x="208" y="60" type="line"/>
      <point x="420" y="60" type="line"/>
      <point x="420" y="544" type="line" smooth="yes"/>
      <point x="420" y="584"/>
      <point x="420" y="668"/>
      <point x="428" y="704" type="curve"/>
      <point x="426" y="716" type="line"/>
      <point x="404" y="720"/>
      <point x="352" y="728"/>
      <point x="276" y="728" type="curve" smooth="yes"/>
      <point x="164" y="728"/>
      <point x="92" y="722"/>
      <point x="56" y="716" type="curve"/>
      <point x="56" y="552" type="line"/>
      <point x="300" y="552" type="line"/>
      <point x="220" y="574" type="line"/>
      <point x="210" y="552"/>
      <point x="208" y="498"/>
      <point x="208" y="468" type="curve" smooth="yes"/>
    </contour>
    <contour>
      <point x="36" y="0" type="line"/>
      <point x="580" y="0" type="line"/>
      <point x="580" y="176" type="line"/>
      <point x="36" y="176" type="line"/>
    </contour>
  </outline>
</glyph>
<glyph name="four" format="2">
  <advance width="616"/>
  <unicode hex="0034"/>
  <note>
four
</note>
  <outline>
    <contour>
      <point x="342" y="0" type="line"/>
      <point x="540" y="0" type="line"/>
      <point x="540" y="544" type="line" smooth="yes"/>
      <point x="540" y="584"/>
      <point x="540" y="668"/>
      <point x="548" y="704" type="curve"/>
      <point x="546" y="716" type="line"/>
      <point x="516" y="722"/>
      <point x="468" y="728"/>
      <point x="428" y="728" type="curve" smooth="yes"/>
      <point x="248" y="728"/>
      <point x="121" y="688"/>
      <point x="68" y="472" type="curve" smooth="yes"/>
      <point x="24" y="292" type="line"/>
      <point x="24" y="148" type="line"/>
      <point x="608" y="148" type="line"/>
      <point x="608" y="316" type="line"/>
      <point x="131" y="316" type="line"/>
      <point x="197" y="232" type="line"/>
      <point x="252" y="460" type="line" smooth="yes"/>
      <point x="267" y="521"/>
      <point x="284" y="552"/>
      <point x="354" y="552" type="curve" smooth="yes"/>
      <point x="377" y="552"/>
      <point x="405" y="549"/>
      <point x="442" y="542" type="curve"/>
      <point x="353" y="602" type="line"/>
      <point x="342" y="574"/>
      <point x="342" y="541"/>
      <point x="342" y="504" type="curve" smooth="yes"/>
    </contour>
  </outline>
</glyph>
<glyph name="five" format="2">
  <advance width="616"/>
  <unicode hex="0035"/>
  <note>
five
</note>
  <outline>
    <contour>
      <point x="48" y="192" type="line"/>
      <point x="48" y="24" type="line"/>
      <point x="84" y="8"/>
      <point x="154" y="-12"/>
      <point x="240" y="-12" type="curve" smooth="yes"/>
      <point x="464" y="-12"/>
      <point x="576" y="76"/>
      <point x="576" y="228" type="curve" smooth="yes"/>
      <point x="576" y="368"/>
      <point x="484" y="446"/>
      <point x="312" y="446" type="curve" smooth="yes"/>
      <point x="277" y="446"/>
      <point x="242" y="441"/>
      <point x="206" y="442" type="curve"/>
      <point x="264" y="358" type="line"/>
      <point x="264" y="488" type="line" smooth="yes"/>
      <point x="264" y="534"/>
      <point x="261" y="573"/>
      <point x="248" y="600" type="curve"/>
      <point x="174" y="556" type="line"/>
      <point x="540" y="556" type="line"/>
      <point x="540" y="720" type="line"/>
      <point x="208" y="720" type="line" smooth="yes"/>
      <point x="134" y="720"/>
      <point x="98" y="716"/>
      <point x="66" y="712" type="curve"/>
      <point x="64" y="700" type="line"/>
      <point x="72" y="664"/>
      <point x="72" y="576"/>
      <point x="72" y="536" type="curve" smooth="yes"/>
      <point x="72" y="292" type="line"/>
      <point x="80" y="288" type="line"/>
      <point x="116" y="296"/>
      <point x="160" y="304"/>
      <point x="232" y="304" type="curve" smooth="yes"/>
      <point x="340" y="304"/>
      <point x="372" y="276"/>
      <point x="372" y="232" type="curve" smooth="yes"/>
      <point x="372" y="180"/>
      <point x="324" y="152"/>
      <point x="228" y="152" type="curve" smooth="yes"/>
      <point x="152" y="152"/>
      <point x="84" y="176"/>
      <point x="60" y="192" type="curve"/>
    </contour>
  </outline>
</glyph>
<glyph name="nine" format="2">
  <advance width="616"/>
  <unicode hex="0039"/>
  <note>
nine
</note>
  <outline>
    <contour>
      <point x="200" y="-12" type="curve" smooth="yes"/>
      <point x="488" y="-12"/>
      <point x="588" y="168"/>
      <point x="588" y="376" type="curve" smooth="yes"/>
      <point x="588" y="564"/>
      <point x="540" y="732"/>
      <point x="296" y="732" type="curve" smooth="yes"/>
      <point x="140" y="732"/>
      <point x="28" y="648"/>
      <point x="28" y="476" type="curve" smooth="yes"/>
      <point x="28" y="352"/>
      <point x="92" y="248"/>
      <point x="264" y="248" type="curve" smooth="yes"/>
      <point x="324" y="248"/>
      <point x="368" y="268"/>
      <point x="393" y="280" type="curve"/>
      <point x="444" y="280" type="line"/>
      <point x="444" y="420" type="line"/>
      <point x="388" y="420" type="line"/>
      <point x="372" y="408"/>
      <point x="348" y="396"/>
      <point x="308" y="396" type="curve" smooth="yes"/>
      <point x="240" y="396"/>
      <point x="220" y="432"/>
      <point x="220" y="484" type="curve" smooth="yes"/>
      <point x="220" y="536"/>
      <point x="240" y="576"/>
      <point x="296" y="576" type="curve" smooth="yes"/>
      <point x="382" y="576"/>
      <point x="388" y="500"/>
      <point x="388" y="360" type="curve" smooth="yes"/>
      <point x="388" y="252"/>
      <point x="368" y="152"/>
      <point x="192" y="152" type="curve" smooth="yes"/>
      <point x="152" y="152"/>
      <point x="124" y="160"/>
      <point x="100" y="168" type="curve"/>
      <point x="88" y="168" type="line"/>
      <point x="88" y="0" type="line"/>
      <point x="120" y="-8"/>
      <point x="156" y="-12"/>
    </contour>
  </outline>
</glyph>
<glyph name="semicolon" format="2">
  <advance width="284"/>
  <unicode hex="003B"/>
  <note>
semicolon
</note>
  <outline>
    <contour>
      <point x="142" y="324" type="curve" smooth="yes"/>
      <point x="208" y="324"/>
      <point x="252" y="368"/>
      <point x="252" y="434" type="curve" smooth="yes"/>
      <point x="252" y="500"/>
      <point x="208" y="544"/>
      <point x="142" y="544" type="curve" smooth="yes"/>
      <point x="76" y="544"/>
      <point x="32" y="500"/>
      <point x="32" y="434" type="curve" smooth="yes"/>
      <point x="32" y="368"/>
      <point x="76" y="324"/>
    </contour>
    <contour>
      <point x="93" y="6" type="curve"/>
      <point x="1" y="-153" type="line"/>
      <point x="1" y="-160" type="line"/>
      <point x="153" y="-160" type="line"/>
      <point x="207" y="-50" type="line" smooth="yes"/>
      <point x="224" y="-16"/>
      <point x="255" y="39"/>
      <point x="255" y="90" type="curve" smooth="yes"/>
      <point x="255" y="164"/>
      <point x="208" y="208"/>
      <point x="142" y="208" type="curve" smooth="yes"/>
      <point x="76" y="208"/>
      <point x="32" y="161"/>
      <point x="32" y="98" type="curve" smooth="yes"/>
      <point x="32" y="43"/>
      <point x="64" y="20"/>
    </contour>
  </outline>
</glyph>
<glyph name="equal" format="2">
  <advance width="616"/>
  <unicode hex="003D"/>
  <note>
equal
</note>
  <outline>
    <contour>
      <point x="64" y="492" type="line"/>
      <point x="64" y="364" type="line"/>
      <point x="552" y="364" type="line"/>
      <point x="552" y="492" type="line"/>
    </contour>
    <contour>
      <point x="64" y="268" type="line"/>
      <point x="64" y="140" type="line"/>
      <point x="552" y="140" type="line"/>
      <point x="552" y="268" type="line"/>
    </contour>
  </outline>
</glyph>
<glyph name="greater" format="2">
  <advance width="616"/>
  <unicode hex="003E"/>
  <note>
greater
</note>
  <outline>
    <contour>
      <point x="92" y="60" type="line"/>
      <point x="532" y="280" type="line"/>
      <point x="532" y="360" type="line"/>
      <point x="92" y="580" type="line"/>
      <point x="84" y="580" type="line"/>
      <point x="84" y="444" type="line"/>
      <point x="344" y="320" type="line"/>
      <point x="84" y="200" type="line"/>
      <point x="84" y="60" type="line"/>
    </contour>
  </outline>
</glyph>
<glyph name="at" format="2">
  <advance width="986"/>
  <unicode hex="0040"/>
  <note>
at
</note>
  <outline>
    <contour>
      <point x="524" y="-188" type="curve" smooth="yes"/>
      <point x="588" y="-188"/>
      <point x="669" y="-176"/>
      <point x="708" y="-160" type="curve"/>
      <point x="708" y="-40" type="line"/>
      <point x="696" y="-40" type="line"/>
      <point x="660" y="-56"/>
      <point x="588" y="-68"/>
      <point x="524" y="-68" type="curve" smooth="yes"/>
      <point x="320" y="-68"/>
      <point x="168" y="36"/>
      <point x="168" y="280" type="curve" smooth="yes"/>
      <point x="168" y="520"/>
      <point x="307" y="620"/>
      <point x="516" y="620" type="curve" smooth="yes"/>
      <point x="695" y="620"/>
      <point x="824" y="536"/>
      <point x="824" y="376" type="curve" smooth="yes"/>
      <point x="824" y="266"/>
      <point x="779" y="206"/>
      <point x="712" y="175" type="curve"/>
      <point x="711" y="184"/>
      <point x="712" y="194"/>
      <point x="712" y="204" type="curve" smooth="yes"/>
      <point x="712" y="300" type="line" smooth="yes"/>
      <point x="712" y="460"/>
      <point x="622" y="504"/>
      <point x="480" y="504" type="curve" smooth="yes"/>
      <point x="420" y="504"/>
      <point x="376" y="496"/>
      <point x="336" y="484" type="curve"/>
      <point x="336" y="360" type="line"/>
      <point x="344" y="360" type="line"/>
      <point x="368" y="368"/>
      <point x="404" y="380"/>
      <point x="452" y="380" type="curve" smooth="yes"/>
      <point x="516" y="380"/>
      <point x="544" y="360"/>
      <point x="544" y="311" type="curve" smooth="yes"/>
      <point x="544" y="204" type="line" smooth="yes"/>
      <point x="544" y="155"/>
      <point x="559" y="122"/>
      <point x="575" y="126" type="curve"/>
      <point x="568" y="148" type="line"/>
      <point x="559" y="146"/>
      <point x="545" y="144"/>
      <point x="532" y="144" type="curve" smooth="yes"/>
      <point x="480" y="144"/>
      <point x="452" y="152"/>
      <point x="452" y="184" type="curve" smooth="yes"/>
      <point x="452" y="214"/>
      <point x="475" y="224"/>
      <point x="512" y="224" type="curve" smooth="yes"/>
      <point x="528" y="224"/>
      <point x="537" y="222"/>
      <point x="554" y="218" type="curve"/>
      <point x="554" y="308" type="line"/>
      <point x="530" y="313"/>
      <point x="508" y="316"/>
      <point x="480" y="316" type="curve" smooth="yes"/>
      <point x="380" y="316"/>
      <point x="292" y="280"/>
      <point x="292" y="180" type="curve" smooth="yes"/>
      <point x="292" y="76"/>
      <point x="380" y="32"/>
      <point x="532" y="32" type="curve" smooth="yes"/>
      <point x="766" y="32"/>
      <point x="950" y="136"/>
      <point x="950" y="376" type="curve" smooth="yes"/>
      <point x="950" y="596"/>
      <point x="782" y="740"/>
      <point x="516" y="740" type="curve" smooth="yes"/>
      <point x="220" y="740"/>
      <point x="36" y="564"/>
      <point x="36" y="280" type="curve" smooth="yes"/>
      <point x="36" y="-12"/>
      <point x="220" y="-188"/>
    </contour>
  </outline>
</glyph>
<glyph name="A" format="2">
  <advance width="736"/>
  <unicode hex="0041"/>
  <note>
A
</note>
  <anchor x="368" y="0" name="bottom"/>
  <anchor x="668" y="0" name="ogonek"/>
  <anchor x="410" y="720" name="top"/>
  <outline>
    <contour>
      <point x="28" y="0" type="line"/>
      <point x="240" y="0" type="line"/>
      <point x="316" y="460" type="line" smooth="yes"/>
      <point x="326" y="523"/>
      <point x="356" y="552"/>
      <point x="432" y="552" type="curve" smooth="yes"/>
      <point x="451" y="552"/>
      <point x="480" y="550"/>
      <point x="493" y="548" type="curve"/>
      <point x="467" y="598" type="line"/>
      <point x="460" y="569"/>
      <point x="456" y="532"/>
      <point x="456" y="488" type="curve" smooth="yes"/>
      <point x="456" y="0" type="line"/>
      <point x="668" y="0" type="line"/>
      <point x="668" y="536" type="line" smooth="yes"/>
      <point x="668" y="576"/>
      <point x="668" y="660"/>
      <point x="676" y="696" type="curve"/>
      <point x="674" y="708" type="line"/>
      <point x="620" y="720"/>
      <point x="540" y="728"/>
      <point x="480" y="728" type="curve" smooth="yes"/>
      <point x="288" y="728"/>
      <point x="147" y="697"/>
      <point x="108" y="468" type="curve" smooth="yes"/>
    </contour>
    <contour>
      <point x="168" y="168" type="line"/>
      <point x="556" y="168" type="line"/>
      <point x="556" y="336" type="line"/>
      <point x="168" y="336" type="line"/>
    </contour>
  </outline>
</glyph>
<glyph name="C" format="2">
  <advance width="648"/>
  <unicode hex="0043"/>
  <note>
C
</note>
  <anchor x="388" y="0" name="bottom"/>
  <anchor x="388" y="720" name="top"/>
  <outline>
    <contour>
      <point x="36" y="360" type="curve" smooth="yes"/>
      <point x="36" y="132"/>
      <point x="172" y="-12"/>
      <point x="448" y="-12" type="curve" smooth="yes"/>
      <point x="516" y="-12"/>
      <point x="576" y="0"/>
      <point x="604" y="12" type="curve"/>
      <point x="604" y="190" type="line"/>
      <point x="592" y="190" type="line"/>
      <point x="564" y="176"/>
      <point x="516" y="164"/>
      <point x="464" y="164" type="curve" smooth="yes"/>
      <point x="308" y="164"/>
      <point x="252" y="248"/>
      <point x="252" y="360" type="curve" smooth="yes"/>
      <point x="252" y="472"/>
      <point x="308" y="556"/>
      <point x="464" y="556" type="curve" smooth="yes"/>
      <point x="516" y="556"/>
      <point x="564" y="544"/>
      <point x="592" y="530" type="curve"/>
      <point x="604" y="530" type="line"/>
      <point x="604" y="708" type="line"/>
      <point x="576" y="720"/>
      <point x="516" y="732"/>
      <point x="448" y="732" type="curve" smooth="yes"/>
      <point x="172" y="732"/>
      <point x="36" y="588"/>
    </contour>
  </outline>
</glyph>
<glyph name="H" format="2">
  <advance width="784"/>
  <unicode hex="0048"/>
  <note>
H
</note>
  <anchor x="392" y="0" name="bottom"/>
  <anchor x="392" y="574" name="center"/>
  <anchor x="392" y="720" name="top"/>
  <anchor x="20" y="720" name="topleft"/>
  <outline>
    <contour>
      <point x="504" y="0" type="line"/>
      <point x="716" y="0" type="line"/>
      <point x="716" y="720" type="line"/>
      <point x="504" y="720" type="line"/>
    </contour>
    <contour>
      <point x="68" y="0" type="line"/>
      <point x="280" y="0" type="line"/>
      <point x="280" y="720" type="line"/>
      <point x="68" y="720" type="line"/>
    </contour>
    <contour>
      <point x="180" y="264" type="line"/>
      <point x="604" y="264" type="line"/>
      <point x="604" y="448" type="line"/>
      <point x="180" y="448" type="line"/>
    </contour>
  </outline>
</glyph>
<glyph name="J" format="2">
  <advance width="484"/>
  <unicode hex="004A"/>
  <note>
J
</note>
  <anchor x="242" y="0" name="bottom"/>
  <anchor x="314" y="720" name="top"/>
  <outline>
    <contour>
      <point x="24" y="172" type="line"/>
      <point x="24" y="0" type="line"/>
      <point x="52" y="-8"/>
      <point x="96" y="-12"/>
      <point x="136" y="-12" type="curve" smooth="yes"/>
      <point x="292" y="-12"/>
      <point x="420" y="56"/>
      <point x="420" y="244" type="curve" smooth="yes"/>
      <point x="420" y="720" type="line"/>
      <point x="208" y="720" type="line"/>
      <point x="208" y="260" type="line" smooth="yes"/>
      <point x="208" y="188"/>
      <point x="172" y="160"/>
      <point x="100" y="160" type="curve" smooth="yes"/>
      <point x="72" y="160"/>
      <point x="56" y="164"/>
      <point x="36" y="172" type="curve"/>
    </contour>
  </outline>
</glyph>
<glyph name="K" format="2">
  <advance width="724"/>
  <unicode hex="004B"/>
  <note>
K
</note>
  <anchor x="362" y="0" name="bottom"/>
  <anchor x="362" y="720" name="top"/>
  <outline>
    <contour>
      <point x="313" y="232" type="line"/>
      <point x="455" y="232"/>
      <point x="563" y="319"/>
      <point x="601" y="436" type="curve" smooth="yes"/>
      <point x="689" y="708" type="line"/>
      <point x="689" y="720" type="line"/>
      <point x="481" y="720" type="line"/>
      <point x="413" y="488" type="line" smooth="yes"/>
      <point x="398" y="436"/>
      <point x="365" y="412"/>
      <point x="301" y="412" type="curve" smooth="yes"/>
      <point x="181" y="412" type="line"/>
      <point x="181" y="232" type="line"/>
    </contour>
    <contour>
      <point x="69" y="0" type="line"/>
      <point x="281" y="0" type="line"/>
      <point x="281" y="720" type="line"/>
      <point x="69" y="720" type="line"/>
    </contour>
    <contour>
      <point x="497" y="336" type="line"/>
      <point x="325" y="264" type="line"/>
      <point x="481" y="0" type="line"/>
      <point x="705" y="0" type="line"/>
      <point x="705" y="12" type="line"/>
    </contour>
  </outline>
</glyph>
<glyph name="O" format="2">
  <advance width="832"/>
  <unicode hex="004F"/>
  <note>
O
</note>
  <anchor x="416" y="0" name="bottom"/>
  <anchor x="416" y="360" name="center"/>
  <anchor x="498" y="10" name="ogonek"/>
  <anchor x="416" y="720" name="top"/>
  <anchor x="20" y="720" name="topleft"/>
  <anchor x="525" y="720" name="topright"/>
  <outline>
    <contour>
      <point x="36" y="360" type="curve" smooth="yes"/>
      <point x="36" y="136"/>
      <point x="172" y="-12"/>
      <point x="416" y="-12" type="curve" smooth="yes"/>
      <point x="660" y="-12"/>
      <point x="796" y="140"/>
      <point x="796" y="360" type="curve" smooth="yes"/>
      <point x="796" y="580"/>
      <point x="660" y="732"/>
      <point x="416" y="732" type="curve" smooth="yes"/>
      <point x="172" y="732"/>
      <point x="36" y="580"/>
    </contour>
    <contour>
      <point x="252" y="360" type="curve" smooth="yes"/>
      <point x="252" y="468"/>
      <point x="300" y="556"/>
      <point x="416" y="556" type="curve" smooth="yes"/>
      <point x="532" y="556"/>
      <point x="580" y="468"/>
      <point x="580" y="360" type="curve" smooth="yes"/>
      <point x="580" y="252"/>
      <point x="532" y="164"/>
      <point x="416" y="164" type="curve" smooth="yes"/>
      <point x="300" y="164"/>
      <point x="252" y="252"/>
    </contour>
  </outline>
</glyph>
<glyph name="Q" format="2">
  <advance width="832"/>
  <unicode hex="0051"/>
  <note>
Q
</note>
  <anchor x="416" y="0" name="bottom"/>
  <anchor x="416" y="720" name="top"/>
  <anchor x="416" y="360" name="center"/>
  <anchor x="498" y="10" name="ogonek"/>
  <anchor x="20" y="720" name="topleft"/>
  <anchor x="525" y="720" name="topright"/>
  <outline>
    <contour>
      <point x="560" y="-160" type="line"/>
      <point x="798" y="-160" type="line"/>
      <point x="798" y="-148" type="line"/>
      <point x="560" y="82" type="line"/>
      <point x="343" y="49" type="line"/>
    </contour>
    <component base="O"/>
  </outline>
</glyph>
<glyph name="R" format="2">
  <advance width="744"/>
  <unicode hex="0052"/>
  <note>
R
</note>
  <anchor x="372" y="0" name="bottom"/>
  <anchor x="372" y="720" name="top"/>
  <outline>
    <contour>
      <point x="180" y="152" type="line"/>
      <point x="356" y="152" type="line" smooth="yes"/>
      <point x="532" y="152"/>
      <point x="692" y="270"/>
      <point x="692" y="460" type="curve" smooth="yes"/>
      <point x="692" y="616"/>
      <point x="593" y="720"/>
      <point x="376" y="720" type="curve" smooth="yes"/>
      <point x="180" y="720" type="line"/>
      <point x="180" y="544" type="line"/>
      <point x="376" y="544" type="line" smooth="yes"/>
      <point x="438" y="544"/>
      <point x="480" y="516"/>
      <point x="480" y="452" type="curve" smooth="yes"/>
      <point x="480" y="384"/>
      <point x="444" y="320"/>
      <point x="348" y="320" type="curve" smooth="yes"/>
      <point x="180" y="320" type="line"/>
    </contour>
    <contour>
      <point x="68" y="0" type="line"/>
      <point x="280" y="0" type="line"/>
      <point x="280" y="720" type="line"/>
      <point x="68" y="720" type="line"/>
    </contour>
    <contour>
      <point x="472" y="0" type="line"/>
      <point x="704" y="0" type="line"/>
      <point x="704" y="12" type="line"/>
      <point x="541" y="228" type="line"/>
      <point x="348" y="192" type="line"/>
    </contour>
  </outline>
</glyph>
<glyph name="S" format="2">
  <advance width="648"/>
  <unicode hex="0053"/>
  <note>
S
</note>
  <anchor x="324" y="0" name="bottom"/>
  <anchor x="324" y="720" name="top"/>
  <outline>
    <contour>
      <point x="52" y="212" type="line"/>
      <point x="52" y="28" type="line"/>
      <point x="100" y="8"/>
      <point x="200" y="-12"/>
      <point x="292" y="-12" type="curve" smooth="yes"/>
      <point x="468" y="-12"/>
      <point x="620" y="40"/>
      <point x="620" y="204" type="curve" smooth="yes"/>
      <point x="620" y="348"/>
      <point x="512" y="399"/>
      <point x="388" y="418" type="curve" smooth="yes"/>
      <point x="336" y="426" type="line" smooth="yes"/>
      <point x="259" y="438"/>
      <point x="232" y="452"/>
      <point x="232" y="492" type="curve" smooth="yes"/>
      <point x="232" y="540"/>
      <point x="272" y="564"/>
      <point x="368" y="564" type="curve" smooth="yes"/>
      <point x="448" y="564"/>
      <point x="520" y="544"/>
      <point x="564" y="524" type="curve"/>
      <point x="576" y="524" type="line"/>
      <point x="576" y="700" type="line"/>
      <point x="532" y="718"/>
      <point x="460" y="732"/>
      <point x="384" y="732" type="curve" smooth="yes"/>
      <point x="128" y="732"/>
      <point x="28" y="632"/>
      <point x="28" y="480" type="curve" smooth="yes"/>
      <point x="28" y="356"/>
      <point x="106" y="282"/>
      <point x="276" y="258" type="curve" smooth="yes"/>
      <point x="332" y="250" type="line" smooth="yes"/>
      <point x="396" y="241"/>
      <point x="412" y="228"/>
      <point x="412" y="200" type="curve" smooth="yes"/>
      <point x="412" y="168"/>
      <point x="376" y="156"/>
      <point x="292" y="156" type="curve" smooth="yes"/>
      <point x="207" y="156"/>
      <point x="114" y="186"/>
      <point x="64" y="212" type="curve"/>
    </contour>
  </outline>
</glyph>
<glyph name="T" format="2">
  <advance width="652"/>
  <unicode hex="0054"/>
  <note>
T
</note>
  <anchor x="326" y="0" name="bottom"/>
  <anchor x="326" y="360" name="center"/>
  <anchor x="326" y="720" name="top"/>
  <outline>
    <contour>
      <point x="20" y="720" type="line"/>
      <point x="20" y="536" type="line"/>
      <point x="220" y="536" type="line"/>
      <point x="220" y="0" type="line"/>
      <point x="432" y="0" type="line"/>
      <point x="432" y="536" type="line"/>
      <point x="632" y="536" type="line"/>
      <point x="632" y="720" type="line"/>
    </contour>
  </outline>
</glyph>
<glyph name="U" format="2">
  <advance width="772"/>
  <unicode hex="0055"/>
  <note>
U
</note>
  <anchor x="386" y="0" name="bottom"/>
  <anchor x="478" y="10" name="ogonek"/>
  <anchor x="386" y="720" name="top"/>
  <anchor x="648" y="720" name="topright"/>
  <outline>
    <contour>
      <point x="64" y="720" type="line"/>
      <point x="64" y="312" type="line" smooth="yes"/>
      <point x="64" y="100"/>
      <point x="156" y="-12"/>
      <point x="384" y="-12" type="curve" smooth="yes"/>
      <point x="608" y="-12"/>
      <point x="708" y="100"/>
      <point x="708" y="312" type="curve" smooth="yes"/>
      <point x="708" y="720" type="line"/>
      <point x="496" y="720" type="line"/>
      <point x="496" y="300" type="line" smooth="yes"/>
      <point x="496" y="216"/>
      <point x="468" y="164"/>
      <point x="384" y="164" type="curve" smooth="yes"/>
      <point x="300" y="164"/>
      <point x="276" y="216"/>
      <point x="276" y="300" type="curve" smooth="yes"/>
      <point x="276" y="720" type="line"/>
    </contour>
  </outline>
</glyph>
<glyph name="X" format="2">
  <advance width="724"/>
  <unicode hex="0058"/>
  <note>
X
</note>
  <anchor x="362" y="0" name="bottom"/>
  <anchor x="362" y="720" name="top"/>
  <outline>
    <contour>
      <point x="488" y="0" type="line"/>
      <point x="720" y="0" type="line"/>
      <point x="720" y="12" type="line"/>
      <point x="432" y="428" type="line"/>
      <point x="236" y="720" type="line"/>
      <point x="4" y="720" type="line"/>
      <point x="4" y="708" type="line"/>
      <point x="292" y="292" type="line"/>
    </contour>
    <contour>
      <point x="8" y="0" type="line"/>
      <point x="236" y="0" type="line"/>
      <point x="424" y="296" type="line"/>
      <point x="716" y="708" type="line"/>
      <point x="716" y="720" type="line"/>
      <point x="488" y="720" type="line"/>
      <point x="300" y="424" type="line"/>
      <point x="8" y="12" type="line"/>
    </contour>
  </outline>
</glyph>
<glyph name="Y" format="2">
  <advance width="676"/>
  <unicode hex="0059"/>
  <note>
Y
</note>
  <anchor x="334" y="0" name="bottom"/>
  <anchor x="338" y="720" name="top"/>
  <anchor x="20" y="720" name="topleft"/>
  <outline>
    <contour>
      <point x="228" y="0" type="line"/>
      <point x="440" y="0" type="line"/>
      <point x="440" y="298" type="line"/>
      <point x="676" y="708" type="line"/>
      <point x="676" y="720" type="line"/>
      <point x="456" y="720" type="line"/>
      <point x="307" y="402" type="line"/>
      <point x="384" y="403" type="line"/>
      <point x="220" y="720" type="line"/>
      <point x="0" y="720" type="line"/>
      <point x="0" y="708" type="line"/>
      <point x="228" y="298" type="line"/>
    </contour>
  </outline>
</glyph>
<glyph name="backslash" format="2">
  <advance width="588"/>
  <unicode hex="005C"/>
  <note>
backslash
</note>
  <outline>
    <contour>
      <point x="376" y="0" type="line"/>
      <point x="556" y="0" type="line"/>
      <point x="212" y="720" type="line"/>
      <point x="32" y="720" type="line"/>
    </contour>
  </outline>
</glyph>
<glyph name="asciicircum" format="2">
  <advance width="616"/>
  <unicode hex="005E"/>
  <note>
asciicircum
</note>
  <outline>
    <contour>
      <point x="81" y="380" type="line"/>
      <point x="221" y="380" type="line"/>
      <point x="308" y="536" type="line"/>
      <point x="398" y="380" type="line"/>
      <point x="534" y="380" type="line"/>
      <point x="534" y="388" type="line"/>
      <point x="348" y="720" type="line"/>
      <point x="268" y="720" type="line"/>
      <point x="81" y="388" type="line"/>
    </contour>
  </outline>
</glyph>
<glyph name="a" format="2">
  <advance width="616"/>
  <unicode hex="0061"/>
  <note>
a
</note>
  <anchor x="308" y="0" name="bottom"/>
  <anchor x="564" y="32" name="ogonek"/>
  <anchor x="308" y="548" name="top"/>
  <outline>
    <contour>
      <point x="316" y="-12" type="curve" smooth="yes"/>
      <point x="412" y="-12"/>
      <point x="492" y="6"/>
      <point x="564" y="32" type="curve"/>
      <point x="568" y="40" type="line"/>
      <point x="558" y="76"/>
      <point x="556" y="156"/>
      <point x="556" y="200" type="curve" smooth="yes"/>
      <point x="556" y="316" type="line" smooth="yes"/>
      <point x="556" y="512"/>
      <point x="437" y="564"/>
      <point x="260" y="564" type="curve" smooth="yes"/>
      <point x="188" y="564"/>
      <point x="128" y="556"/>
      <point x="80" y="544" type="curve"/>
      <point x="80" y="388" type="line"/>
      <point x="92" y="388" type="line"/>
      <point x="124" y="402"/>
      <point x="176" y="412"/>
      <point x="236" y="412" type="curve" smooth="yes"/>
      <point x="312" y="412"/>
      <point x="352" y="396"/>
      <point x="352" y="332" type="curve" smooth="yes"/>
      <point x="352" y="260" type="line" smooth="yes"/>
      <point x="352" y="156"/>
      <point x="354" y="144"/>
      <point x="376" y="93" type="curve"/>
      <point x="398" y="151" type="line"/>
      <point x="378" y="125"/>
      <point x="341" y="120"/>
      <point x="304" y="120" type="curve" smooth="yes"/>
      <point x="256" y="120"/>
      <point x="228" y="132"/>
      <point x="228" y="168" type="curve" smooth="yes"/>
      <point x="228" y="204"/>
      <point x="252" y="220"/>
      <point x="308" y="220" type="curve" smooth="yes"/>
      <point x="332" y="220"/>
      <point x="360" y="216"/>
      <point x="372" y="212" type="curve"/>
      <point x="372" y="328" type="line"/>
      <point x="340" y="334"/>
      <point x="308" y="336"/>
      <point x="276" y="336" type="curve" smooth="yes"/>
      <point x="140" y="336"/>
      <point x="36" y="288"/>
      <point x="36" y="164" type="curve" smooth="yes"/>
      <point x="36" y="32"/>
      <point x="132" y="-12"/>
    </contour>
  </outline>
</glyph>
<glyph name="c" format="2">
  <advance width="528"/>
  <unicode hex="0063"/>
  <note>
c
</note>
  <anchor x="264" y="0" name="bottom"/>
  <anchor x="264" y="548" name="top"/>
  <outline>
    <contour>
      <point x="40" y="276" type="curve" smooth="yes"/>
      <point x="40" y="68"/>
      <point x="178" y="-12"/>
      <point x="368" y="-12" type="curve" smooth="yes"/>
      <point x="412" y="-12"/>
      <point x="456" y="-6"/>
      <point x="488" y="4" type="curve"/>
      <point x="488" y="168" type="line"/>
      <point x="476" y="168" type="line"/>
      <point x="456" y="160"/>
      <point x="432" y="152"/>
      <point x="396" y="152" type="curve" smooth="yes"/>
      <point x="304" y="152"/>
      <point x="256" y="196"/>
      <point x="256" y="276" type="curve" smooth="yes"/>
      <point x="256" y="356"/>
      <point x="304" y="400"/>
      <point x="396" y="400" type="curve" smooth="yes"/>
      <point x="432" y="400"/>
      <point x="456" y="392"/>
      <point x="476" y="384" type="curve"/>
      <point x="488" y="384" type="line"/>
      <point x="488" y="548" type="line"/>
      <point x="456" y="558"/>
      <point x="412" y="564"/>
      <point x="368" y="564" type="curve" smooth="yes"/>
      <point x="184" y="564"/>
      <point x="40" y="484"/>
    </contour>
  </outline>
</glyph>
<glyph name="d" format="2">
  <advance width="684"/>
  <unicode hex="0064"/>
  <note>
d
</note>
  <anchor x="342" y="0" name="bottom"/>
  <anchor x="494" y="650" name="center"/>
  <anchor x="342" y="760" name="top"/>
  <anchor x="746" y="548" name="topright"/>
  <outline>
    <contour>
      <point x="368" y="-12" type="curve" smooth="yes"/>
      <point x="480" y="-12"/>
      <point x="564" y="4"/>
      <point x="620" y="28" type="curve"/>
      <point x="624" y="36" type="line"/>
      <point x="616" y="72"/>
      <point x="616" y="152"/>
      <point x="616" y="192" type="curve" smooth="yes"/>
      <point x="616" y="760" type="line"/>
      <point x="396" y="760" type="line"/>
      <point x="392" y="752" type="line"/>
      <point x="399" y="723"/>
      <point x="404" y="626"/>
      <point x="404" y="569" type="curve" smooth="yes"/>
      <point x="404" y="196" type="line" smooth="yes"/>
      <point x="404" y="155"/>
      <point x="404" y="122"/>
      <point x="422" y="98" type="curve"/>
      <point x="432" y="148" type="line"/>
      <point x="420" y="144"/>
      <point x="404" y="140"/>
      <point x="372" y="140" type="curve" smooth="yes"/>
      <point x="283" y="140"/>
      <point x="256" y="204"/>
      <point x="256" y="276" type="curve" smooth="yes"/>
      <point x="256" y="358"/>
      <point x="289" y="412"/>
      <point x="372" y="412" type="curve" smooth="yes"/>
      <point x="396" y="412"/>
      <point x="412" y="406"/>
      <point x="432" y="400" type="curve"/>
      <point x="432" y="548" type="line"/>
      <point x="423" y="551"/>
      <point x="384" y="564"/>
      <point x="332" y="563" type="curve" smooth="yes"/>
      <point x="152" y="560"/>
      <point x="40" y="452"/>
      <point x="40" y="276" type="curve" smooth="yes"/>
      <point x="40" y="60"/>
      <point x="172" y="-12"/>
    </contour>
  </outline>
</glyph>
<glyph name="g" format="2">
  <advance width="684"/>
  <unicode hex="0067"/>
  <note>
g
</note>
  <anchor x="342" y="-240" name="bottom"/>
  <anchor x="342" y="548" name="top"/>
  <outline>
    <contour>
      <point x="262" y="-240" type="curve" smooth="yes"/>
      <point x="468" y="-240"/>
      <point x="616" y="-156"/>
      <point x="616" y="52" type="curve" smooth="yes"/>
      <point x="616" y="348" type="line" smooth="yes"/>
      <point x="616" y="392"/>
      <point x="616" y="472"/>
      <point x="624" y="508" type="curve"/>
      <point x="620" y="516" type="line"/>
      <point x="572" y="540"/>
      <point x="496" y="564"/>
      <point x="392" y="564" type="curve" smooth="yes"/>
      <point x="200" y="564"/>
      <point x="40" y="480"/>
      <point x="40" y="276" type="curve" smooth="yes"/>
      <point x="40" y="92"/>
      <point x="154" y="4"/>
      <point x="336" y="4" type="curve" smooth="yes"/>
      <point x="359" y="4"/>
      <point x="384" y="5"/>
      <point x="416" y="10" type="curve"/>
      <point x="416" y="158" type="line"/>
      <point x="396" y="152"/>
      <point x="384" y="152"/>
      <point x="372" y="152" type="curve" smooth="yes"/>
      <point x="290" y="152"/>
      <point x="256" y="200"/>
      <point x="256" y="280" type="curve" smooth="yes"/>
      <point x="256" y="348"/>
      <point x="289" y="408"/>
      <point x="372" y="408" type="curve" smooth="yes"/>
      <point x="405" y="408"/>
      <point x="438" y="401"/>
      <point x="438" y="405" type="curve"/>
      <point x="423" y="438" type="line"/>
      <point x="407" y="426"/>
      <point x="404" y="375"/>
      <point x="404" y="320" type="curve" smooth="yes"/>
      <point x="404" y="20" type="line" smooth="yes"/>
      <point x="404" y="-60"/>
      <point x="328" y="-76"/>
      <point x="242" y="-76" type="curve" smooth="yes"/>
      <point x="202" y="-76"/>
      <point x="148" y="-67"/>
      <point x="116" y="-52" type="curve"/>
      <point x="100" y="-52" type="line"/>
      <point x="100" y="-216" type="line"/>
      <point x="136" y="-232"/>
      <point x="206" y="-240"/>
    </contour>
  </outline>
</glyph>
<glyph name="m" format="2">
  <advance width="1028"/>
  <unicode hex="006D"/>
  <note>
m
</note>
  <anchor x="514" y="0" name="bottom"/>
  <anchor x="514" y="548" name="top"/>
  <outline>
    <contour>
      <point x="68" y="0" type="line"/>
      <point x="280" y="0" type="line"/>
      <point x="280" y="316" type="line" smooth="yes"/>
      <point x="280" y="372"/>
      <point x="274" y="404"/>
      <point x="264" y="425" type="curve"/>
      <point x="236" y="380" type="line"/>
      <point x="260" y="388"/>
      <point x="288" y="400"/>
      <point x="324" y="400" type="curve" smooth="yes"/>
      <point x="376" y="400"/>
      <point x="412" y="380"/>
      <point x="412" y="304" type="curve" smooth="yes"/>
      <point x="412" y="0" type="line"/>
      <point x="624" y="0" type="line"/>
      <point x="624" y="308" type="line" smooth="yes"/>
      <point x="624" y="516"/>
      <point x="476" y="564"/>
      <point x="338" y="564" type="curve" smooth="yes"/>
      <point x="228" y="564"/>
      <point x="132" y="536"/>
      <point x="60" y="504" type="curve"/>
      <point x="56" y="496" type="line"/>
      <point x="65" y="460"/>
      <point x="68" y="376"/>
      <point x="68" y="336" type="curve" smooth="yes"/>
    </contour>
    <contour>
      <point x="752" y="0" type="line"/>
      <point x="964" y="0" type="line"/>
      <point x="964" y="308" type="line" smooth="yes"/>
      <point x="964" y="528"/>
      <point x="820" y="564"/>
      <point x="696" y="564" type="curve" smooth="yes"/>
      <point x="617" y="564"/>
      <point x="544" y="544"/>
      <point x="496" y="522" type="curve"/>
      <point x="600" y="392" type="line"/>
      <point x="614" y="396"/>
      <point x="640" y="400"/>
      <point x="664" y="400" type="curve" smooth="yes"/>
      <point x="716" y="400"/>
      <point x="752" y="380"/>
      <point x="752" y="304" type="curve" smooth="yes"/>
    </contour>
  </outline>
</glyph>
<glyph name="t" format="2">
  <advance width="500"/>
  <unicode hex="0074"/>
  <note>
t
</note>
  <anchor x="250" y="0" name="bottom"/>
  <anchor x="250" y="274" name="center"/>
  <anchor x="206" y="680" name="top"/>
  <anchor x="431" y="616" name="topright"/>
  <outline>
    <contour>
      <point x="364" y="-8" type="curve" smooth="yes"/>
      <point x="410" y="-8"/>
      <point x="440" y="-4"/>
      <point x="472" y="4" type="curve"/>
      <point x="472" y="168" type="line"/>
      <point x="460" y="168" type="line"/>
      <point x="444" y="162"/>
      <point x="422" y="156"/>
      <point x="400" y="156" type="curve" smooth="yes"/>
      <point x="340" y="156"/>
      <point x="312" y="176"/>
      <point x="312" y="232" type="curve" smooth="yes"/>
      <point x="312" y="680" type="line"/>
      <point x="100" y="680" type="line"/>
      <point x="100" y="216" type="line" smooth="yes"/>
      <point x="100" y="36"/>
      <point x="216" y="-8"/>
    </contour>
    <contour>
      <point x="8" y="388" type="line"/>
      <point x="450" y="388" type="line"/>
      <point x="450" y="548" type="line"/>
      <point x="8" y="548" type="line"/>
    </contour>
  </outline>
</glyph>
<glyph name="u" format="2">
  <advance width="692"/>
  <unicode hex="0075"/>
  <note>
u
</note>
  <anchor x="346" y="0" name="bottom"/>
  <anchor x="632" y="48" name="ogonek"/>
  <anchor x="346" y="548" name="top"/>
  <anchor x="517" y="548" name="topright"/>
  <outline>
    <contour>
      <point x="354" y="-12" type="curve" smooth="yes"/>
      <point x="464" y="-12"/>
      <point x="560" y="16"/>
      <point x="632" y="48" type="curve"/>
      <point x="636" y="56" type="line"/>
      <point x="627" y="92"/>
      <point x="624" y="176"/>
      <point x="624" y="216" type="curve" smooth="yes"/>
      <point x="624" y="548" type="line"/>
      <point x="404" y="548" type="line"/>
      <point x="400" y="540" type="line"/>
      <point x="409" y="504"/>
      <point x="412" y="424"/>
      <point x="412" y="384" type="curve" smooth="yes"/>
      <point x="412" y="236" type="line" smooth="yes"/>
      <point x="412" y="180"/>
      <point x="418" y="148"/>
      <point x="428" y="127" type="curve"/>
      <point x="456" y="172" type="line"/>
      <point x="432" y="164"/>
      <point x="404" y="152"/>
      <point x="368" y="152" type="curve" smooth="yes"/>
      <point x="316" y="152"/>
      <point x="276" y="172"/>
      <point x="276" y="248" type="curve" smooth="yes"/>
      <point x="276" y="548" type="line"/>
      <point x="56" y="548" type="line"/>
      <point x="52" y="540" type="line"/>
      <point x="61" y="504"/>
      <point x="64" y="424"/>
      <point x="64" y="384" type="curve" smooth="yes"/>
      <point x="64" y="244" type="line" smooth="yes"/>
      <point x="64" y="36"/>
      <point x="212" y="-12"/>
    </contour>
  </outline>
</glyph>
<glyph name="v" format="2">
  <advance width="640"/>
  <unicode hex="0076"/>
  <note>
v
</note>
  <anchor x="320" y="0" name="bottom"/>
  <anchor x="320" y="548" name="top"/>
  <outline>
    <contour>
      <point x="184" y="0" type="line"/>
      <point x="448" y="0" type="line"/>
      <point x="636" y="536" type="line"/>
      <point x="636" y="548" type="line"/>
      <point x="412" y="548" type="line"/>
      <point x="301" y="104" type="line"/>
      <point x="343" y="104" type="line"/>
      <point x="232" y="548" type="line"/>
      <point x="4" y="548" type="line"/>
      <point x="4" y="536" type="line"/>
    </contour>
  </outline>
</glyph>
<glyph name="y" format="2">
  <advance width="624"/>
  <unicode hex="0079"/>
  <note>
y
</note>
  <anchor x="520" y="0" name="bottom"/>
  <anchor x="312" y="548" name="top"/>
  <outline>
    <contour>
      <point x="120" y="-232" type="line"/>
      <point x="336" y="-232" type="line"/>
      <point x="624" y="536" type="line"/>
      <point x="624" y="548" type="line"/>
      <point x="408" y="548" type="line"/>
      <point x="264" y="116" type="line"/>
      <point x="120" y="-220" type="line"/>
    </contour>
    <contour>
      <point x="216" y="-72" type="line"/>
      <point x="328" y="152" type="line"/>
      <point x="228" y="548" type="line"/>
      <point x="0" y="548" type="line"/>
      <point x="0" y="536" type="line"/>
    </contour>
  </outline>
</glyph>
<glyph name="z" format="2">
  <advance width="592"/>
  <unicode hex="007A"/>
  <note>
z
</note>
  <anchor x="296" y="0" name="bottom"/>
  <anchor x="296" y="548" name="top"/>
  <outline>
    <contour>
      <point x="50" y="0" type="line"/>
      <point x="560" y="0" type="line"/>
      <point x="560" y="160" type="line"/>
      <point x="228" y="160" type="line"/>
      <point x="312" y="128" type="line"/>
      <point x="294" y="141"/>
      <point x="326" y="180"/>
      <point x="354" y="212" type="curve" smooth="yes"/>
      <point x="502" y="384" type="line" smooth="yes"/>
      <point x="533" y="420"/>
      <point x="552" y="456"/>
      <point x="552" y="500" type="curve" smooth="yes"/>
      <point x="552" y="512"/>
      <point x="551" y="522"/>
      <point x="548" y="536" type="curve"/>
      <point x="538" y="548" type="line"/>
      <point x="42" y="548" type="line"/>
      <point x="42" y="388" type="line"/>
      <point x="360" y="388" type="line"/>
      <point x="281" y="429" type="line"/>
      <point x="294" y="403"/>
      <point x="260" y="368"/>
      <point x="234" y="336" type="curve" smooth="yes"/>
      <point x="86" y="164" type="line" smooth="yes"/>
      <point x="55" y="128"/>
      <point x="36" y="92"/>
      <point x="36" y="48" type="curve" smooth="yes"/>
      <point x="36" y="36"/>
      <point x="37" y="26"/>
      <point x="40" y="12" type="curve"/>
    </contour>
  </outline>
</glyph>
<glyph name="cent" format="2">
  <advance width="616"/>
  <unicode hex="00A2"/>
  <note>
cent
</note>
  <outline>
    <contour>
      <point x="384" y="88" type="curve" smooth="yes"/>
      <point x="432" y="88"/>
      <point x="480" y="98"/>
      <point x="508" y="108" type="curve"/>
      <point x="508" y="264" type="line"/>
      <point x="496" y="264" type="line"/>
      <point x="472" y="252"/>
      <point x="452" y="244"/>
      <point x="404" y="244" type="curve" smooth="yes"/>
      <point x="332" y="244"/>
      <point x="268" y="284"/>
      <point x="268" y="374" type="curve" smooth="yes"/>
      <point x="268" y="464"/>
      <point x="332" y="504"/>
      <point x="404" y="504" type="curve" smooth="yes"/>
      <point x="452" y="504"/>
      <point x="472" y="496"/>
      <point x="496" y="484" type="curve"/>
      <point x="508" y="484" type="line"/>
      <point x="508" y="640" type="line"/>
      <point x="480" y="650"/>
      <point x="432" y="660"/>
      <point x="384" y="660" type="curve" smooth="yes"/>
      <point x="212" y="660"/>
      <point x="68" y="588"/>
      <point x="68" y="374" type="curve" smooth="yes"/>
      <point x="68" y="160"/>
      <point x="212" y="88"/>
    </contour>
    <contour>
      <point x="264" y="-64" type="line"/>
      <point x="424" y="-64" type="line"/>
      <point x="424" y="132" type="line"/>
      <point x="264" y="132" type="line"/>
    </contour>
    <contour>
      <point x="264" y="604" type="line"/>
      <point x="424" y="604" type="line"/>
      <point x="424" y="800" type="line"/>
      <point x="264" y="800" type="line"/>
    </contour>
  </outline>
</glyph>
<glyph name="brokenbar" format="2">
  <advance width="308"/>
  <unicode hex="00A6"/>
  <note>
brokenbar
</note>
  <outline>
    <contour>
      <point x="58" y="760" type="line"/>
      <point x="58" y="420" type="line"/>
      <point x="250" y="420" type="line"/>
      <point x="250" y="760" type="line"/>
    </contour>
    <contour>
      <point x="250" y="92" type="line"/>
      <point x="58" y="92" type="line"/>
      <point x="58" y="-248" type="line"/>
      <point x="250" y="-248" type="line"/>
    </contour>
  </outline>
</glyph>
<glyph name="logicalnot" format="2">
  <advance width="616"/>
  <unicode hex="00AC"/>
  <note>
logicalnot
</note>
  <outline>
    <contour>
      <point x="64" y="380" type="line"/>
      <point x="64" y="252" type="line"/>
      <point x="424" y="252" type="line"/>
      <point x="424" y="64" type="line"/>
      <point x="552" y="64" type="line"/>
      <point x="552" y="380" type="line"/>
    </contour>
  </outline>
</glyph>
<glyph name="degree" format="2">
  <advance width="432"/>
  <unicode hex="00B0"/>
  <note>
degree
</note>
  <outline>
    <contour>
      <point x="216" y="460" type="curve" smooth="yes"/>
      <point x="304" y="460"/>
      <point x="372" y="516"/>
      <point x="372" y="608" type="curve" smooth="yes"/>
      <point x="372" y="700"/>
      <point x="304" y="756"/>
      <point x="216" y="756" type="curve" smooth="yes"/>
      <point x="128" y="756"/>
      <point x="60" y="700"/>
      <point x="60" y="608" type="curve" smooth="yes"/>
      <point x="60" y="516"/>
      <point x="128" y="460"/>
    </contour>
    <contour>
      <point x="216" y="544" type="curve" smooth="yes"/>
      <point x="180" y="544"/>
      <point x="152" y="568"/>
      <point x="152" y="608" type="curve" smooth="yes"/>
      <point x="152" y="648"/>
      <point x="180" y="672"/>
      <point x="216" y="672" type="curve" smooth="yes"/>
      <point x="252" y="672"/>
      <point x="280" y="648"/>
      <point x="280" y="608" type="curve" smooth="yes"/>
      <point x="280" y="568"/>
      <point x="252" y="544"/>
    </contour>
  </outline>
</glyph>
<glyph name="paragraph" format="2">
  <advance width="712"/>
  <unicode hex="00B6"/>
  <note>
paragraph
</note>
  <outline>
    <contour>
      <point x="272" y="248" type="curve" smooth="yes"/>
      <point x="288" y="248" type="line"/>
      <point x="288" y="-250" type="line"/>
      <point x="432" y="-250" type="line"/>
      <point x="432" y="572" type="line"/>
      <point x="500" y="572" type="line"/>
      <point x="500" y="-250" type="line"/>
      <point x="636" y="-250" type="line"/>
      <point x="636" y="720" type="line"/>
      <point x="272" y="720" type="line" smooth="yes"/>
      <point x="145" y="720"/>
      <point x="36" y="636"/>
      <point x="36" y="484" type="curve" smooth="yes"/>
      <point x="36" y="332"/>
      <point x="145" y="248"/>
    </contour>
  </outline>
</glyph>
<glyph name="ordmasculine" format="2">
  <advance width="496"/>
  <unicode hex="00BA"/>
  <note>
ordmasculine
</note>
  <outline>
    <contour>
      <point x="27" y="517" type="curve" smooth="yes"/>
      <point x="27" y="369"/>
      <point x="120" y="307"/>
      <point x="248" y="307" type="curve" smooth="yes"/>
      <point x="377" y="307"/>
      <point x="469" y="369"/>
      <point x="469" y="517" type="curve" smooth="yes"/>
      <point x="469" y="665"/>
      <point x="377" y="728"/>
      <point x="248" y="728" type="curve" smooth="yes"/>
      <point x="120" y="728"/>
      <point x="27" y="665"/>
    </contour>
    <contour>
      <point x="198" y="517" type="curve" smooth="yes"/>
      <point x="198" y="580"/>
      <point x="211" y="613"/>
      <point x="248" y="613" type="curve" smooth="yes"/>
      <point x="285" y="613"/>
      <point x="298" y="580"/>
      <point x="298" y="517" type="curve" smooth="yes"/>
      <point x="298" y="454"/>
      <point x="285" y="421"/>
      <point x="248" y="421" type="curve" smooth="yes"/>
      <point x="211" y="421"/>
      <point x="198" y="454"/>
    </contour>
    <contour>
      <point x="48" y="254" type="line"/>
      <point x="48" y="140" type="line"/>
      <point x="448" y="140" type="line"/>
      <point x="448" y="254" type="line"/>
    </contour>
  </outline>
</glyph>
<glyph name="Thorn" format="2">
  <advance width="708"/>
  <unicode hex="00DE"/>
  <note>
Thorn
</note>
  <outline>
    <contour>
      <point x="196" y="80" type="line"/>
      <point x="344" y="80" type="line" smooth="yes"/>
      <point x="552" y="80"/>
      <point x="668" y="204"/>
      <point x="668" y="384" type="curve" smooth="yes"/>
      <point x="668" y="540"/>
      <point x="568" y="640"/>
      <point x="360" y="640" type="curve" smooth="yes"/>
      <point x="196" y="640" type="line"/>
      <point x="196" y="464" type="line"/>
      <point x="364" y="464" type="line" smooth="yes"/>
      <point x="420" y="464"/>
      <point x="460" y="436"/>
      <point x="460" y="376" type="curve" smooth="yes"/>
      <point x="460" y="308"/>
      <point x="428" y="248"/>
      <point x="336" y="248" type="curve" smooth="yes"/>
      <point x="196" y="248" type="line"/>
    </contour>
    <contour>
      <point x="56" y="0" type="line"/>
      <point x="268" y="0" type="line"/>
      <point x="268" y="720" type="line"/>
      <point x="56" y="720" type="line"/>
    </contour>
  </outline>
</glyph>
<glyph name="eth" format="2">
  <advance width="660"/>
  <unicode hex="00F0"/>
  <note>
eth
</note>
  <outline>
    <contour>
      <point x="436" y="280" type="curve"/>
      <point x="443" y="419" type="line"/>
      <point x="418" y="446"/>
      <point x="371" y="472"/>
      <point x="296" y="472" type="curve" smooth="yes"/>
      <point x="124" y="472"/>
      <point x="40" y="372"/>
      <point x="40" y="244" type="curve" smooth="yes"/>
      <point x="40" y="68"/>
      <point x="162" y="-12"/>
      <point x="318" y="-12" type="curve" smooth="yes"/>
      <point x="546" y="-12"/>
      <point x="620" y="156"/>
      <point x="620" y="344" type="curve" smooth="yes"/>
      <point x="620" y="585"/>
      <point x="473" y="732"/>
      <point x="222" y="732" type="curve" smooth="yes"/>
      <point x="178" y="732"/>
      <point x="132" y="728"/>
      <point x="100" y="720" type="curve"/>
      <point x="100" y="560" type="line"/>
      <point x="108" y="560" type="line"/>
      <point x="136" y="570"/>
      <point x="174" y="576"/>
      <point x="214" y="576" type="curve" smooth="yes"/>
      <point x="320" y="576"/>
      <point x="420" y="537"/>
      <point x="420" y="381" type="curve" smooth="yes"/>
      <point x="420" y="234"/>
      <point x="411" y="144"/>
      <point x="318" y="144" type="curve" smooth="yes"/>
      <point x="262" y="144"/>
      <point x="232" y="180"/>
      <point x="232" y="236" type="curve" smooth="yes"/>
      <point x="232" y="288"/>
      <point x="266" y="324"/>
      <point x="336" y="324" type="curve" smooth="yes"/>
      <point x="392" y="324"/>
      <point x="416" y="307"/>
    </contour>
    <contour>
      <point x="302" y="488" type="line"/>
      <point x="498" y="724" type="line"/>
      <point x="422" y="788" type="line"/>
      <point x="226" y="552" type="line"/>
    </contour>
  </outline>
</glyph>
<glyph name="divide" format="2">
  <advance width="616"/>
  <unicode hex="00F7"/>
  <note>
divide
</note>
  <outline>
    <contour>
      <point x="308" y="424" type="curve" smooth="yes"/>
      <point x="349" y="424"/>
      <point x="380" y="450"/>
      <point x="380" y="496" type="curve" smooth="yes"/>
      <point x="380" y="540"/>
      <point x="349" y="568"/>
      <point x="308" y="568" type="curve" smooth="yes"/>
      <point x="267" y="568"/>
      <point x="236" y="540"/>
      <point x="236" y="496" type="curve" smooth="yes"/>
      <point x="236" y="450"/>
      <point x="267" y="424"/>
    </contour>
    <contour>
      <point x="236" y="144" type="curve" smooth="yes"/>
      <point x="236" y="98"/>
      <point x="267" y="72"/>
      <point x="308" y="72" type="curve" smooth="yes"/>
      <point x="349" y="72"/>
      <point x="380" y="98"/>
      <point x="380" y="144" type="curve" smooth="yes"/>
      <point x="380" y="188"/>
      <point x="349" y="216"/>
      <point x="308" y="216" type="curve" smooth="yes"/>
      <point x="267" y="216"/>
      <point x="236" y="188"/>
    </contour>
    <contour>
      <point x="64" y="380" type="line"/>
      <point x="64" y="252" type="line"/>
      <point x="552" y="252" type="line"/>
      <point x="552" y="380" type="line"/>
    </contour>
  </outline>
</glyph>
<glyph name="IJ" format="2">
  <advance width="832"/>
  <unicode hex="0132"/>
  <note>
IJ
</note>
  <outline>
    <contour>
      <point x="68" y="720" type="line"/>
      <point x="68" y="0" type="line"/>
      <point x="280" y="0" type="line"/>
      <point x="280" y="720" type="line"/>
    </contour>
    <contour>
      <point x="372" y="172" type="line"/>
      <point x="372" y="0" type="line"/>
      <point x="400" y="-8"/>
      <point x="444" y="-12"/>
      <point x="484" y="-12" type="curve" smooth="yes"/>
      <point x="640" y="-12"/>
      <point x="768" y="56"/>
      <point x="768" y="244" type="curve" smooth="yes"/>
      <point x="768" y="720" type="line"/>
      <point x="556" y="720" type="line"/>
      <point x="556" y="260" type="line" smooth="yes"/>
      <point x="556" y="188"/>
      <point x="520" y="160"/>
      <point x="448" y="160" type="curve" smooth="yes"/>
      <point x="420" y="160"/>
      <point x="404" y="164"/>
      <point x="384" y="172" type="curve"/>
    </contour>
  </outline>
</glyph>
<glyph name="oe" format="2">
  <advance width="1012"/>
  <unicode hex="0153"/>
  <note>
oe
</note>
  <outline>
    <contour>
      <point x="40" y="276" type="curve" smooth="yes"/>
      <point x="40" y="76"/>
      <point x="164" y="-12"/>
      <point x="336" y="-12" type="curve" smooth="yes"/>
      <point x="488" y="-12"/>
      <point x="612" y="76"/>
      <point x="612" y="276" type="curve" smooth="yes"/>
      <point x="612" y="476"/>
      <point x="488" y="564"/>
      <point x="336" y="564" type="curve" smooth="yes"/>
      <point x="164" y="564"/>
      <point x="40" y="476"/>
    </contour>
    <contour>
      <point x="256" y="276" type="curve" smooth="yes"/>
      <point x="256" y="368"/>
      <point x="280" y="416"/>
      <point x="336" y="416" type="curve" smooth="yes"/>
      <point x="392" y="416"/>
      <point x="416" y="368"/>
      <point x="416" y="276" type="curve" smooth="yes"/>
      <point x="416" y="184"/>
      <point x="392" y="136"/>
      <point x="336" y="136" type="curve" smooth="yes"/>
      <point x="280" y="136"/>
      <point x="256" y="184"/>
    </contour>
    <contour>
      <point x="760" y="-12" type="curve" smooth="yes"/>
      <point x="837" y="-12"/>
      <point x="892" y="-4"/>
      <point x="936" y="12" type="curve"/>
      <point x="936" y="172" type="line"/>
      <point x="924" y="172" type="line"/>
      <point x="896" y="156"/>
      <point x="840" y="144"/>
      <point x="780" y="144" type="curve" smooth="yes"/>
      <point x="688" y="144"/>
      <point x="628" y="168"/>
      <point x="628" y="252" type="curve" smooth="yes"/>
      <point x="628" y="296" type="line" smooth="yes"/>
      <point x="628" y="392"/>
      <point x="651" y="424"/>
      <point x="704" y="424" type="curve" smooth="yes"/>
      <point x="755" y="424"/>
      <point x="776" y="392"/>
      <point x="776" y="340" type="curve" smooth="yes"/>
      <point x="776" y="336" type="line"/>
      <point x="544" y="336" type="line"/>
      <point x="544" y="220" type="line"/>
      <point x="974" y="220" type="line"/>
      <point x="976" y="260" type="line" smooth="yes"/>
      <point x="985" y="432"/>
      <point x="900" y="564"/>
      <point x="708" y="564" type="curve" smooth="yes"/>
      <point x="559" y="564"/>
      <point x="446" y="460"/>
      <point x="446" y="276" type="curve" smooth="yes"/>
      <point x="446" y="56"/>
      <point x="594" y="-12"/>
    </contour>
  </outline>
</glyph>
<glyph name="Schwa" format="2">
  <advance width="755"/>
  <unicode hex="018F"/>
  <anchor x="298" y="0" name="bottom"/>
  <anchor x="540" y="12" name="ogonek"/>
  <anchor x="298" y="548" name="top"/>
  <outline>
    <contour>
      <point x="324" y="732" type="curve" smooth="yes"/>
      <point x="253" y="732"/>
      <point x="170" y="722"/>
      <point x="113" y="701" type="curve"/>
      <point x="113" y="520" type="line"/>
      <point x="129" y="520" type="line"/>
      <point x="168" y="540"/>
      <point x="232" y="556"/>
      <point x="299" y="556" type="curve" smooth="yes"/>
      <point x="405" y="556"/>
      <point x="503" y="525"/>
      <point x="503" y="391" type="curve" smooth="yes"/>
      <point x="503" y="334" type="line" smooth="yes"/>
      <point x="503" y="212"/>
      <point x="461" y="162"/>
      <point x="382" y="162" type="curve" smooth="yes"/>
      <point x="309" y="162"/>
      <point x="272" y="203"/>
      <point x="272" y="277" type="curve" smooth="yes"/>
      <point x="272" y="282" type="line"/>
      <point x="554" y="282" type="line"/>
      <point x="554" y="432" type="line"/>
      <point x="64" y="432" type="line"/>
      <point x="61" y="380" type="line" smooth="yes"/>
      <point x="48" y="158"/>
      <point x="140" y="-12"/>
      <point x="380" y="-12" type="curve" smooth="yes"/>
      <point x="573" y="-12"/>
      <point x="719" y="122"/>
      <point x="719" y="360" type="curve" smooth="yes"/>
      <point x="719" y="644"/>
      <point x="528" y="732"/>
    </contour>
  </outline>
</glyph>
<glyph name="lj" format="2">
  <advance width="692"/>
  <unicode hex="01C9"/>
  <anchor x="174" y="0" name="bottom"/>
  <anchor x="174" y="370" name="center"/>
  <anchor x="412" y="356" name="periodCAT"/>
  <anchor x="174" y="760" name="top"/>
  <anchor x="410" y="548" name="topright"/>
  <outline>
    <contour>
      <point x="68" y="0" type="line"/>
      <point x="280" y="0" type="line"/>
      <point x="280" y="760" type="line"/>
      <point x="60" y="760" type="line"/>
      <point x="56" y="752" type="line"/>
      <point x="65" y="716"/>
      <point x="68" y="636"/>
      <point x="68" y="596" type="curve" smooth="yes"/>
    </contour>
    <component base="jdotless" xOffset="348"/>
    <component base="_part.dot" xOffset="344"/>
  </outline>
</glyph>
<glyph name="Nj" format="2">
  <advance width="1128"/>
  <unicode hex="01CB"/>
  <anchor x="956" y="548" name="_top"/>
  <anchor x="392" y="0" name="bottom"/>
  <anchor x="392" y="720" name="top"/>
  <outline>
    <contour>
      <point x="68" y="0" type="line"/>
      <point x="280" y="0" type="line"/>
      <point x="280" y="402" type="line"/>
      <point x="504" y="179" type="line"/>
      <point x="504" y="0" type="line"/>
      <point x="716" y="0" type="line"/>
      <point x="716" y="720" type="line"/>
      <point x="504" y="720" type="line"/>
      <point x="504" y="455" type="line"/>
      <point x="236" y="720" type="line"/>
      <point x="68" y="720" type="line"/>
    </contour>
    <contour>
      <point x="800" y="-240" type="curve" smooth="yes"/>
      <point x="952" y="-240"/>
      <point x="1064" y="-168"/>
      <point x="1064" y="20" type="curve" smooth="yes"/>
      <point x="1064" y="548" type="line"/>
      <point x="844" y="548" type="line"/>
      <point x="840" y="540" type="line"/>
      <point x="849" y="504"/>
      <point x="852" y="424"/>
      <point x="852" y="384" type="curve" smooth="yes"/>
      <point x="852" y="6" type="line" smooth="yes"/>
      <point x="852" y="-52"/>
      <point x="824" y="-76"/>
      <point x="768" y="-76" type="curve" smooth="yes"/>
      <point x="737" y="-76"/>
      <point x="724" y="-72"/>
      <point x="704" y="-64" type="curve"/>
      <point x="692" y="-64" type="line"/>
      <point x="692" y="-228" type="line"/>
      <point x="720" y="-236"/>
      <point x="756" y="-240"/>
    </contour>
    <contour>
      <point x="956" y="620" type="curve" smooth="yes"/>
      <point x="1020" y="620"/>
      <point x="1064" y="656"/>
      <point x="1064" y="724" type="curve" smooth="yes"/>
      <point x="1064" y="792"/>
      <point x="1020" y="828"/>
      <point x="956" y="828" type="curve" smooth="yes"/>
      <point x="892" y="828"/>
      <point x="848" y="792"/>
      <point x="848" y="724" type="curve" smooth="yes"/>
      <point x="848" y="656"/>
      <point x="892" y="620"/>
    </contour>
  </outline>
</glyph>
<glyph name="jdotless" format="2">
  <advance width="344"/>
  <unicode hex="0237"/>
  <note>
dotlessj
</note>
  <anchor x="172" y="-240" name="bottom"/>
  <anchor x="172" y="548" name="top"/>
  <outline>
    <contour>
      <point x="16" y="-240" type="curve" smooth="yes"/>
      <point x="168" y="-240"/>
      <point x="280" y="-168"/>
      <point x="280" y="20" type="curve" smooth="yes"/>
      <point x="280" y="548" type="line"/>
      <point x="60" y="548" type="line"/>
      <point x="56" y="540" type="line"/>
      <point x="65" y="504"/>
      <point x="68" y="424"/>
      <point x="68" y="384" type="curve" smooth="yes"/>
      <point x="68" y="6" type="line" smooth="yes"/>
      <point x="68" y="-52"/>
      <point x="40" y="-76"/>
      <point x="-16" y="-76" type="curve" smooth="yes"/>
      <point x="-47" y="-76"/>
      <point x="-60" y="-72"/>
      <point x="-80" y="-64" type="curve"/>
      <point x="-92" y="-64" type="line"/>
      <point x="-92" y="-228" type="line"/>
      <point x="-64" y="-236"/>
      <point x="-28" y="-240"/>
    </contour>
  </outline>
</glyph>
<glyph name="apostrophemod" format="2">
  <advance width="692"/>
  <unicode hex="02BC"/>
  <outline>
    <contour>
      <point x="311" y="696" type="curve"/>
      <point x="265" y="614" type="line"/>
      <point x="265" y="608" type="line"/>
      <point x="364" y="608" type="line"/>
      <point x="390" y="657" type="line" smooth="yes"/>
      <point x="401" y="679"/>
      <point x="421" y="717"/>
      <point x="421" y="751" type="curve" smooth="yes"/>
      <point x="421" y="799"/>
      <point x="386" y="828"/>
      <point x="343" y="828" type="curve" smooth="yes"/>
      <point x="300" y="828"/>
      <point x="269" y="799"/>
      <point x="269" y="758" type="curve" smooth="yes"/>
      <point x="269" y="722"/>
      <point x="292" y="706"/>
    </contour>
  </outline>
</glyph>
<glyph name="ringhalfright" format="2">
  <advance width="208"/>
  <unicode hex="02BE"/>
  <note>
uni02BE
</note>
  <outline>
    <contour>
      <point x="24" y="432" type="line"/>
      <point x="108" y="432"/>
      <point x="188" y="462"/>
      <point x="188" y="576" type="curve" smooth="yes"/>
      <point x="188" y="690"/>
      <point x="108" y="720"/>
      <point x="24" y="720" type="curve"/>
      <point x="24" y="640" type="line"/>
      <point x="72" y="640"/>
      <point x="96" y="626"/>
      <point x="96" y="576" type="curve" smooth="yes"/>
      <point x="96" y="526"/>
      <point x="72" y="512"/>
      <point x="24" y="512" type="curve"/>
    </contour>
  </outline>
</glyph>
<glyph name="ringhalfleft" format="2">
  <advance width="208"/>
  <unicode hex="02BF"/>
  <note>
uni02BF
</note>
  <outline>
    <contour>
      <point x="184" y="432" type="curve"/>
      <point x="184" y="512" type="line"/>
      <point x="136" y="512"/>
      <point x="112" y="526"/>
      <point x="112" y="576" type="curve" smooth="yes"/>
      <point x="112" y="626"/>
      <point x="136" y="640"/>
      <point x="184" y="640" type="curve"/>
      <point x="184" y="720" type="line"/>
      <point x="100" y="720"/>
      <point x="20" y="690"/>
      <point x="20" y="576" type="curve" smooth="yes"/>
      <point x="20" y="462"/>
      <point x="100" y="432"/>
    </contour>
  </outline>
</glyph>
<glyph name="verticallinemod" format="2">
  <advance width="240"/>
  <unicode hex="02C8"/>
  <outline>
    <contour>
      <point x="48" y="464" type="line"/>
      <point x="192" y="464" type="line"/>
      <point x="200" y="760" type="line"/>
      <point x="40" y="760" type="line"/>
    </contour>
  </outline>
</glyph>
<glyph name="firsttonechinese" format="2">
  <advance width="672"/>
  <unicode hex="02C9"/>
  <note>
uni02C9
</note>
  <outline>
    <contour>
      <point x="166" y="720" type="line"/>
      <point x="166" y="618" type="line"/>
      <point x="506" y="618" type="line"/>
      <point x="506" y="720" type="line"/>
    </contour>
  </outline>
</glyph>
<glyph name="gravecomb" format="2">
  <unicode hex="0300"/>
  <note>
grave
</note>
  <anchor x="312" y="548" name="_top"/>
  <anchor x="312" y="760" name="top"/>
  <outline>
    <contour>
      <point x="310" y="604" type="line"/>
      <point x="438" y="604" type="line"/>
      <point x="438" y="608" type="line"/>
      <point x="355" y="760" type="line"/>
      <point x="186" y="760" type="line"/>
      <point x="186" y="756" type="line"/>
    </contour>
  </outline>
</glyph>
<glyph name="macroncomb" format="2">
  <unicode hex="0304"/>
  <note>
macron
</note>
  <anchor x="336" y="548" name="_top"/>
  <anchor x="336" y="720" name="top"/>
  <outline>
    <contour>
      <point x="166" y="720" type="line"/>
      <point x="166" y="616" type="line"/>
      <point x="506" y="616" type="line"/>
      <point x="506" y="720" type="line"/>
    </contour>
  </outline>
</glyph>
<glyph name="brevecomb" format="2">
  <unicode hex="0306"/>
  <note>
breve
</note>
  <anchor x="336" y="548" name="_top"/>
  <anchor x="336" y="760" name="top"/>
  <outline>
    <contour>
      <point x="336" y="600" type="curve" smooth="yes"/>
      <point x="450" y="600"/>
      <point x="490" y="676"/>
      <point x="486" y="760" type="curve"/>
      <point x="406" y="760" type="line"/>
      <point x="406" y="712"/>
      <point x="386" y="688"/>
      <point x="336" y="688" type="curve" smooth="yes"/>
      <point x="286" y="688"/>
      <point x="266" y="712"/>
      <point x="266" y="760" type="curve"/>
      <point x="186" y="760" type="line"/>
      <point x="182" y="676"/>
      <point x="222" y="600"/>
    </contour>
  </outline>
</glyph>
<glyph name="dotaccentcomb" format="2">
  <unicode hex="0307"/>
  <note>
dotaccent
</note>
  <anchor x="336" y="548" name="_top"/>
  <anchor x="336" y="760" name="top"/>
  <outline>
    <contour>
      <point x="336" y="608" type="curve" smooth="yes"/>
      <point x="379" y="608"/>
      <point x="412" y="636"/>
      <point x="412" y="684" type="curve" smooth="yes"/>
      <point x="412" y="730"/>
      <point x="379" y="760"/>
      <point x="336" y="760" type="curve" smooth="yes"/>
      <point x="293" y="760"/>
      <point x="260" y="730"/>
      <point x="260" y="684" type="curve" smooth="yes"/>
      <point x="260" y="636"/>
      <point x="293" y="608"/>
    </contour>
  </outline>
</glyph>
<glyph name="dieresiscomb" format="2">
  <unicode hex="0308"/>
  <note>
dieresis
</note>
  <anchor x="336" y="548" name="_top"/>
  <anchor x="336" y="756" name="top"/>
  <outline>
    <contour>
      <point x="434" y="612" type="curve" smooth="yes"/>
      <point x="475" y="612"/>
      <point x="506" y="638"/>
      <point x="506" y="684" type="curve" smooth="yes"/>
      <point x="506" y="728"/>
      <point x="475" y="756"/>
      <point x="434" y="756" type="curve" smooth="yes"/>
      <point x="393" y="756"/>
      <point x="362" y="728"/>
      <point x="362" y="684" type="curve" smooth="yes"/>
      <point x="362" y="638"/>
      <point x="393" y="612"/>
    </contour>
    <contour>
      <point x="238" y="612" type="curve" smooth="yes"/>
      <point x="279" y="612"/>
      <point x="310" y="638"/>
      <point x="310" y="684" type="curve" smooth="yes"/>
      <point x="310" y="728"/>
      <point x="279" y="756"/>
      <point x="238" y="756" type="curve" smooth="yes"/>
      <point x="197" y="756"/>
      <point x="166" y="728"/>
      <point x="166" y="684" type="curve" smooth="yes"/>
      <point x="166" y="638"/>
      <point x="197" y="612"/>
    </contour>
  </outline>
</glyph>
<glyph name="hookabovecomb" format="2">
  <unicode hex="0309"/>
  <anchor x="341" y="548" name="_top"/>
  <anchor x="361" y="834" name="top"/>
  <outline>
    <contour>
      <point x="291" y="642" type="curve"/>
      <point x="360" y="610" type="line"/>
      <point x="383" y="650"/>
      <point x="446" y="685"/>
      <point x="445" y="739" type="curve" smooth="yes"/>
      <point x="444" y="793"/>
      <point x="407" y="834"/>
      <point x="342" y="834" type="curve" smooth="yes"/>
      <point x="298" y="834"/>
      <point x="258" y="809"/>
      <point x="227" y="759" type="curve"/>
      <point x="278" y="721" type="line"/>
      <point x="289" y="737"/>
      <point x="305" y="753"/>
      <point x="326" y="753" type="curve" smooth="yes"/>
      <point x="340" y="753"/>
      <point x="351" y="742"/>
      <point x="351" y="727" type="curve" smooth="yes"/>
      <point x="351" y="692"/>
      <point x="307" y="680"/>
    </contour>
  </outline>
</glyph>
<glyph name="breveinvertedcomb" format="2">
  <unicode hex="0311"/>
  <anchor x="336" y="548" name="_top"/>
  <anchor x="336" y="760" name="top"/>
  <outline>
    <contour>
      <point x="336" y="760" type="curve" smooth="yes"/>
      <point x="222" y="760"/>
      <point x="182" y="684"/>
      <point x="186" y="600" type="curve"/>
      <point x="266" y="600" type="line"/>
      <point x="266" y="648"/>
      <point x="286" y="672"/>
      <point x="336" y="672" type="curve" smooth="yes"/>
      <point x="386" y="672"/>
      <point x="406" y="648"/>
      <point x="406" y="600" type="curve"/>
      <point x="486" y="600" type="line"/>
      <point x="490" y="684"/>
      <point x="450" y="760"/>
    </contour>
  </outline>
</glyph>
<glyph name="commaturnedabovecomb" format="2">
  <unicode hex="0312"/>
  <anchor x="336" y="548" name="_top"/>
  <anchor x="336" y="828" name="top"/>
  <outline>
    <contour>
      <point x="336" y="608" type="curve" smooth="yes"/>
      <point x="379" y="608"/>
      <point x="410" y="637"/>
      <point x="410" y="678" type="curve" smooth="yes"/>
      <point x="410" y="714"/>
      <point x="387" y="730"/>
      <point x="368" y="740" type="curve"/>
      <point x="414" y="822" type="line"/>
      <point x="414" y="828" type="line"/>
      <point x="315" y="828" type="line"/>
      <point x="289" y="779" type="line" smooth="yes"/>
      <point x="278" y="757"/>
      <point x="258" y="719"/>
      <point x="258" y="685" type="curve" smooth="yes"/>
      <point x="258" y="637"/>
      <point x="293" y="608"/>
    </contour>
  </outline>
</glyph>
<glyph name="ogonekcomb" format="2">
  <unicode hex="0328"/>
  <note>
ogonek
</note>
  <anchor x="429" y="0" name="_ogonek"/>
  <outline>
    <contour>
      <point x="242" y="-140" type="curve" smooth="yes"/>
      <point x="242" y="-212"/>
      <point x="290" y="-248"/>
      <point x="362" y="-248" type="curve" smooth="yes"/>
      <point x="386" y="-248"/>
      <point x="412" y="-246"/>
      <point x="430" y="-240" type="curve"/>
      <point x="430" y="-154" type="line"/>
      <point x="426" y="-154" type="line"/>
      <point x="411" y="-159"/>
      <point x="399" y="-160"/>
      <point x="385" y="-160" type="curve" smooth="yes"/>
      <point x="361" y="-160"/>
      <point x="350" y="-144"/>
      <point x="350" y="-124" type="curve" smooth="yes"/>
      <point x="350" y="-84"/>
      <point x="379" y="-55"/>
      <point x="429" y="0" type="curve"/>
      <point x="333" y="8" type="line"/>
      <point x="291" y="-28"/>
      <point x="242" y="-78"/>
    </contour>
  </outline>
</glyph>
<glyph name="slashlongcomb" format="2">
  <unicode hex="0338"/>
  <anchor x="336" y="274" name="_center"/>
  <outline>
    <contour>
      <point x="132" y="-84" type="line"/>
      <point x="216" y="-84" type="line"/>
      <point x="540" y="636" type="line"/>
      <point x="456" y="636" type="line"/>
    </contour>
  </outline>
</glyph>
<glyph name="Omega" format="2">
  <advance width="798"/>
  <unicode hex="03A9"/>
  <unicode hex="03C9"/>
  <note>
uni03A9
</note>
  <outline>
    <contour>
      <point x="20" y="146" type="line"/>
      <point x="20" y="0" type="line"/>
      <point x="360" y="0" type="line"/>
      <point x="360" y="116" type="line"/>
      <point x="261" y="172"/>
      <point x="222" y="258"/>
      <point x="222" y="370" type="curve" smooth="yes"/>
      <point x="222" y="491"/>
      <point x="278" y="577"/>
      <point x="399" y="577" type="curve" smooth="yes"/>
      <point x="519" y="577"/>
      <point x="575" y="491"/>
      <point x="575" y="370" type="curve" smooth="yes"/>
      <point x="575" y="258"/>
      <point x="537" y="172"/>
      <point x="438" y="116" type="curve"/>
      <point x="438" y="0" type="line"/>
      <point x="778" y="0" type="line"/>
      <point x="778" y="146" type="line"/>
      <point x="674" y="146" type="line"/>
      <point x="722" y="202"/>
      <point x="761" y="288"/>
      <point x="761" y="388" type="curve" smooth="yes"/>
      <point x="761" y="603"/>
      <point x="619" y="732"/>
      <point x="399" y="732" type="curve" smooth="yes"/>
      <point x="179" y="732"/>
      <point x="37" y="603"/>
      <point x="37" y="388" type="curve" smooth="yes"/>
      <point x="37" y="288"/>
      <point x="76" y="202"/>
      <point x="123" y="146" type="curve"/>
    </contour>
  </outline>
</glyph>
<glyph name="number-ar" format="2">
  <advance width="1235"/>
  <unicode hex="0600"/>
  <outline>
    <contour>
      <point x="20" y="0" type="line"/>
      <point x="1157" y="0" type="line"/>
      <point x="1221" y="164" type="line"/>
      <point x="1221" y="176" type="line"/>
      <point x="977" y="176" type="line" smooth="yes"/>
      <point x="923" y="176"/>
      <point x="903" y="200"/>
      <point x="903" y="228" type="curve" smooth="yes"/>
      <point x="903" y="279"/>
      <point x="983" y="326"/>
      <point x="1111" y="404" type="curve"/>
      <point x="1063" y="584" type="line"/>
      <point x="1051" y="584" type="line"/>
      <point x="768" y="436"/>
      <point x="715" y="350"/>
      <point x="715" y="260" type="curve" smooth="yes"/>
      <point x="715" y="188"/>
      <point x="760" y="123"/>
      <point x="831" y="104" type="curve"/>
      <point x="847" y="176" type="line"/>
      <point x="20" y="176" type="line"/>
    </contour>
  </outline>
</glyph>
<glyph name="footnotemarker-ar" format="2">
  <advance width="1377"/>
  <unicode hex="0602"/>
  <outline>
    <contour>
      <point x="417" y="127" type="curve"/>
      <point x="417" y="54" type="line"/>
      <point x="624" y="54" type="line"/>
      <point x="624" y="135" type="line"/>
      <point x="624" y="381"/>
      <point x="469" y="529"/>
      <point x="329" y="529" type="curve" smooth="yes"/>
      <point x="175" y="529"/>
      <point x="52" y="391"/>
      <point x="52" y="231" type="curve" smooth="yes"/>
      <point x="52" y="85"/>
      <point x="169" y="-1"/>
      <point x="344" y="-1" type="curve"/>
      <point x="1297" y="0" type="line"/>
      <point x="1297" y="176" type="line"/>
      <point x="350" y="175" type="line" smooth="yes"/>
      <point x="272" y="175"/>
      <point x="246" y="224"/>
      <point x="246" y="259" type="curve" smooth="yes"/>
      <point x="246" y="324"/>
      <point x="291" y="386"/>
      <point x="369" y="402" type="curve"/>
      <point x="275" y="409" type="line"/>
      <point x="371" y="352"/>
      <point x="417" y="251"/>
    </contour>
  </outline>
</glyph>
<glyph name="pagenumber-ar" format="2">
  <advance width="1777"/>
  <unicode hex="0603"/>
  <outline>
    <contour>
      <point x="847" y="176" type="line"/>
      <point x="847" y="0" type="line"/>
      <point x="1439" y="0" type="line" smooth="yes"/>
      <point x="1661" y="0"/>
      <point x="1727" y="113"/>
      <point x="1727" y="234" type="curve" smooth="yes"/>
      <point x="1727" y="327"/>
      <point x="1662" y="424"/>
      <point x="1611" y="476" type="curve"/>
      <point x="1599" y="476" type="line"/>
      <point x="1559" y="468"/>
      <point x="1491" y="464"/>
      <point x="1423" y="464" type="curve" smooth="yes"/>
      <point x="915" y="464" type="line"/>
      <point x="847" y="288" type="line"/>
      <point x="1379" y="288" type="line" smooth="yes"/>
      <point x="1434" y="288"/>
      <point x="1483" y="294"/>
      <point x="1577" y="316" type="curve"/>
      <point x="1494" y="316" type="line"/>
      <point x="1504" y="302"/>
      <point x="1523" y="277"/>
      <point x="1523" y="242" type="curve" smooth="yes"/>
      <point x="1523" y="210"/>
      <point x="1498" y="176"/>
      <point x="1399" y="176" type="curve" smooth="yes"/>
    </contour>
    <contour>
      <point x="20" y="176" type="line"/>
      <point x="20" y="0" type="line"/>
      <point x="970" y="0" type="line"/>
      <point x="990" y="20" type="line"/>
      <point x="990" y="176" type="line"/>
      <point x="780" y="176" type="line"/>
      <point x="866" y="90" type="line"/>
      <point x="866" y="494" type="line"/>
      <point x="854" y="494" type="line"/>
      <point x="654" y="474" type="line"/>
      <point x="654" y="264" type="line" smooth="yes"/>
      <point x="654" y="203"/>
      <point x="659" y="161"/>
      <point x="679" y="147" type="curve"/>
      <point x="748" y="176" type="line"/>
    </contour>
  </outline>
</glyph>
<glyph name="verseComma-ar" format="2">
  <advance width="1723"/>
  <unicode hex="060E"/>
  <outline>
    <contour>
      <point x="350" y="175" type="line" smooth="yes"/>
      <point x="272" y="175"/>
      <point x="246" y="224"/>
      <point x="246" y="259" type="curve" smooth="yes"/>
      <point x="246" y="324"/>
      <point x="291" y="386"/>
      <point x="369" y="402" type="curve"/>
      <point x="275" y="409" type="line"/>
      <point x="371" y="352"/>
      <point x="417" y="251"/>
      <point x="417" y="127" type="curve"/>
      <point x="417" y="54" type="line"/>
      <point x="624" y="54" type="line"/>
      <point x="624" y="135" type="line"/>
      <point x="624" y="381"/>
      <point x="469" y="529"/>
      <point x="329" y="529" type="curve" smooth="yes"/>
      <point x="175" y="529"/>
      <point x="52" y="391"/>
      <point x="52" y="231" type="curve" smooth="yes"/>
      <point x="52" y="85"/>
      <point x="169" y="-1"/>
      <point x="344" y="-1" type="curve" smooth="yes"/>
      <point x="1249" y="0" type="line" smooth="yes"/>
      <point x="1407" y="0"/>
      <point x="1475" y="-19"/>
      <point x="1553" y="-91" type="curve"/>
      <point x="1659" y="46" type="line"/>
      <point x="1543" y="156"/>
      <point x="1437" y="176"/>
      <point x="1297" y="176" type="curve" smooth="yes"/>
    </contour>
  </outline>
</glyph>
<glyph name="alef-ar" format="2">
  <advance width="356"/>
  <unicode hex="0627"/>
  <note>
uni0627
</note>
  <anchor x="284" y="0" name="*entry"/>
  <anchor x="176" y="0" name="bottom"/>
  <anchor x="176" y="798" name="top"/>
  <outline>
    <contour>
      <point x="72" y="740" type="line"/>
      <point x="72" y="0" type="line"/>
      <point x="284" y="0" type="line"/>
      <point x="284" y="604" type="line" smooth="yes"/>
      <point x="284" y="644"/>
      <point x="284" y="716"/>
      <point x="292" y="752" type="curve"/>
      <point x="288" y="760" type="line"/>
    </contour>
  </outline>
</glyph>
<glyph name="seen-ar" format="2">
  <advance width="1200"/>
  <unicode hex="0633"/>
  <note>
uni0633
</note>
  <anchor x="198" y="-260" name="bottom"/>
  <anchor x="722" y="-195" name="center"/>
  <anchor x="714" y="549" name="top"/>
  <outline>
    <contour>
      <point x="496" y="0" type="line"/>
      <point x="540" y="0" type="line" smooth="yes"/>
      <point x="680" y="0"/>
      <point x="730" y="-14"/>
      <point x="808" y="-52" type="curve"/>
      <point x="1008" y="-3"/>
      <point x="1136" y="104"/>
      <point x="1136" y="296" type="curve" smooth="yes"/>
      <point x="1136" y="544" type="line"/>
      <point x="1124" y="544" type="line"/>
      <point x="924" y="524" type="line"/>
      <point x="924" y="109" type="line"/>
      <point x="943" y="228" type="line"/>
      <point x="925" y="179"/>
      <point x="862" y="126"/>
      <point x="746" y="120" type="curve"/>
      <point x="824" y="47" type="line"/>
      <point x="824" y="512" type="line"/>
      <point x="812" y="512" type="line"/>
      <point x="612" y="492" type="line"/>
      <point x="612" y="82" type="line"/>
      <point x="666" y="155" type="line"/>
      <point x="623" y="168"/>
      <point x="577" y="176"/>
      <point x="528" y="176" type="curve" smooth="yes"/>
      <point x="426" y="176" type="line"/>
    </contour>
    <contour>
      <point x="40" y="12" type="curve"/>
      <point x="28" y="12" type="line"/>
      <point x="-40" y="-160" type="line"/>
      <point x="-40" y="-160"/>
      <point x="48" y="-260"/>
      <point x="198" y="-260" type="curve" smooth="yes"/>
      <point x="373" y="-260"/>
      <point x="516" y="-140"/>
      <point x="516" y="168" type="curve" smooth="yes"/>
      <point x="516" y="243"/>
      <point x="512" y="315"/>
      <point x="496" y="480" type="curve"/>
      <point x="484" y="480" type="line"/>
      <point x="280" y="460" type="line"/>
      <point x="293" y="384"/>
      <point x="304" y="244"/>
      <point x="304" y="140" type="curve" smooth="yes"/>
      <point x="304" y="46"/>
      <point x="286" y="-67"/>
      <point x="257" y="-106" type="curve"/>
      <point x="302" y="-66" type="line"/>
      <point x="295" y="-58"/>
      <point x="272" y="-80"/>
      <point x="232" y="-80" type="curve" smooth="yes"/>
      <point x="175" y="-80"/>
      <point x="93" y="-53"/>
    </contour>
  </outline>
</glyph>
<glyph name="kaf-ar" format="2">
  <advance width="1099"/>
  <unicode hex="0643"/>
  <note>
uni0643
</note>
  <anchor x="976" y="0" name="*entry"/>
  <anchor x="548" y="0" name="bottom"/>
  <anchor x="548" y="707" name="top"/>
  <outline>
    <contour>
      <point x="1027" y="1" type="line"/>
      <point x="1027" y="598" type="line" smooth="yes"/>
      <point x="1027" y="638"/>
      <point x="1027" y="710"/>
      <point x="1035" y="746" type="curve"/>
      <point x="1031" y="754" type="line"/>
      <point x="823" y="734" type="line"/>
      <point x="823" y="132" type="line"/>
      <point x="892" y="176" type="line"/>
      <point x="548" y="176" type="line" smooth="yes"/>
      <point x="462" y="176"/>
      <point x="304" y="176"/>
      <point x="200" y="208" type="curve" smooth="yes"/>
      <point x="177" y="215"/>
      <point x="122" y="233"/>
      <point x="100" y="244" type="curve"/>
      <point x="88" y="244" type="line"/>
      <point x="44" y="76" type="line"/>
      <point x="70" y="64"/>
      <point x="133" y="45"/>
      <point x="172" y="36" type="curve" smooth="yes"/>
      <point x="317" y="3"/>
      <point x="428" y="0"/>
      <point x="548" y="0" type="curve" smooth="yes"/>
    </contour>
    <contour>
      <point x="626" y="513" type="curve" smooth="yes"/>
      <point x="590" y="527" type="line" smooth="yes"/>
      <point x="563" y="536"/>
      <point x="539" y="546"/>
      <point x="520" y="561" type="curve"/>
      <point x="526" y="534" type="line"/>
      <point x="540" y="546"/>
      <point x="558" y="552"/>
      <point x="594" y="564" type="curve" smooth="yes"/>
      <point x="662" y="587" type="line"/>
      <point x="670" y="690" type="line"/>
      <point x="664" y="700" type="line"/>
      <point x="568" y="667" type="line" smooth="yes"/>
      <point x="473" y="634"/>
      <point x="430" y="596"/>
      <point x="430" y="541" type="curve" smooth="yes"/>
      <point x="430" y="500"/>
      <point x="448" y="475"/>
      <point x="488" y="455" type="curve" smooth="yes"/>
      <point x="541" y="429" type="line" smooth="yes"/>
      <point x="552" y="424"/>
      <point x="560" y="420"/>
      <point x="560" y="414" type="curve" smooth="yes"/>
      <point x="560" y="408"/>
      <point x="554" y="406"/>
      <point x="540" y="406" type="curve" smooth="yes"/>
      <point x="408" y="406" type="line"/>
      <point x="377" y="306" type="line"/>
      <point x="377" y="294" type="line"/>
      <point x="517" y="294" type="line" smooth="yes"/>
      <point x="631" y="294"/>
      <point x="702" y="341"/>
      <point x="702" y="417" type="curve" smooth="yes"/>
      <point x="702" y="462"/>
      <point x="681" y="492"/>
    </contour>
  </outline>
</glyph>
<glyph name="lam-ar" format="2">
  <advance width="576"/>
  <unicode hex="0644"/>
  <note>
uni0644
</note>
  <anchor x="514" y="0" name="*entry"/>
  <anchor x="405" y="424" name="bar"/>
  <anchor x="164" y="-260" name="bottom"/>
  <anchor x="62" y="310" name="top"/>
  <outline>
    <contour>
      <point x="40" y="12" type="curve"/>
      <point x="28" y="12" type="line"/>
      <point x="-40" y="-160" type="line"/>
      <point x="-40" y="-160"/>
      <point x="24" y="-260"/>
      <point x="164" y="-260" type="curve" smooth="yes"/>
      <point x="369" y="-260"/>
      <point x="512" y="-129"/>
      <point x="512" y="148" type="curve" smooth="yes"/>
      <point x="512" y="760" type="line"/>
      <point x="500" y="760" type="line"/>
      <point x="300" y="740" type="line"/>
      <point x="300" y="140" type="line" smooth="yes"/>
      <point x="300" y="46"/>
      <point x="282" y="-67"/>
      <point x="253" y="-106" type="curve"/>
      <point x="285" y="-66" type="line"/>
      <point x="273" y="-72"/>
      <point x="259" y="-80"/>
      <point x="228" y="-80" type="curve" smooth="yes"/>
      <point x="171" y="-80"/>
      <point x="94" y="-54"/>
    </contour>
  </outline>
</glyph>
<glyph name="waw-ar" format="2">
  <advance width="676"/>
  <unicode hex="0648"/>
  <note>
uni0648
</note>
  <anchor x="643" y="-42" name="bar"/>
  <anchor x="284" y="-261" name="bottom"/>
  <anchor x="-8" y="0" name="center"/>
  <anchor x="469" y="529" name="high"/>
  <anchor x="284" y="-261" name="ring"/>
  <anchor x="329" y="529" name="top"/>
  <outline>
    <contour>
      <point x="284" y="-261" type="curve" smooth="yes"/>
      <point x="489" y="-261"/>
      <point x="624" y="-126"/>
      <point x="624" y="135" type="curve" smooth="yes"/>
      <point x="624" y="381"/>
      <point x="469" y="529"/>
      <point x="329" y="529" type="curve" smooth="yes"/>
      <point x="175" y="529"/>
      <point x="52" y="391"/>
      <point x="52" y="231" type="curve" smooth="yes"/>
      <point x="52" y="85"/>
      <point x="169" y="-1"/>
      <point x="344" y="-1" type="curve" smooth="yes"/>
      <point x="373" y="-1"/>
      <point x="402" y="2"/>
      <point x="431" y="9" type="curve"/>
      <point x="422" y="181" type="line"/>
      <point x="398" y="174"/>
      <point x="374" y="171"/>
      <point x="350" y="171" type="curve" smooth="yes"/>
      <point x="272" y="171"/>
      <point x="246" y="224"/>
      <point x="246" y="259" type="curve" smooth="yes"/>
      <point x="246" y="324"/>
      <point x="291" y="386"/>
      <point x="369" y="402" type="curve"/>
      <point x="275" y="409" type="line"/>
      <point x="371" y="352"/>
      <point x="417" y="251"/>
      <point x="417" y="127" type="curve" smooth="yes"/>
      <point x="417" y="-25"/>
      <point x="397" y="-69"/>
      <point x="379" y="-93" type="curve"/>
      <point x="430" y="-44" type="line"/>
      <point x="394" y="-77"/>
      <point x="353" y="-85"/>
      <point x="296" y="-85" type="curve" smooth="yes"/>
      <point x="257" y="-85"/>
      <point x="186" y="-76"/>
      <point x="128" y="-49" type="curve"/>
      <point x="116" y="-49" type="line"/>
      <point x="56" y="-213" type="line"/>
      <point x="56" y="-213"/>
      <point x="144" y="-261"/>
    </contour>
  </outline>
</glyph>
<glyph name="damma-ar" format="2">
  <unicode hex="064F"/>
  <note>
uni064F
</note>
  <anchor x="204" y="507" name="_top"/>
  <anchor x="204" y="878" name="top"/>
  <outline>
    <contour>
      <point x="199" y="632" type="line"/>
      <point x="157" y="665"/>
      <point x="148" y="702"/>
      <point x="148" y="729" type="curve" smooth="yes"/>
      <point x="148" y="796"/>
      <point x="206" y="848"/>
      <point x="271" y="848" type="curve" smooth="yes"/>
      <point x="341" y="848"/>
      <point x="376" y="798"/>
      <point x="376" y="744" type="curve" smooth="yes"/>
      <point x="376" y="665"/>
      <point x="306" y="605"/>
      <point x="204" y="605" type="curve" smooth="yes"/>
      <point x="141" y="605"/>
      <point x="79" y="624"/>
      <point x="18" y="678" type="curve"/>
      <point x="60" y="729" type="line"/>
      <point x="72" y="730" type="line"/>
      <point x="115" y="701"/>
      <point x="143" y="683"/>
      <point x="191" y="683" type="curve" smooth="yes"/>
      <point x="238" y="683"/>
      <point x="290" y="699"/>
      <point x="290" y="740" type="curve" smooth="yes"/>
      <point x="290" y="760"/>
      <point x="277" y="777"/>
      <point x="259" y="779" type="curve"/>
      <point x="274" y="781" type="line"/>
      <point x="249" y="770"/>
      <point x="236" y="747"/>
      <point x="235" y="725" type="curve"/>
      <point x="235" y="709"/>
      <point x="239" y="692"/>
      <point x="246" y="678" type="curve"/>
    </contour>
  </outline>
</glyph>
<glyph name="kasra-ar" format="2">
  <unicode hex="0650"/>
  <note>
uni0650
</note>
  <anchor x="210" y="25" name="_bottom"/>
  <anchor x="210" y="-209" name="bottom"/>
  <outline>
    <contour>
      <point x="63" y="-215" type="line"/>
      <point x="75" y="-215" type="line"/>
      <point x="330" y="-132" type="line"/>
      <point x="330" y="-61" type="line"/>
      <point x="318" y="-61" type="line"/>
      <point x="63" y="-144" type="line"/>
    </contour>
  </outline>
</glyph>
<glyph name="noonghunnaabove-ar" format="2">
  <unicode hex="0658"/>
  <note>
uni0658
</note>
  <outline>
    <contour>
      <point x="104" y="585" type="curve"/>
      <point x="98" y="585" type="line"/>
      <point x="62" y="506" type="line"/>
      <point x="62" y="506"/>
      <point x="101" y="460"/>
      <point x="168" y="460" type="curve" smooth="yes"/>
      <point x="260" y="460"/>
      <point x="335" y="509"/>
      <point x="335" y="636" type="curve" smooth="yes"/>
      <point x="335" y="662"/>
      <point x="332" y="698"/>
      <point x="322" y="746" type="curve"/>
      <point x="316" y="746" type="line"/>
      <point x="209" y="737" type="line"/>
      <point x="216" y="710"/>
      <point x="223" y="660"/>
      <point x="223" y="623" type="curve" smooth="yes"/>
      <point x="223" y="588"/>
      <point x="214" y="545"/>
      <point x="199" y="530" type="curve"/>
      <point x="222" y="549" type="line"/>
      <point x="219" y="552"/>
      <point x="207" y="542"/>
      <point x="185" y="542" type="curve" smooth="yes"/>
      <point x="161" y="542"/>
      <point x="127" y="555"/>
    </contour>
  </outline>
</glyph>
<glyph name="zero-ar" format="2">
  <advance width="364"/>
  <unicode hex="0660"/>
  <note>
uni0660
</note>
  <outline>
    <contour>
      <point x="182" y="234" type="curve" smooth="yes"/>
      <point x="245" y="234"/>
      <point x="296" y="274"/>
      <point x="296" y="348" type="curve" smooth="yes"/>
      <point x="296" y="422"/>
      <point x="245" y="462"/>
      <point x="182" y="462" type="curve" smooth="yes"/>
      <point x="119" y="462"/>
      <point x="68" y="422"/>
      <point x="68" y="348" type="curve" smooth="yes"/>
      <point x="68" y="274"/>
      <point x="119" y="234"/>
    </contour>
  </outline>
</glyph>
<glyph name="one-ar" format="2">
  <advance width="372"/>
  <unicode hex="0661"/>
  <note>
uni0661
</note>
  <outline>
    <contour>
      <point x="80" y="740" type="line"/>
      <point x="80" y="0" type="line"/>
      <point x="292" y="0" type="line"/>
      <point x="292" y="606" type="line" smooth="yes"/>
      <point x="292" y="646"/>
      <point x="292" y="716"/>
      <point x="300" y="752" type="curve"/>
      <point x="298" y="760" type="line"/>
    </contour>
  </outline>
</glyph>
<glyph name="five-ar" format="2">
  <advance width="670"/>
  <unicode hex="0665"/>
  <note>
uni0665
</note>
  <outline>
    <contour>
      <point x="40" y="361" type="curve" smooth="yes"/>
      <point x="40" y="162"/>
      <point x="175" y="50"/>
      <point x="331" y="50" type="curve" smooth="yes"/>
      <point x="479" y="50"/>
      <point x="630" y="160"/>
      <point x="630" y="370" type="curve" smooth="yes"/>
      <point x="630" y="516"/>
      <point x="545" y="747"/>
      <point x="348" y="747" type="curve" smooth="yes"/>
      <point x="150" y="747"/>
      <point x="40" y="520"/>
    </contour>
    <contour>
      <point x="224" y="381" type="curve" smooth="yes"/>
      <point x="224" y="479"/>
      <point x="291" y="548"/>
      <point x="343" y="548" type="curve" smooth="yes"/>
      <point x="436" y="548"/>
      <point x="466" y="394"/>
      <point x="466" y="267" type="curve"/>
      <point x="489" y="341" type="line"/>
      <point x="462" y="295"/>
      <point x="413" y="249"/>
      <point x="344" y="249" type="curve" smooth="yes"/>
      <point x="270" y="249"/>
      <point x="224" y="305"/>
    </contour>
  </outline>
</glyph>
<glyph name="six-ar" format="2">
  <advance width="576"/>
  <unicode hex="0666"/>
  <note>
uni0666
</note>
  <outline>
    <contour>
      <point x="284" y="0" type="line"/>
      <point x="496" y="0" type="line"/>
      <point x="496" y="606" type="line" smooth="yes"/>
      <point x="496" y="646"/>
      <point x="496" y="716"/>
      <point x="504" y="752" type="curve"/>
      <point x="494" y="759" type="line"/>
      <point x="432" y="743"/>
      <point x="334" y="736"/>
      <point x="240" y="736" type="curve" smooth="yes"/>
      <point x="184" y="736"/>
      <point x="91" y="747"/>
      <point x="46" y="774" type="curve"/>
      <point x="33" y="774" type="line"/>
      <point x="-10" y="598" type="line"/>
      <point x="42" y="560"/>
      <point x="116" y="550"/>
      <point x="167" y="550" type="curve" smooth="yes"/>
      <point x="237" y="550"/>
      <point x="298" y="570"/>
      <point x="311" y="587" type="curve"/>
      <point x="284" y="656" type="line"/>
    </contour>
  </outline>
</glyph>
<glyph name="thousandseparator-ar" format="2">
  <advance width="324"/>
  <unicode hex="066C"/>
  <note>
uni066C
</note>
  <outline>
    <contour>
      <point x="77" y="468" type="line"/>
      <point x="168" y="448" type="line"/>
      <point x="168" y="448"/>
      <point x="254" y="504"/>
      <point x="254" y="617" type="curve" smooth="yes"/>
      <point x="254" y="685"/>
      <point x="202" y="740"/>
      <point x="141" y="740" type="curve" smooth="yes"/>
      <point x="79" y="740"/>
      <point x="39" y="697"/>
      <point x="39" y="643" type="curve" smooth="yes"/>
      <point x="39" y="590"/>
      <point x="76" y="564"/>
      <point x="122" y="560" type="curve"/>
      <point x="111" y="510"/>
      <point x="77" y="481"/>
      <point x="77" y="481" type="curve"/>
    </contour>
  </outline>
</glyph>
<glyph name="alefabove-ar" format="2">
  <unicode hex="0670"/>
  <note>
uni0670
</note>
  <anchor x="198" y="557" name="_top"/>
  <anchor x="197" y="801" name="top"/>
  <outline>
    <contour>
      <point x="146" y="798" type="line"/>
      <point x="146" y="606" type="line"/>
      <point x="242" y="606" type="line"/>
      <point x="242" y="630" type="line" smooth="yes"/>
      <point x="242" y="670"/>
      <point x="242" y="760"/>
      <point x="250" y="796" type="curve"/>
      <point x="248" y="804" type="line"/>
    </contour>
  </outline>
</glyph>
<glyph name="keheh-ar" format="2">
  <advance width="1414"/>
  <unicode hex="06A9"/>
  <note>
uni06A9
</note>
  <anchor x="976" y="0" name="*entry"/>
  <anchor x="736" y="0" name="bottom"/>
  <anchor x="292" y="420" name="kafbar"/>
  <anchor x="804" y="664" name="ring"/>
  <anchor x="227" y="687" name="top"/>
  <outline>
    <contour>
      <point x="503" y="409" type="line"/>
      <point x="804" y="664" type="line"/>
      <point x="724" y="788" type="line"/>
      <point x="712" y="788" type="line"/>
      <point x="292" y="420" type="line"/>
      <point x="303" y="323"/>
      <point x="359" y="288"/>
      <point x="436" y="288" type="curve" smooth="yes"/>
      <point x="1016" y="288" type="line" smooth="yes"/>
      <point x="1071" y="288"/>
      <point x="1120" y="294"/>
      <point x="1214" y="316" type="curve"/>
      <point x="1131" y="316" type="line"/>
      <point x="1141" y="302"/>
      <point x="1160" y="267"/>
      <point x="1160" y="232" type="curve" smooth="yes"/>
      <point x="1160" y="196"/>
      <point x="1135" y="176"/>
      <point x="1036" y="176" type="curve" smooth="yes"/>
      <point x="548" y="176" type="line" smooth="yes"/>
      <point x="462" y="176"/>
      <point x="305" y="178"/>
      <point x="200" y="208" type="curve" smooth="yes"/>
      <point x="177" y="215"/>
      <point x="122" y="233"/>
      <point x="100" y="244" type="curve"/>
      <point x="88" y="244" type="line"/>
      <point x="44" y="76" type="line"/>
      <point x="70" y="64"/>
      <point x="133" y="45"/>
      <point x="172" y="36" type="curve" smooth="yes"/>
      <point x="317" y="2"/>
      <point x="428" y="0"/>
      <point x="548" y="0" type="curve" smooth="yes"/>
      <point x="1046" y="0" type="line" smooth="yes"/>
      <point x="1298" y="0"/>
      <point x="1364" y="108"/>
      <point x="1364" y="224" type="curve" smooth="yes"/>
      <point x="1364" y="331"/>
      <point x="1297" y="430"/>
      <point x="1248" y="476" type="curve"/>
      <point x="1236" y="476" type="line"/>
      <point x="1196" y="468"/>
      <point x="1128" y="464"/>
      <point x="1060" y="464" type="curve" smooth="yes"/>
      <point x="474" y="464" type="line"/>
    </contour>
  </outline>
</glyph>
<glyph name="fullstop-ar" format="2">
  <advance width="548"/>
  <unicode hex="06D4"/>
  <note>
uni06D4
</note>
  <outline>
    <contour>
      <point x="568" y="176" type="line"/>
      <point x="540" y="176" type="line" smooth="yes"/>
      <point x="453" y="176"/>
      <point x="302" y="179"/>
      <point x="200" y="208" type="curve" smooth="yes"/>
      <point x="177" y="215"/>
      <point x="122" y="233"/>
      <point x="100" y="244" type="curve"/>
      <point x="88" y="244" type="line"/>
      <point x="44" y="76" type="line"/>
      <point x="70" y="64"/>
      <point x="133" y="45"/>
      <point x="172" y="36" type="curve" smooth="yes"/>
      <point x="314" y="3"/>
      <point x="423" y="0"/>
      <point x="540" y="0" type="curve" smooth="yes"/>
      <point x="548" y="0" type="line"/>
      <point x="568" y="20" type="line"/>
    </contour>
  </outline>
</glyph>
<glyph name="zero-persian" format="2">
  <advance width="364"/>
  <unicode hex="06F0"/>
  <note>
uni06F0
</note>
  <outline>
    <contour>
      <point x="182" y="234" type="curve" smooth="yes"/>
      <point x="245" y="234"/>
      <point x="296" y="274"/>
      <point x="296" y="348" type="curve" smooth="yes"/>
      <point x="296" y="422"/>
      <point x="245" y="462"/>
      <point x="182" y="462" type="curve" smooth="yes"/>
      <point x="119" y="462"/>
      <point x="68" y="422"/>
      <point x="68" y="348" type="curve" smooth="yes"/>
      <point x="68" y="274"/>
      <point x="119" y="234"/>
    </contour>
  </outline>
</glyph>
<glyph name="five-persian" format="2">
  <advance width="732"/>
  <unicode hex="06F5"/>
  <note>
uni06F5
</note>
  <outline>
    <contour>
      <point x="692" y="273" type="curve" smooth="yes"/>
      <point x="692" y="433"/>
      <point x="568" y="614"/>
      <point x="394" y="730" type="curve"/>
      <point x="379" y="730" type="line"/>
      <point x="215" y="639"/>
      <point x="40" y="471"/>
      <point x="40" y="243" type="curve" smooth="yes"/>
      <point x="40" y="73"/>
      <point x="132" y="-12"/>
      <point x="227" y="-12" type="curve" smooth="yes"/>
      <point x="285" y="-12"/>
      <point x="345" y="15"/>
      <point x="383" y="115" type="curve"/>
      <point x="323" y="115" type="line"/>
      <point x="350" y="55"/>
      <point x="399" y="-12"/>
      <point x="474" y="-12" type="curve" smooth="yes"/>
      <point x="609" y="-12"/>
      <point x="692" y="121"/>
    </contour>
    <contour>
      <point x="547" y="210" type="line"/>
      <point x="528" y="178"/>
      <point x="498" y="163"/>
      <point x="474" y="163" type="curve" smooth="yes"/>
      <point x="456" y="163"/>
      <point x="433" y="171"/>
      <point x="406" y="190" type="curve"/>
      <point x="445" y="104" type="line"/>
      <point x="428" y="171"/>
      <point x="425" y="205"/>
      <point x="424" y="245" type="curve" smooth="yes"/>
      <point x="423" y="273" type="line"/>
      <point x="412" y="273" type="line"/>
      <point x="312" y="249" type="line"/>
      <point x="311" y="221" type="line" smooth="yes"/>
      <point x="309" y="166"/>
      <point x="291" y="133"/>
      <point x="259" y="81" type="curve"/>
      <point x="336" y="169" type="line"/>
      <point x="328" y="167"/>
      <point x="320" y="166"/>
      <point x="313" y="166" type="curve" smooth="yes"/>
      <point x="241" y="163"/>
      <point x="220" y="235"/>
      <point x="220" y="289" type="curve" smooth="yes"/>
      <point x="220" y="373"/>
      <point x="280" y="499"/>
      <point x="414" y="582" type="curve"/>
      <point x="309" y="552" type="line"/>
      <point x="391" y="500"/>
      <point x="524" y="354"/>
      <point x="524" y="164" type="curve"/>
    </contour>
  </outline>
</glyph>
<glyph name="rehLoop-ar" format="2">
  <advance width="821"/>
  <unicode hex="08AA"/>
  <anchor x="628" y="0" name="*entry"/>
  <anchor x="447" y="52" name="bar"/>
  <anchor x="296" y="-256" name="bottom"/>
  <anchor x="296" y="-256" name="ring"/>
  <anchor x="472" y="553" name="top"/>
  <outline>
    <contour>
      <point x="598" y="-256" type="curve"/>
      <point x="610" y="-256" type="line"/>
      <point x="757" y="-167" type="line"/>
      <point x="598" y="102"/>
      <point x="468" y="224"/>
      <point x="287" y="224" type="curve" smooth="yes"/>
      <point x="144" y="224"/>
      <point x="30" y="110"/>
      <point x="30" y="-25" type="curve" smooth="yes"/>
      <point x="30" y="-170"/>
      <point x="138" y="-256"/>
      <point x="296" y="-256" type="curve" smooth="yes"/>
      <point x="447" y="-256"/>
      <point x="620" y="-151"/>
      <point x="620" y="168" type="curve" smooth="yes"/>
      <point x="620" y="276"/>
      <point x="609" y="400"/>
      <point x="596" y="494" type="curve"/>
      <point x="584" y="494" type="line"/>
      <point x="380" y="474" type="line"/>
      <point x="393" y="379"/>
      <point x="408" y="270"/>
      <point x="408" y="152" type="curve" smooth="yes"/>
      <point x="408" y="34"/>
      <point x="395" y="-60"/>
      <point x="362" y="-103" type="curve"/>
      <point x="408" y="-55" type="line"/>
      <point x="399" y="-65"/>
      <point x="360" y="-84"/>
      <point x="308" y="-84" type="curve" smooth="yes"/>
      <point x="245" y="-84"/>
      <point x="224" y="-38"/>
      <point x="224" y="-3" type="curve" smooth="yes"/>
      <point x="224" y="46"/>
      <point x="259" y="87"/>
      <point x="317" y="101" type="curve"/>
      <point x="233" y="104" type="line"/>
      <point x="360" y="54"/>
      <point x="437" y="9"/>
    </contour>
  </outline>
</glyph>
<glyph name="Germandbls" format="2">
  <advance width="760"/>
  <unicode hex="1E9E"/>
  <note>
P
</note>
  <outline>
    <contour>
      <point x="452" y="-12" type="curve" smooth="yes"/>
      <point x="594" y="-12"/>
      <point x="720" y="60"/>
      <point x="720" y="204" type="curve" smooth="yes"/>
      <point x="720" y="320"/>
      <point x="636" y="404"/>
      <point x="480" y="400" type="curve"/>
      <point x="522" y="339" type="line"/>
      <point x="643" y="560" type="line" smooth="yes"/>
      <point x="661" y="592"/>
      <point x="676" y="620"/>
      <point x="676" y="656" type="curve" smooth="yes"/>
      <point x="676" y="680"/>
      <point x="671" y="697"/>
      <point x="664" y="711" type="curve"/>
      <point x="652" y="720" type="line"/>
      <point x="186" y="720" type="line"/>
      <point x="186" y="556" type="line"/>
      <point x="505" y="556" type="line"/>
      <point x="489" y="628" type="line"/>
      <point x="344" y="344" type="line"/>
      <point x="376" y="272" type="line"/>
      <point x="436" y="272" type="line" smooth="yes"/>
      <point x="492" y="272"/>
      <point x="516" y="248"/>
      <point x="516" y="208" type="curve" smooth="yes"/>
      <point x="516" y="156"/>
      <point x="468" y="140"/>
      <point x="408" y="140" type="curve" smooth="yes"/>
      <point x="389" y="140"/>
      <point x="371" y="142"/>
      <point x="352" y="148" type="curve"/>
      <point x="340" y="148" type="line"/>
      <point x="340" y="0" type="line"/>
      <point x="368" y="-7"/>
      <point x="393" y="-12"/>
    </contour>
    <contour>
      <point x="68" y="0" type="line"/>
      <point x="280" y="0" type="line"/>
      <point x="280" y="720" type="line"/>
      <point x="68" y="720" type="line"/>
    </contour>
  </outline>
</glyph>
<glyph name="quoteright" format="2">
  <advance width="300"/>
  <unicode hex="2019"/>
  <note>
quoteright
</note>
  <outline>
    <contour>
      <point x="101" y="526" type="curve"/>
      <point x="8" y="367" type="line"/>
      <point x="8" y="360" type="line"/>
      <point x="161" y="360" type="line"/>
      <point x="215" y="470" type="line" smooth="yes"/>
      <point x="232" y="504"/>
      <point x="264" y="559"/>
      <point x="264" y="610" type="curve" smooth="yes"/>
      <point x="264" y="684"/>
      <point x="216" y="728"/>
      <point x="150" y="728" type="curve" smooth="yes"/>
      <point x="84" y="728"/>
      <point x="40" y="681"/>
      <point x="40" y="618" type="curve" smooth="yes"/>
      <point x="40" y="563"/>
      <point x="72" y="540"/>
    </contour>
  </outline>
</glyph>
<glyph name="guilsinglleft" format="2">
  <advance width="364"/>
  <unicode hex="2039"/>
  <note>
guilsinglleft
</note>
  <outline>
    <contour>
      <point x="300" y="36" type="line"/>
      <point x="308" y="36" type="line"/>
      <point x="308" y="224" type="line"/>
      <point x="192" y="308" type="line"/>
      <point x="308" y="392" type="line"/>
      <point x="308" y="580" type="line"/>
      <point x="300" y="580" type="line"/>
      <point x="36" y="360" type="line"/>
      <point x="36" y="256" type="line"/>
    </contour>
  </outline>
</glyph>
<glyph name="guilsinglright" format="2">
  <advance width="364"/>
  <unicode hex="203A"/>
  <note>
guilsinglright
</note>
  <outline>
    <contour>
      <point x="56" y="224" type="line"/>
      <point x="56" y="36" type="line"/>
      <point x="64" y="36" type="line"/>
      <point x="328" y="256" type="line"/>
      <point x="328" y="360" type="line"/>
      <point x="64" y="580" type="line"/>
      <point x="56" y="580" type="line"/>
      <point x="56" y="392" type="line"/>
      <point x="172" y="308" type="line"/>
    </contour>
  </outline>
</glyph>
<glyph name="oneinferior" format="2">
  <advance width="397"/>
  <unicode hex="2081"/>
  <note>
uni2081
</note>
  <outline>
    <contour>
      <point x="30" y="-40" type="line"/>
      <point x="30" y="-160" type="line"/>
      <point x="372" y="-160" type="line"/>
      <point x="372" y="-40" type="line"/>
      <point x="281" y="-40" type="line"/>
      <point x="281" y="142" type="line" smooth="yes"/>
      <point x="281" y="165"/>
      <point x="284" y="211"/>
      <point x="287" y="232" type="curve"/>
      <point x="284" y="237" type="line"/>
      <point x="271" y="239"/>
      <point x="239" y="247"/>
      <point x="185" y="247" type="curve" smooth="yes"/>
      <point x="106" y="247"/>
      <point x="68" y="240"/>
      <point x="45" y="237" type="curve"/>
      <point x="45" y="127" type="line"/>
      <point x="128" y="127" type="line"/>
      <point x="125" y="118"/>
      <point x="125" y="93"/>
      <point x="125" y="79" type="curve" smooth="yes"/>
      <point x="125" y="-40" type="line"/>
    </contour>
  </outline>
</glyph>
<glyph name="fourinferior" format="2">
  <advance width="397"/>
  <unicode hex="2084"/>
  <note>
uni2084
</note>
  <outline>
    <contour>
      <point x="201" y="-160" type="line"/>
      <point x="352" y="-160" type="line"/>
      <point x="352" y="-89" type="line"/>
      <point x="381" y="-89" type="line"/>
      <point x="381" y="24" type="line"/>
      <point x="352" y="24" type="line"/>
      <point x="352" y="142" type="line" smooth="yes"/>
      <point x="352" y="164"/>
      <point x="349" y="212"/>
      <point x="355" y="231" type="curve"/>
      <point x="355" y="237" type="line"/>
      <point x="337" y="240"/>
      <point x="306" y="241"/>
      <point x="285" y="241" type="curve" smooth="yes"/>
      <point x="170" y="241"/>
      <point x="75" y="235"/>
      <point x="44" y="99" type="curve" smooth="yes"/>
      <point x="24" y="7" type="line"/>
      <point x="24" y="-89" type="line"/>
      <point x="201" y="-89" type="line"/>
    </contour>
    <contour>
      <point x="164" y="24" type="line"/>
      <point x="178" y="93" type="line" smooth="yes"/>
      <point x="181" y="108"/>
      <point x="182" y="120"/>
      <point x="200" y="120" type="curve" smooth="yes"/>
      <point x="202" y="120" type="line"/>
      <point x="201" y="113"/>
      <point x="201" y="106"/>
      <point x="201" y="98" type="curve" smooth="yes"/>
      <point x="201" y="24" type="line"/>
    </contour>
  </outline>
</glyph>
<glyph name="fiveinferior" format="2">
  <advance width="397"/>
  <unicode hex="2085"/>
  <note>
uni2085
</note>
  <outline>
    <contour>
      <point x="152" y="-168" type="curve" smooth="yes"/>
      <point x="300" y="-168"/>
      <point x="371" y="-118"/>
      <point x="371" y="-30" type="curve" smooth="yes"/>
      <point x="371" y="48"/>
      <point x="309" y="90"/>
      <point x="207" y="90" type="curve" smooth="yes"/>
      <point x="202" y="90"/>
      <point x="198" y="90"/>
      <point x="193" y="90" type="curve"/>
      <point x="193" y="97" type="line" smooth="yes"/>
      <point x="193" y="110"/>
      <point x="192" y="122"/>
      <point x="190" y="131" type="curve"/>
      <point x="347" y="131" type="line"/>
      <point x="347" y="240" type="line"/>
      <point x="132" y="240" type="line" smooth="yes"/>
      <point x="86" y="240"/>
      <point x="65" y="237"/>
      <point x="46" y="235" type="curve"/>
      <point x="46" y="229" type="line"/>
      <point x="51" y="209"/>
      <point x="51" y="159"/>
      <point x="51" y="137" type="curve" smooth="yes"/>
      <point x="51" y="-6" type="line"/>
      <point x="54" y="-9" type="line"/>
      <point x="76" y="-5"/>
      <point x="98" y="-2"/>
      <point x="138" y="-2" type="curve" smooth="yes"/>
      <point x="202" y="-2"/>
      <point x="217" y="-10"/>
      <point x="217" y="-30" type="curve" smooth="yes"/>
      <point x="217" y="-58"/>
      <point x="186" y="-59"/>
      <point x="143" y="-59" type="curve" smooth="yes"/>
      <point x="100" y="-59"/>
      <point x="57" y="-44"/>
      <point x="46" y="-36" type="curve"/>
      <point x="37" y="-36" type="line"/>
      <point x="37" y="-149" type="line"/>
      <point x="58" y="-156"/>
      <point x="100" y="-168"/>
    </contour>
  </outline>
</glyph>
<glyph name="sixinferior" format="2">
  <advance width="398"/>
  <unicode hex="2086"/>
  <note>
uni2086
</note>
  <outline>
    <contour>
      <point x="207" y="-168" type="curve" smooth="yes"/>
      <point x="300" y="-168"/>
      <point x="375" y="-126"/>
      <point x="375" y="-22" type="curve" smooth="yes"/>
      <point x="375" y="39"/>
      <point x="342" y="103"/>
      <point x="235" y="103" type="curve" smooth="yes"/>
      <point x="210" y="103"/>
      <point x="191" y="99"/>
      <point x="178" y="97" type="curve"/>
      <point x="187" y="120"/>
      <point x="209" y="138"/>
      <point x="266" y="138" type="curve" smooth="yes"/>
      <point x="298" y="138"/>
      <point x="316" y="134"/>
      <point x="327" y="130" type="curve"/>
      <point x="335" y="130" type="line"/>
      <point x="335" y="244" type="line"/>
      <point x="315" y="248"/>
      <point x="295" y="248"/>
      <point x="272" y="248" type="curve" smooth="yes"/>
      <point x="80" y="248"/>
      <point x="23" y="138"/>
      <point x="23" y="30" type="curve" smooth="yes"/>
      <point x="23" y="-68"/>
      <point x="46" y="-168"/>
    </contour>
    <contour>
      <point x="202" y="-62" type="curve" smooth="yes"/>
      <point x="176" y="-62"/>
      <point x="173" y="-36"/>
      <point x="173" y="4" type="curve"/>
      <point x="177" y="6"/>
      <point x="188" y="8"/>
      <point x="198" y="8" type="curve" smooth="yes"/>
      <point x="230" y="8"/>
      <point x="230" y="-9"/>
      <point x="230" y="-29" type="curve" smooth="yes"/>
      <point x="230" y="-49"/>
      <point x="220" y="-62"/>
    </contour>
  </outline>
</glyph>
<glyph name="nineinferior" format="2">
  <advance width="398"/>
  <unicode hex="2089"/>
  <note>
uni2089
</note>
  <outline>
    <contour>
      <point x="64" y="-50" type="line"/>
      <point x="64" y="-164" type="line"/>
      <point x="82" y="-168"/>
      <point x="103" y="-168"/>
      <point x="126" y="-168" type="curve" smooth="yes"/>
      <point x="317" y="-168"/>
      <point x="375" y="-59"/>
      <point x="375" y="50" type="curve" smooth="yes"/>
      <point x="375" y="148"/>
      <point x="352" y="248"/>
      <point x="191" y="248" type="curve" smooth="yes"/>
      <point x="98" y="248"/>
      <point x="24" y="206"/>
      <point x="24" y="102" type="curve" smooth="yes"/>
      <point x="24" y="41"/>
      <point x="56" y="-24"/>
      <point x="163" y="-24" type="curve" smooth="yes"/>
      <point x="188" y="-24"/>
      <point x="206" y="-20"/>
      <point x="219" y="-18" type="curve"/>
      <point x="210" y="-41"/>
      <point x="187" y="-59"/>
      <point x="132" y="-59" type="curve" smooth="yes"/>
      <point x="100" y="-59"/>
      <point x="82" y="-54"/>
      <point x="71" y="-50" type="curve"/>
    </contour>
    <contour>
      <point x="197" y="141" type="curve" smooth="yes"/>
      <point x="222" y="141"/>
      <point x="225" y="114"/>
      <point x="225" y="75" type="curve"/>
      <point x="221" y="73"/>
      <point x="210" y="72"/>
      <point x="200" y="72" type="curve" smooth="yes"/>
      <point x="168" y="72"/>
      <point x="168" y="89"/>
      <point x="168" y="108" type="curve" smooth="yes"/>
      <point x="168" y="128"/>
      <point x="178" y="141"/>
    </contour>
  </outline>
</glyph>
<glyph name="colonsign" format="2">
  <advance width="616"/>
  <unicode hex="20A1"/>
  <outline>
    <contour>
      <point x="416" y="-12" type="curve" smooth="yes"/>
      <point x="496" y="-12"/>
      <point x="536" y="-8"/>
      <point x="572" y="4" type="curve"/>
      <point x="572" y="168" type="line"/>
      <point x="560" y="168" type="line"/>
      <point x="536" y="156"/>
      <point x="508" y="148"/>
      <point x="432" y="148" type="curve" smooth="yes"/>
      <point x="288" y="148"/>
      <point x="232" y="212"/>
      <point x="232" y="360" type="curve" smooth="yes"/>
      <point x="232" y="508"/>
      <point x="288" y="572"/>
      <point x="432" y="572" type="curve" smooth="yes"/>
      <point x="508" y="572"/>
      <point x="536" y="564"/>
      <point x="560" y="552" type="curve"/>
      <point x="572" y="552" type="line"/>
      <point x="572" y="716" type="line"/>
      <point x="536" y="728"/>
      <point x="496" y="732"/>
      <point x="416" y="732" type="curve" smooth="yes"/>
      <point x="164" y="732"/>
      <point x="36" y="588"/>
      <point x="36" y="360" type="curve" smooth="yes"/>
      <point x="36" y="132"/>
      <point x="164" y="-12"/>
    </contour>
    <contour>
      <point x="334" y="800" type="line"/>
      <point x="216" y="-84" type="line"/>
      <point x="304" y="-84" type="line"/>
      <point x="422" y="800" type="line"/>
    </contour>
    <contour>
      <point x="464" y="800" type="line"/>
      <point x="346" y="-84" type="line"/>
      <point x="434" y="-84" type="line"/>
      <point x="552" y="800" type="line"/>
    </contour>
  </outline>
</glyph>
<glyph name="peseta" format="2">
  <advance width="1362"/>
  <unicode hex="20A7"/>
  <outline>
    <contour>
      <point x="180" y="160" type="line"/>
      <point x="326" y="160" type="line" smooth="yes"/>
      <point x="518" y="160"/>
      <point x="634" y="284"/>
      <point x="634" y="464" type="curve" smooth="yes"/>
      <point x="634" y="620"/>
      <point x="534" y="720"/>
      <point x="346" y="720" type="curve" smooth="yes"/>
      <point x="180" y="720" type="line"/>
      <point x="180" y="544" type="line"/>
      <point x="350" y="544" type="line" smooth="yes"/>
      <point x="394" y="544"/>
      <point x="430" y="516"/>
      <point x="430" y="456" type="curve" smooth="yes"/>
      <point x="430" y="388"/>
      <point x="398" y="328"/>
      <point x="318" y="328" type="curve" smooth="yes"/>
      <point x="180" y="328" type="line"/>
    </contour>
    <contour>
      <point x="68" y="0" type="line"/>
      <point x="280" y="0" type="line"/>
      <point x="280" y="720" type="line"/>
      <point x="68" y="720" type="line"/>
    </contour>
    <contour>
      <point x="884" y="-6" type="curve" smooth="yes"/>
      <point x="918" y="-6"/>
      <point x="939" y="-3"/>
      <point x="964" y="2" type="curve"/>
      <point x="964" y="130" type="line"/>
      <point x="955" y="130" type="line"/>
      <point x="944" y="126"/>
      <point x="928" y="122"/>
      <point x="913" y="122" type="curve" smooth="yes"/>
      <point x="878" y="122"/>
      <point x="858" y="135"/>
      <point x="858" y="174" type="curve" smooth="yes"/>
      <point x="858" y="275" type="line"/>
      <point x="949" y="275" type="line"/>
      <point x="949" y="400" type="line"/>
      <point x="858" y="400" type="line"/>
      <point x="858" y="495" type="line"/>
      <point x="691" y="495" type="line"/>
      <point x="691" y="400" type="line"/>
      <point x="572" y="400" type="line"/>
      <point x="572" y="275" type="line"/>
      <point x="691" y="275" type="line"/>
      <point x="691" y="161" type="line" smooth="yes"/>
      <point x="691" y="23"/>
      <point x="782" y="-6"/>
    </contour>
    <contour>
      <point x="1120" y="-6" type="curve" smooth="yes"/>
      <point x="1252" y="-6"/>
      <point x="1330" y="37"/>
      <point x="1330" y="133" type="curve" smooth="yes"/>
      <point x="1330" y="200"/>
      <point x="1267" y="236"/>
      <point x="1209" y="249" type="curve" smooth="yes"/>
      <point x="1178" y="256" type="line" smooth="yes"/>
      <point x="1147" y="263"/>
      <point x="1135" y="264"/>
      <point x="1135" y="275" type="curve" smooth="yes"/>
      <point x="1135" y="287"/>
      <point x="1150" y="290"/>
      <point x="1183" y="290" type="curve" smooth="yes"/>
      <point x="1214" y="290"/>
      <point x="1249" y="286"/>
      <point x="1294" y="267" type="curve"/>
      <point x="1300" y="267" type="line"/>
      <point x="1300" y="395" type="line"/>
      <point x="1254" y="406"/>
      <point x="1222" y="409"/>
      <point x="1186" y="409" type="curve" smooth="yes"/>
      <point x="1049" y="409"/>
      <point x="983" y="354"/>
      <point x="983" y="270" type="curve" smooth="yes"/>
      <point x="983" y="195"/>
      <point x="1032" y="167"/>
      <point x="1094" y="155" type="curve" smooth="yes"/>
      <point x="1126" y="149" type="line" smooth="yes"/>
      <point x="1167" y="141"/>
      <point x="1174" y="138"/>
      <point x="1174" y="126" type="curve" smooth="yes"/>
      <point x="1174" y="117"/>
      <point x="1164" y="112"/>
      <point x="1130" y="112" type="curve" smooth="yes"/>
      <point x="1075" y="112"/>
      <point x="1027" y="127"/>
      <point x="992" y="142" type="curve"/>
      <point x="986" y="142" type="line"/>
      <point x="986" y="14" type="line"/>
      <point x="1028" y="2"/>
      <point x="1077" y="-6"/>
    </contour>
  </outline>
</glyph>
<glyph name="won" format="2">
  <advance width="1140"/>
  <unicode hex="20A9"/>
  <outline>
    <contour>
      <point x="700" y="-8" type="curve" smooth="yes"/>
      <point x="861" y="-8"/>
      <point x="999" y="62"/>
      <point x="1024" y="240" type="curve" smooth="yes"/>
      <point x="1092" y="720" type="line"/>
      <point x="880" y="720" type="line"/>
      <point x="820" y="260" type="line" smooth="yes"/>
      <point x="812" y="198"/>
      <point x="766" y="168"/>
      <point x="686" y="168" type="curve" smooth="yes"/>
      <point x="653" y="168"/>
      <point x="636" y="172"/>
      <point x="622" y="177" type="curve"/>
      <point x="709" y="99" type="line"/>
      <point x="712" y="131"/>
      <point x="711" y="203"/>
      <point x="708" y="260" type="curve" smooth="yes"/>
      <point x="680" y="720" type="line"/>
      <point x="480" y="720" type="line"/>
      <point x="520" y="179" type="line" smooth="yes"/>
      <point x="524" y="123"/>
      <point x="524" y="75"/>
      <point x="520" y="24" type="curve"/>
      <point x="522" y="12" type="line"/>
      <point x="577" y="0"/>
      <point x="641" y="-8"/>
    </contour>
    <contour>
      <point x="240" y="-8" type="curve" smooth="yes"/>
      <point x="389" y="-8"/>
      <point x="493" y="58"/>
      <point x="541" y="170" type="curve" smooth="yes"/>
      <point x="569" y="235" type="line"/>
      <point x="533" y="573" type="line"/>
      <point x="428" y="272" type="line" smooth="yes"/>
      <point x="407" y="213"/>
      <point x="392" y="168"/>
      <point x="312" y="168" type="curve" smooth="yes"/>
      <point x="300" y="168"/>
      <point x="283" y="169"/>
      <point x="268" y="172" type="curve"/>
      <point x="308" y="125" type="line"/>
      <point x="306" y="157"/>
      <point x="307" y="203"/>
      <point x="304" y="260" type="curve" smooth="yes"/>
      <point x="276" y="720" type="line"/>
      <point x="64" y="720" type="line"/>
      <point x="100" y="184" type="line" smooth="yes"/>
      <point x="103" y="144"/>
      <point x="108" y="68"/>
      <point x="104" y="24" type="curve"/>
      <point x="108" y="12" type="line"/>
      <point x="157" y="-2"/>
      <point x="193" y="-8"/>
    </contour>
    <contour>
      <point x="12" y="428" type="line"/>
      <point x="1128" y="428" type="line"/>
      <point x="1128" y="540" type="line"/>
      <point x="12" y="540" type="line"/>
    </contour>
    <contour>
      <point x="12" y="248" type="line"/>
      <point x="1128" y="248" type="line"/>
      <point x="1128" y="360" type="line"/>
      <point x="12" y="360" type="line"/>
    </contour>
  </outline>
</glyph>
<glyph name="euro" format="2">
  <advance width="616"/>
  <unicode hex="20AC"/>
  <note>
Euro
</note>
  <outline>
    <contour>
      <point x="456" y="-12" type="curve" smooth="yes"/>
      <point x="496" y="-12"/>
      <point x="536" y="-8"/>
      <point x="572" y="4" type="curve"/>
      <point x="572" y="168" type="line"/>
      <point x="560" y="168" type="line"/>
      <point x="536" y="156"/>
      <point x="508" y="148"/>
      <point x="472" y="148" type="curve" smooth="yes"/>
      <point x="356" y="148"/>
      <point x="316" y="224"/>
      <point x="316" y="360" type="curve" smooth="yes"/>
      <point x="316" y="496"/>
      <point x="356" y="572"/>
      <point x="472" y="572" type="curve" smooth="yes"/>
      <point x="508" y="572"/>
      <point x="536" y="564"/>
      <point x="560" y="552" type="curve"/>
      <point x="572" y="552" type="line"/>
      <point x="572" y="716" type="line"/>
      <point x="536" y="728"/>
      <point x="496" y="732"/>
      <point x="456" y="732" type="curve" smooth="yes"/>
      <point x="220" y="732"/>
      <point x="116" y="588"/>
      <point x="116" y="360" type="curve" smooth="yes"/>
      <point x="116" y="132"/>
      <point x="220" y="-12"/>
    </contour>
    <contour>
      <point x="28" y="212" type="line"/>
      <point x="452" y="212" type="line"/>
      <point x="452" y="328" type="line"/>
      <point x="28" y="328" type="line"/>
    </contour>
    <contour>
      <point x="28" y="392" type="line" name="hr00"/>
      <point x="452" y="392" type="line"/>
      <point x="452" y="508" type="line"/>
      <point x="28" y="508" type="line"/>
    </contour>
  </outline>
</glyph>
<glyph name="peso" format="2">
  <advance width="722"/>
  <unicode hex="20B1"/>
  <outline>
    <contour>
      <point x="180" y="136" type="line"/>
      <point x="336" y="136" type="line" smooth="yes"/>
      <point x="544" y="136"/>
      <point x="660" y="260"/>
      <point x="660" y="452" type="curve" smooth="yes"/>
      <point x="660" y="620"/>
      <point x="560" y="720"/>
      <point x="352" y="720" type="curve" smooth="yes"/>
      <point x="180" y="720" type="line"/>
      <point x="180" y="568" type="line"/>
      <point x="356" y="568" type="line" smooth="yes"/>
      <point x="412" y="568"/>
      <point x="452" y="540"/>
      <point x="452" y="444" type="curve" smooth="yes"/>
      <point x="452" y="340"/>
      <point x="420" y="280"/>
      <point x="328" y="280" type="curve" smooth="yes"/>
      <point x="180" y="280" type="line"/>
    </contour>
    <contour>
      <point x="68" y="0" type="line"/>
      <point x="280" y="0" type="line"/>
      <point x="280" y="720" type="line"/>
      <point x="68" y="720" type="line"/>
    </contour>
    <contour>
      <point x="12" y="316" type="line"/>
      <point x="710" y="316" type="line"/>
      <point x="710" y="408" type="line"/>
      <point x="12" y="408" type="line"/>
    </contour>
    <contour>
      <point x="12" y="448" type="line"/>
      <point x="710" y="448" type="line"/>
      <point x="710" y="540" type="line"/>
      <point x="12" y="540" type="line"/>
    </contour>
  </outline>
</glyph>
<glyph name="numero" format="2">
  <advance width="1266"/>
  <unicode hex="2116"/>
  <note>
afii61352
</note>
  <outline>
    <contour>
      <point x="84" y="0" type="line"/>
      <point x="296" y="0" type="line"/>
      <point x="296" y="401" type="line"/>
      <point x="524" y="175" type="line"/>
      <point x="524" y="0" type="line"/>
      <point x="736" y="0" type="line"/>
      <point x="736" y="720" type="line"/>
      <point x="524" y="720" type="line"/>
      <point x="524" y="451" type="line"/>
      <point x="252" y="720" type="line"/>
      <point x="84" y="720" type="line"/>
    </contour>
    <contour>
      <point x="822" y="88" type="line"/>
      <point x="1182" y="88" type="line"/>
      <point x="1182" y="184" type="line"/>
      <point x="822" y="184" type="line"/>
    </contour>
    <contour>
      <point x="822" y="244" type="line"/>
      <point x="1182" y="244" type="line"/>
      <point x="1182" y="340" type="line"/>
      <point x="822" y="340" type="line"/>
    </contour>
    <contour>
      <point x="1002" y="388" type="curve" smooth="yes"/>
      <point x="1114" y="388"/>
      <point x="1206" y="442"/>
      <point x="1206" y="560" type="curve" smooth="yes"/>
      <point x="1206" y="681"/>
      <point x="1117" y="732"/>
      <point x="1002" y="732" type="curve" smooth="yes"/>
      <point x="891" y="732"/>
      <point x="799" y="678"/>
      <point x="799" y="560" type="curve" smooth="yes"/>
      <point x="799" y="439"/>
      <point x="888" y="388"/>
    </contour>
    <contour>
      <point x="1004" y="485" type="curve" smooth="yes"/>
      <point x="969" y="485"/>
      <point x="940" y="508"/>
      <point x="940" y="560" type="curve" smooth="yes"/>
      <point x="940" y="612"/>
      <point x="969" y="635"/>
      <point x="1004" y="635" type="curve" smooth="yes"/>
      <point x="1040" y="635"/>
      <point x="1069" y="612"/>
      <point x="1069" y="560" type="curve" smooth="yes"/>
      <point x="1069" y="508"/>
      <point x="1040" y="485"/>
    </contour>
  </outline>
</glyph>
<glyph name="trademark" format="2">
  <advance width="1014"/>
  <unicode hex="2122"/>
  <note>
trademark
</note>
  <outline>
    <contour>
      <point x="452" y="320" type="line"/>
      <point x="600" y="320" type="line"/>
      <point x="600" y="579" type="line"/>
      <point x="563" y="566" type="line"/>
      <point x="656" y="380" type="line"/>
      <point x="736" y="380" type="line"/>
      <point x="827" y="569" type="line"/>
      <point x="791" y="581" type="line"/>
      <point x="791" y="320" type="line"/>
      <point x="939" y="320" type="line"/>
      <point x="939" y="720" type="line"/>
      <point x="787" y="720" type="line"/>
      <point x="664" y="481" type="line"/>
      <point x="733" y="481" type="line"/>
      <point x="604" y="720" type="line"/>
      <point x="452" y="720" type="line"/>
    </contour>
    <contour>
      <point x="131" y="320" type="line"/>
      <point x="288" y="320" type="line"/>
      <point x="288" y="600" type="line"/>
      <point x="403" y="600" type="line"/>
      <point x="403" y="720" type="line"/>
      <point x="17" y="720" type="line"/>
      <point x="17" y="600" type="line"/>
      <point x="131" y="600" type="line"/>
    </contour>
  </outline>
</glyph>
<glyph name="estimated" format="2">
  <advance width="893"/>
  <unicode hex="212E"/>
  <note>
estimated
</note>
  <outline>
    <contour>
      <point x="194" y="118" type="curve"/>
      <point x="188" y="126"/>
      <point x="184" y="134"/>
      <point x="184" y="143" type="curve" smooth="yes"/>
      <point x="184" y="345" type="line" smooth="yes"/>
      <point x="184" y="348"/>
      <point x="187" y="349"/>
      <point x="191" y="349" type="curve" smooth="yes"/>
      <point x="861" y="349" type="line"/>
      <point x="861" y="360" type="line" smooth="yes"/>
      <point x="861" y="565"/>
      <point x="675" y="732"/>
      <point x="447" y="732" type="curve" smooth="yes"/>
      <point x="218" y="732"/>
      <point x="32" y="565"/>
      <point x="32" y="360" type="curve" smooth="yes"/>
      <point x="32" y="154"/>
      <point x="218" y="-12"/>
      <point x="447" y="-12" type="curve" smooth="yes"/>
      <point x="579" y="-12"/>
      <point x="700" y="45"/>
      <point x="775" y="133" type="curve"/>
      <point x="715" y="133" type="line"/>
      <point x="649" y="57"/>
      <point x="555" y="11"/>
      <point x="448" y="11" type="curve" smooth="yes"/>
      <point x="347" y="11"/>
      <point x="257" y="53"/>
    </contour>
    <contour>
      <point x="705" y="372" type="curve" smooth="yes"/>
      <point x="191" y="372" type="line" smooth="yes"/>
      <point x="187" y="372"/>
      <point x="184" y="374"/>
      <point x="184" y="378" type="curve" smooth="yes"/>
      <point x="184" y="574" type="line" smooth="yes"/>
      <point x="184" y="585"/>
      <point x="188" y="594"/>
      <point x="195" y="602" type="curve"/>
      <point x="258" y="666"/>
      <point x="348" y="709"/>
      <point x="448" y="709" type="curve" smooth="yes"/>
      <point x="545" y="709"/>
      <point x="635" y="670"/>
      <point x="699" y="604" type="curve"/>
      <point x="706" y="598"/>
      <point x="709" y="590"/>
      <point x="709" y="579" type="curve" smooth="yes"/>
      <point x="709" y="378" type="line" smooth="yes"/>
      <point x="709" y="374"/>
      <point x="707" y="372"/>
    </contour>
  </outline>
</glyph>
<glyph name="leftArrow" format="2">
  <advance width="772"/>
  <unicode hex="2190"/>
  <note>
uni2190
</note>
  <outline>
    <contour>
      <point x="732" y="200" type="line"/>
      <point x="732" y="352" type="line"/>
      <point x="396" y="348" type="line" smooth="yes"/>
      <point x="327" y="347"/>
      <point x="278" y="343"/>
      <point x="240" y="338" type="curve"/>
      <point x="256" y="353"/>
      <point x="270" y="368"/>
      <point x="280" y="380" type="curve" smooth="yes"/>
      <point x="356" y="468" type="line"/>
      <point x="260" y="552" type="line"/>
      <point x="112" y="380" type="line" smooth="yes"/>
      <point x="93" y="359"/>
      <point x="64" y="328"/>
      <point x="36" y="304" type="curve"/>
      <point x="36" y="248" type="line"/>
      <point x="64" y="224"/>
      <point x="93" y="193"/>
      <point x="112" y="172" type="curve" smooth="yes"/>
      <point x="260" y="0" type="line"/>
      <point x="356" y="84" type="line"/>
      <point x="280" y="172" type="line" smooth="yes"/>
      <point x="270" y="183"/>
      <point x="256" y="199"/>
      <point x="240" y="213" type="curve"/>
      <point x="277" y="209"/>
      <point x="329" y="205"/>
      <point x="396" y="204" type="curve" smooth="yes"/>
    </contour>
  </outline>
</glyph>
<glyph name="upArrow" format="2">
  <advance width="632"/>
  <unicode hex="2191"/>
  <note>
uni2191
</note>
  <outline>
    <contour>
      <point x="240" y="-72" type="line"/>
      <point x="392" y="-72" type="line"/>
      <point x="388" y="264" type="line" smooth="yes"/>
      <point x="387" y="332"/>
      <point x="383" y="382"/>
      <point x="378" y="420" type="curve"/>
      <point x="393" y="404"/>
      <point x="408" y="390"/>
      <point x="420" y="380" type="curve" smooth="yes"/>
      <point x="508" y="304" type="line"/>
      <point x="592" y="400" type="line"/>
      <point x="420" y="548" type="line" smooth="yes"/>
      <point x="399" y="567"/>
      <point x="368" y="596"/>
      <point x="344" y="624" type="curve"/>
      <point x="288" y="624" type="line"/>
      <point x="264" y="596"/>
      <point x="233" y="567"/>
      <point x="212" y="548" type="curve" smooth="yes"/>
      <point x="40" y="400" type="line"/>
      <point x="124" y="304" type="line"/>
      <point x="212" y="380" type="line" smooth="yes"/>
      <point x="223" y="390"/>
      <point x="239" y="404"/>
      <point x="253" y="420" type="curve"/>
      <point x="249" y="382"/>
      <point x="245" y="331"/>
      <point x="244" y="264" type="curve" smooth="yes"/>
    </contour>
  </outline>
</glyph>
<glyph name="product" format="2">
  <advance width="760"/>
  <unicode hex="220F"/>
  <note>
product
</note>
  <outline>
    <contour>
      <point x="68" y="720" type="line"/>
      <point x="68" y="0" type="line"/>
      <point x="264" y="0" type="line"/>
      <point x="264" y="552" type="line"/>
      <point x="496" y="552" type="line"/>
      <point x="496" y="0" type="line"/>
      <point x="692" y="0" type="line"/>
      <point x="692" y="720" type="line"/>
    </contour>
  </outline>
</glyph>
<glyph name="summation" format="2">
  <advance width="554"/>
  <unicode hex="2211"/>
  <note>
summation
</note>
  <outline>
    <contour>
      <point x="228" y="315" type="line"/>
      <point x="32" y="-26" type="line"/>
      <point x="32" y="-120" type="line"/>
      <point x="522" y="-120" type="line"/>
      <point x="522" y="16" type="line"/>
      <point x="237" y="16" type="line"/>
      <point x="407" y="315" type="line"/>
      <point x="243" y="584" type="line"/>
      <point x="522" y="584" type="line"/>
      <point x="522" y="720" type="line"/>
      <point x="32" y="720" type="line"/>
      <point x="32" y="626" type="line"/>
    </contour>
  </outline>
</glyph>
<glyph name="radical" format="2">
  <advance width="668"/>
  <unicode hex="221A"/>
  <note>
radical
</note>
  <outline>
    <contour>
      <point x="16" y="398" type="line"/>
      <point x="16" y="262" type="line"/>
      <point x="146" y="262" type="line"/>
      <point x="275" y="-120" type="line"/>
      <point x="479" y="-120" type="line"/>
      <point x="734" y="772" type="line"/>
      <point x="568" y="772" type="line"/>
      <point x="375" y="59" type="line"/>
      <point x="271" y="398" type="line"/>
    </contour>
  </outline>
</glyph>
<glyph name="infinity" format="2">
  <advance width="728"/>
  <unicode hex="221E"/>
  <note>
infinity
</note>
  <outline>
    <contour>
      <point x="532" y="168" type="curve" smooth="yes"/>
      <point x="636" y="168"/>
      <point x="708" y="232"/>
      <point x="708" y="336" type="curve" smooth="yes"/>
      <point x="708" y="440"/>
      <point x="636" y="504"/>
      <point x="532" y="504" type="curve" smooth="yes"/>
      <point x="453" y="504"/>
      <point x="417" y="472"/>
      <point x="332" y="376" type="curve" smooth="yes"/>
      <point x="249" y="283"/>
      <point x="237" y="268"/>
      <point x="196" y="268" type="curve" smooth="yes"/>
      <point x="148" y="268"/>
      <point x="124" y="292"/>
      <point x="124" y="336" type="curve" smooth="yes"/>
      <point x="124" y="380"/>
      <point x="160" y="404"/>
      <point x="196" y="404" type="curve" smooth="yes"/>
      <point x="237" y="404"/>
      <point x="249" y="389"/>
      <point x="332" y="296" type="curve" smooth="yes"/>
      <point x="417" y="200"/>
      <point x="453" y="168"/>
    </contour>
    <contour>
      <point x="196" y="168" type="curve" smooth="yes"/>
      <point x="275" y="168"/>
      <point x="311" y="200"/>
      <point x="396" y="296" type="curve" smooth="yes"/>
      <point x="479" y="389"/>
      <point x="491" y="404"/>
      <point x="532" y="404" type="curve" smooth="yes"/>
      <point x="568" y="404"/>
      <point x="604" y="380"/>
      <point x="604" y="336" type="curve" smooth="yes"/>
      <point x="604" y="292"/>
      <point x="568" y="268"/>
      <point x="532" y="268" type="curve" smooth="yes"/>
      <point x="491" y="268"/>
      <point x="479" y="283"/>
      <point x="396" y="376" type="curve" smooth="yes"/>
      <point x="311" y="472"/>
      <point x="275" y="504"/>
      <point x="196" y="504" type="curve" smooth="yes"/>
      <point x="92" y="504"/>
      <point x="20" y="440"/>
      <point x="20" y="336" type="curve" smooth="yes"/>
      <point x="20" y="232"/>
      <point x="92" y="168"/>
    </contour>
  </outline>
</glyph>
<glyph name="blackSquare" format="2">
  <advance width="908"/>
  <unicode hex="25A0"/>
  <note>
uni25A0
</note>
  <outline>
    <contour>
      <point x="96" y="720" type="line"/>
      <point x="96" y="0" type="line"/>
      <point x="812" y="0" type="line"/>
      <point x="812" y="720" type="line"/>
    </contour>
  </outline>
</glyph>
<glyph name="whiteSquare" format="2">
  <advance width="908"/>
  <unicode hex="25A1"/>
  <note>
uni25A1
</note>
  <outline>
    <contour>
      <point x="96" y="720" type="line"/>
      <point x="96" y="0" type="line"/>
      <point x="812" y="0" type="line"/>
      <point x="812" y="720" type="line"/>
    </contour>
    <contour>
      <point x="636" y="156" type="line"/>
      <point x="272" y="156" type="line"/>
      <point x="272" y="564" type="line"/>
      <point x="636" y="564" type="line"/>
    </contour>
  </outline>
</glyph>
<glyph name="uniFBC0" format="2">
  <unicode hex="FBC0"/>
  <note>
uniFBC0
</note>
  <outline>
    <contour>
      <point x="-188" y="605" type="line"/>
      <point x="56" y="605" type="line" smooth="yes"/>
      <point x="152" y="605"/>
      <point x="181" y="651"/>
      <point x="181" y="701" type="curve" smooth="yes"/>
      <point x="181" y="743"/>
      <point x="152" y="779"/>
      <point x="132" y="800" type="curve"/>
      <point x="128" y="800" type="line"/>
      <point x="111" y="797"/>
      <point x="83" y="796"/>
      <point x="53" y="796" type="curve" smooth="yes"/>
      <point x="-21" y="796" type="line"/>
      <point x="-42" y="742" type="line"/>
      <point x="-42" y="880" type="line"/>
      <point x="-130" y="870" type="line"/>
      <point x="-130" y="681" type="line"/>
      <point x="-160" y="681" type="line"/>
      <point x="-188" y="610" type="line"/>
    </contour>
    <contour>
      <point x="-42" y="681" type="line"/>
      <point x="-42" y="719" type="line"/>
      <point x="33" y="719" type="line" smooth="yes"/>
      <point x="56" y="719"/>
      <point x="69" y="720"/>
      <point x="86" y="723" type="curve"/>
      <point x="93" y="720"/>
      <point x="94" y="709"/>
      <point x="94" y="704" type="curve" smooth="yes"/>
      <point x="94" y="688"/>
      <point x="84" y="681"/>
      <point x="40" y="681" type="curve" smooth="yes"/>
    </contour>
  </outline>
</glyph>
<glyph name="_alefMaksura_hah-ar.init" format="2">
  <advance width="846"/>
  <note>
uni0649062D
</note>
  <anchor x="285" y="0" name="bottom"/>
  <anchor x="891" y="470" name="bottom_1"/>
  <anchor x="408" y="480" name="top"/>
  <anchor x="700" y="667" name="top_1"/>
  <outline>
    <contour>
      <point x="747" y="176" type="line" smooth="yes"/>
      <point x="635" y="176"/>
      <point x="357" y="440"/>
      <point x="188" y="600" type="curve"/>
      <point x="176" y="600" type="line"/>
      <point x="60" y="436" type="line"/>
      <point x="176" y="322"/>
      <point x="308" y="211"/>
      <point x="424" y="152" type="curve"/>
      <point x="467" y="176" type="line"/>
      <point x="0" y="176" type="line"/>
      <point x="-20" y="156" type="line"/>
      <point x="-20" y="-1" type="line"/>
      <point x="772" y="0" type="line"/>
      <point x="836" y="164" type="line"/>
      <point x="836" y="176" type="line"/>
    </contour>
    <contour>
      <point x="387" y="273" type="line"/>
      <point x="427" y="262"/>
      <point x="464" y="255"/>
      <point x="500" y="255" type="curve" smooth="yes"/>
      <point x="690" y="255"/>
      <point x="808" y="338"/>
      <point x="808" y="524" type="curve" smooth="yes"/>
      <point x="808" y="636" type="line"/>
      <point x="796" y="636" type="line"/>
      <point x="596" y="616" type="line"/>
      <point x="596" y="500" type="line" smooth="yes"/>
      <point x="596" y="443"/>
      <point x="593" y="400"/>
      <point x="564" y="381" type="curve"/>
      <point x="630" y="447" type="line"/>
      <point x="598" y="412"/>
      <point x="538" y="395"/>
      <point x="476" y="394" type="curve" smooth="yes"/>
      <point x="417" y="393"/>
      <point x="356" y="406"/>
      <point x="313" y="429" type="curve"/>
    </contour>
  </outline>
</glyph>
<glyph name="_baseline2" format="2">
  <advance width="313"/>
  <anchor x="0" y="0" name="*exit"/>
  <outline>
    <contour>
      <point x="-110" y="0" type="line"/>
      <point x="293" y="0" type="line"/>
      <point x="313" y="20" type="line"/>
      <point x="313" y="176" type="line"/>
      <point x="-110" y="176" type="line"/>
    </contour>
  </outline>
</glyph>
<glyph name="_behDotlessshortnabirah-ar" format="2">
  <advance width="432"/>
  <note>
uni066E.medi
</note>
  <anchor x="312" y="0" name="*entry"/>
  <outline>
    <contour>
      <point x="0" y="176" type="line"/>
      <point x="-20" y="156" type="line"/>
      <point x="-20" y="0" type="line"/>
      <point x="412" y="0" type="line"/>
      <point x="432" y="20" type="line"/>
      <point x="432" y="176" type="line"/>
      <point x="222" y="176" type="line"/>
      <point x="308" y="90" type="line"/>
      <point x="308" y="494" type="line"/>
      <point x="296" y="494" type="line"/>
      <point x="96" y="474" type="line"/>
      <point x="96" y="264" type="line" smooth="yes"/>
      <point x="96" y="203"/>
      <point x="101" y="161"/>
      <point x="121" y="147" type="curve"/>
      <point x="190" y="176" type="line"/>
    </contour>
  </outline>
</glyph>
<glyph name="_ending-ar" format="2">
  <advance width="600"/>
  <anchor x="237" y="0" name="*entry"/>
  <outline>
    <contour>
      <point x="467" y="0" type="line"/>
      <point x="467" y="176" type="line"/>
      <point x="62" y="176" type="line"/>
      <point x="0" y="12" type="line"/>
      <point x="0" y="0" type="line"/>
    </contour>
  </outline>
</glyph>
<glyph name="_part.bar-ar" format="2">
  <advance width="280"/>
  <anchor x="140" y="400" name="_bar"/>
  <anchor x="260" y="369" name="_tail"/>
  <outline>
    <contour>
      <point x="20" y="369" type="line"/>
      <point x="260" y="369" type="line"/>
      <point x="260" y="433" type="line"/>
      <point x="20" y="433" type="line"/>
    </contour>
  </outline>
</glyph>
<glyph name="_part.dot" format="2">
  <advance width="348"/>
  <anchor x="176" y="548" name="_top"/>
  <outline>
    <contour>
      <point x="176" y="620" type="curve" smooth="yes"/>
      <point x="240" y="620"/>
      <point x="284" y="656"/>
      <point x="284" y="724" type="curve" smooth="yes"/>
      <point x="284" y="792"/>
      <point x="240" y="828"/>
      <point x="176" y="828" type="curve" smooth="yes"/>
      <point x="112" y="828"/>
      <point x="68" y="792"/>
      <point x="68" y="724" type="curve" smooth="yes"/>
      <point x="68" y="656"/>
      <point x="112" y="620"/>
    </contour>
  </outline>
</glyph>
<glyph name="_part.t.liga" format="2">
  <advance width="448"/>
  <outline>
    <contour>
      <point x="364" y="-8" type="curve" smooth="yes"/>
      <point x="410" y="-8"/>
      <point x="440" y="-4"/>
      <point x="472" y="4" type="curve"/>
      <point x="472" y="168" type="line"/>
      <point x="460" y="168" type="line"/>
      <point x="444" y="162"/>
      <point x="422" y="156"/>
      <point x="400" y="156" type="curve" smooth="yes"/>
      <point x="340" y="156"/>
      <point x="312" y="176"/>
      <point x="312" y="232" type="curve" smooth="yes"/>
      <point x="312" y="680" type="line"/>
      <point x="100" y="680" type="line"/>
      <point x="100" y="216" type="line" smooth="yes"/>
      <point x="100" y="36"/>
      <point x="216" y="-8"/>
    </contour>
    <contour>
      <point x="8" y="388" type="line"/>
      <point x="516" y="388" type="line"/>
      <point x="516" y="548" type="line"/>
      <point x="8" y="548" type="line"/>
    </contour>
  </outline>
</glyph>
<glyph name="_part.yehbarree-ar" format="2">
  <advance width="484"/>
  <anchor x="202" y="-256" name="bottom"/>
  <anchor x="195" y="176" name="top"/>
  <outline>
    <contour>
      <point x="324" y="-256" type="curve" smooth="yes"/>
      <point x="996" y="-256" type="line"/>
      <point x="1056" y="-96" type="line"/>
      <point x="1056" y="-84" type="line"/>
      <point x="330" y="-84" type="line" smooth="yes"/>
      <point x="257" y="-84"/>
      <point x="185" y="-62"/>
      <point x="168" y="-45" type="curve"/>
      <point x="202" y="-83" type="line"/>
      <point x="202" y="-45"/>
      <point x="233" y="0"/>
      <point x="364" y="0" type="curve" smooth="yes"/>
      <point x="464" y="0" type="line"/>
      <point x="484" y="20" type="line"/>
      <point x="484" y="176" type="line"/>
      <point x="384" y="176" type="line" smooth="yes"/>
      <point x="141" y="176"/>
      <point x="24" y="74"/>
      <point x="24" y="-53" type="curve" smooth="yes"/>
      <point x="24" y="-177"/>
      <point x="136" y="-256"/>
    </contour>
  </outline>
</glyph>
<glyph name="alefMaksura-ar.fina" format="2">
  <advance width="842"/>
  <note>
uni0649.fina
</note>
  <anchor x="242" y="-264" name="bottom"/>
  <anchor x="102" y="176" name="center"/>
  <anchor x="242" y="-264" name="ring"/>
  <anchor x="62" y="325" name="top"/>
  <outline>
    <contour>
      <point x="822" y="0" type="curve"/>
      <point x="842" y="20" type="line"/>
      <point x="842" y="176" type="line"/>
      <point x="792" y="176"/>
      <point x="771" y="205"/>
      <point x="723" y="308" type="curve" smooth="yes"/>
      <point x="636" y="496" type="line"/>
      <point x="616" y="508" type="line"/>
      <point x="438" y="469"/>
      <point x="256" y="394"/>
      <point x="256" y="212" type="curve" smooth="yes"/>
      <point x="256" y="98"/>
      <point x="349" y="19"/>
      <point x="451" y="-109" type="curve"/>
      <point x="445" y="-34" type="line"/>
      <point x="404" y="-54"/>
      <point x="340" y="-80"/>
      <point x="254" y="-80" type="curve" smooth="yes"/>
      <point x="145" y="-80"/>
      <point x="61" y="-46"/>
      <point x="40" y="-40" type="curve"/>
      <point x="28" y="-40" type="line"/>
      <point x="-24" y="-216" type="line"/>
      <point x="-24" y="-216"/>
      <point x="82" y="-264"/>
      <point x="242" y="-264" type="curve" smooth="yes"/>
      <point x="431" y="-264"/>
      <point x="572" y="-152"/>
      <point x="572" y="-4" type="curve" smooth="yes"/>
      <point x="572" y="70"/>
      <point x="464" y="164"/>
      <point x="464" y="232" type="curve" smooth="yes"/>
      <point x="464" y="289"/>
      <point x="524" y="290"/>
      <point x="591" y="301" type="curve"/>
      <point x="476" y="390" type="line"/>
      <point x="588" y="154" type="line" smooth="yes"/>
      <point x="645" y="35"/>
      <point x="698" y="0"/>
    </contour>
  </outline>
</glyph>
<glyph name="asterisk.sc" format="2">
  <advance width="460"/>
  <note>
asterisk.sc
</note>
  <outline>
    <contour>
      <point x="184" y="372" type="line"/>
      <point x="164" y="172" type="line"/>
      <point x="296" y="172" type="line"/>
      <point x="276" y="372" type="line"/>
      <point x="296" y="572" type="line"/>
      <point x="164" y="572" type="line"/>
    </contour>
    <contour>
      <point x="207" y="412" type="line"/>
      <point x="24" y="329" type="line"/>
      <point x="90" y="215" type="line"/>
      <point x="253" y="332" type="line"/>
      <point x="436" y="415" type="line"/>
      <point x="370" y="529" type="line"/>
    </contour>
    <contour>
      <point x="253" y="412" type="line"/>
      <point x="90" y="529" type="line"/>
      <point x="24" y="415" type="line"/>
      <point x="207" y="332" type="line"/>
      <point x="370" y="215" type="line"/>
      <point x="436" y="329" type="line"/>
    </contour>
  </outline>
</glyph>
<glyph name="at.sc" format="2">
  <advance width="876"/>
  <note>
at.sc
</note>
  <outline>
    <contour>
      <point x="464" y="-156" type="curve" smooth="yes"/>
      <point x="519" y="-156"/>
      <point x="590" y="-149"/>
      <point x="624" y="-136" type="curve"/>
      <point x="624" y="-32" type="line"/>
      <point x="612" y="-32" type="line"/>
      <point x="581" y="-44"/>
      <point x="520" y="-52"/>
      <point x="464" y="-52" type="curve" smooth="yes"/>
      <point x="289" y="-52"/>
      <point x="164" y="30"/>
      <point x="164" y="220" type="curve" smooth="yes"/>
      <point x="164" y="408"/>
      <point x="278" y="484"/>
      <point x="456" y="484" type="curve" smooth="yes"/>
      <point x="610" y="484"/>
      <point x="720" y="422"/>
      <point x="720" y="300" type="curve" smooth="yes"/>
      <point x="720" y="218"/>
      <point x="696" y="172"/>
      <point x="636" y="148" type="curve"/>
      <point x="636" y="161"/>
      <point x="636" y="173"/>
      <point x="636" y="186" type="curve" smooth="yes"/>
      <point x="636" y="232" type="line" smooth="yes"/>
      <point x="636" y="361"/>
      <point x="554" y="400"/>
      <point x="436" y="400" type="curve" smooth="yes"/>
      <point x="370" y="400"/>
      <point x="336" y="393"/>
      <point x="300" y="384" type="curve"/>
      <point x="300" y="276" type="line"/>
      <point x="304" y="276" type="line"/>
      <point x="324" y="284"/>
      <point x="355" y="294"/>
      <point x="396" y="294" type="curve" smooth="yes"/>
      <point x="448" y="294"/>
      <point x="476" y="280"/>
      <point x="476" y="236" type="curve" smooth="yes"/>
      <point x="476" y="156" type="line" smooth="yes"/>
      <point x="476" y="134"/>
      <point x="478" y="124"/>
      <point x="481" y="113" type="curve"/>
      <point x="496" y="128" type="line"/>
      <point x="485" y="124"/>
      <point x="468" y="120"/>
      <point x="452" y="120" type="curve" smooth="yes"/>
      <point x="433" y="120"/>
      <point x="416" y="124"/>
      <point x="416" y="148" type="curve" smooth="yes"/>
      <point x="416" y="168"/>
      <point x="435" y="172"/>
      <point x="456" y="172" type="curve" smooth="yes"/>
      <point x="468" y="172"/>
      <point x="485" y="169"/>
      <point x="488" y="168" type="curve"/>
      <point x="488" y="242" type="line"/>
      <point x="476" y="244"/>
      <point x="448" y="248"/>
      <point x="424" y="248" type="curve" smooth="yes"/>
      <point x="338" y="248"/>
      <point x="260" y="222"/>
      <point x="260" y="140" type="curve" smooth="yes"/>
      <point x="260" y="57"/>
      <point x="339" y="24"/>
      <point x="476" y="24" type="curve" smooth="yes"/>
      <point x="679" y="24"/>
      <point x="836" y="108"/>
      <point x="836" y="300" type="curve" smooth="yes"/>
      <point x="836" y="474"/>
      <point x="693" y="588"/>
      <point x="456" y="588" type="curve" smooth="yes"/>
      <point x="200" y="588"/>
      <point x="40" y="448"/>
      <point x="40" y="220" type="curve" smooth="yes"/>
      <point x="40" y="-10"/>
      <point x="193" y="-156"/>
    </contour>
  </outline>
</glyph>
<glyph name="b.sc" format="2">
  <advance width="636"/>
  <note>
b.sc
</note>
  <outline>
    <contour>
      <point x="173" y="0" type="line"/>
      <point x="368" y="0" type="line" smooth="yes"/>
      <point x="509" y="0"/>
      <point x="600" y="47"/>
      <point x="600" y="156" type="curve" smooth="yes"/>
      <point x="600" y="226"/>
      <point x="551" y="287"/>
      <point x="447" y="291" type="curve"/>
      <point x="456" y="242" type="line"/>
      <point x="548" y="275"/>
      <point x="588" y="343"/>
      <point x="588" y="408" type="curve" smooth="yes"/>
      <point x="588" y="513"/>
      <point x="509" y="572"/>
      <point x="344" y="572" type="curve" smooth="yes"/>
      <point x="172" y="572" type="line"/>
      <point x="172" y="424" type="line"/>
      <point x="324" y="424" type="line" smooth="yes"/>
      <point x="348" y="424"/>
      <point x="376" y="418"/>
      <point x="376" y="384" type="curve" smooth="yes"/>
      <point x="376" y="357"/>
      <point x="359" y="336"/>
      <point x="320" y="336" type="curve" smooth="yes"/>
      <point x="172" y="336" type="line"/>
      <point x="172" y="204" type="line"/>
      <point x="356" y="204" type="line" smooth="yes"/>
      <point x="375" y="204"/>
      <point x="388" y="193"/>
      <point x="388" y="176" type="curve" smooth="yes"/>
      <point x="388" y="157"/>
      <point x="376" y="148"/>
      <point x="356" y="148" type="curve" smooth="yes"/>
      <point x="172" y="148" type="line"/>
    </contour>
    <contour>
      <point x="64" y="0" type="line"/>
      <point x="272" y="0" type="line"/>
      <point x="272" y="572" type="line"/>
      <point x="64" y="572" type="line"/>
    </contour>
  </outline>
</glyph>
<glyph name="braceleft.sc" format="2">
  <advance width="456"/>
  <note>
braceleft.sc
</note>
  <outline>
    <contour>
      <point x="208" y="264" type="curve"/>
      <point x="208" y="268" type="line"/>
      <point x="275" y="272"/>
      <point x="300" y="315"/>
      <point x="300" y="372" type="curve" smooth="yes"/>
      <point x="300" y="416" type="line" smooth="yes"/>
      <point x="300" y="455"/>
      <point x="317" y="468"/>
      <point x="356" y="468" type="curve" smooth="yes"/>
      <point x="428" y="468" type="line"/>
      <point x="428" y="604" type="line"/>
      <point x="320" y="604" type="line" smooth="yes"/>
      <point x="202" y="604"/>
      <point x="120" y="570"/>
      <point x="120" y="440" type="curve" smooth="yes"/>
      <point x="120" y="396" type="line" smooth="yes"/>
      <point x="120" y="365"/>
      <point x="105" y="336"/>
      <point x="64" y="336" type="curve" smooth="yes"/>
      <point x="20" y="336" type="line"/>
      <point x="20" y="196" type="line"/>
      <point x="64" y="196" type="line" smooth="yes"/>
      <point x="105" y="196"/>
      <point x="120" y="167"/>
      <point x="120" y="136" type="curve" smooth="yes"/>
      <point x="120" y="92" type="line" smooth="yes"/>
      <point x="120" y="-38"/>
      <point x="202" y="-72"/>
      <point x="320" y="-72" type="curve" smooth="yes"/>
      <point x="428" y="-72" type="line"/>
      <point x="428" y="64" type="line"/>
      <point x="356" y="64" type="line" smooth="yes"/>
      <point x="317" y="64"/>
      <point x="300" y="77"/>
      <point x="300" y="116" type="curve" smooth="yes"/>
      <point x="300" y="160" type="line" smooth="yes"/>
      <point x="300" y="217"/>
      <point x="275" y="260"/>
    </contour>
  </outline>
</glyph>
<glyph name="bracketleft.sc" format="2">
  <advance width="392"/>
  <note>
bracketleft.sc
</note>
  <outline>
    <contour>
      <point x="52" y="604" type="line"/>
      <point x="52" y="-72" type="line"/>
      <point x="364" y="-72" type="line"/>
      <point x="364" y="64" type="line"/>
      <point x="232" y="64" type="line"/>
      <point x="232" y="468" type="line"/>
      <point x="364" y="468" type="line"/>
      <point x="364" y="604" type="line"/>
    </contour>
  </outline>
</glyph>
<glyph name="bracketright.sc" format="2">
  <advance width="392"/>
  <note>
bracketright.sc
</note>
  <outline>
    <contour>
      <point x="160" y="64" type="line"/>
      <point x="28" y="64" type="line"/>
      <point x="28" y="-72" type="line"/>
      <point x="340" y="-72" type="line"/>
      <point x="340" y="604" type="line"/>
      <point x="28" y="604" type="line"/>
      <point x="28" y="468" type="line"/>
      <point x="160" y="468" type="line"/>
    </contour>
  </outline>
</glyph>
<glyph name="bullet.sc" format="2">
  <advance width="504"/>
  <note>
bullet.sc
</note>
  <outline>
    <contour>
      <point x="252" y="116" type="curve" smooth="yes"/>
      <point x="340" y="116"/>
      <point x="416" y="180"/>
      <point x="416" y="280" type="curve" smooth="yes"/>
      <point x="416" y="380"/>
      <point x="340" y="444"/>
      <point x="252" y="444" type="curve" smooth="yes"/>
      <point x="164" y="444"/>
      <point x="88" y="380"/>
      <point x="88" y="280" type="curve" smooth="yes"/>
      <point x="88" y="180"/>
      <point x="164" y="116"/>
    </contour>
  </outline>
</glyph>
<glyph name="c.inferior" format="2">
  <advance width="385"/>
  <note>
c.inferior
</note>
  <outline>
    <contour>
      <point x="27" y="41" type="curve" smooth="yes"/>
      <point x="27" y="-114"/>
      <point x="131" y="-169"/>
      <point x="271" y="-169" type="curve" smooth="yes"/>
      <point x="303" y="-169"/>
      <point x="335" y="-166"/>
      <point x="359" y="-159" type="curve"/>
      <point x="359" y="-31" type="line"/>
      <point x="349" y="-31" type="line"/>
      <point x="335" y="-36"/>
      <point x="320" y="-42"/>
      <point x="294" y="-42" type="curve" smooth="yes"/>
      <point x="230" y="-42"/>
      <point x="198" y="-11"/>
      <point x="198" y="41" type="curve" smooth="yes"/>
      <point x="198" y="94"/>
      <point x="230" y="124"/>
      <point x="294" y="124" type="curve" smooth="yes"/>
      <point x="320" y="124"/>
      <point x="335" y="119"/>
      <point x="349" y="113" type="curve"/>
      <point x="359" y="113" type="line"/>
      <point x="359" y="241" type="line"/>
      <point x="335" y="248"/>
      <point x="303" y="252"/>
      <point x="271" y="252" type="curve" smooth="yes"/>
      <point x="137" y="252"/>
      <point x="27" y="196"/>
    </contour>
  </outline>
</glyph>
<glyph name="caroncomb.alt" format="2">
  <note>
caronquoteright
</note>
  <anchor x="336" y="548" name="_topright"/>
  <outline>
    <contour>
      <point x="304" y="628" type="curve"/>
      <point x="258" y="546" type="line"/>
      <point x="258" y="540" type="line"/>
      <point x="357" y="540" type="line"/>
      <point x="383" y="589" type="line" smooth="yes"/>
      <point x="395" y="611"/>
      <point x="414" y="649"/>
      <point x="414" y="683" type="curve" smooth="yes"/>
      <point x="414" y="731"/>
      <point x="379" y="760"/>
      <point x="336" y="760" type="curve" smooth="yes"/>
      <point x="293" y="760"/>
      <point x="262" y="731"/>
      <point x="262" y="690" type="curve" smooth="yes"/>
      <point x="262" y="654"/>
      <point x="285" y="638"/>
    </contour>
  </outline>
</glyph>
<glyph name="comma.inferior" format="2">
  <advance width="218"/>
  <note>
comma.inferior
</note>
  <outline>
    <contour>
      <point x="67" y="-152" type="curve"/>
      <point x="-6" y="-275" type="line"/>
      <point x="-6" y="-282" type="line"/>
      <point x="118" y="-282" type="line"/>
      <point x="163" y="-199" type="line" smooth="yes"/>
      <point x="177" y="-172"/>
      <point x="202" y="-127"/>
      <point x="202" y="-85" type="curve" smooth="yes"/>
      <point x="202" y="-26"/>
      <point x="161" y="11"/>
      <point x="106" y="11" type="curve" smooth="yes"/>
      <point x="53" y="11"/>
      <point x="18" y="-26"/>
      <point x="18" y="-75" type="curve" smooth="yes"/>
      <point x="18" y="-119"/>
      <point x="44" y="-140"/>
    </contour>
  </outline>
</glyph>
<glyph name="copyright.sc" format="2">
  <advance width="808"/>
  <note>
copyright.sc
</note>
  <outline>
    <contour>
      <point x="228" y="284" type="curve" smooth="yes"/>
      <point x="228" y="183"/>
      <point x="296" y="124"/>
      <point x="444" y="124" type="curve" smooth="yes"/>
      <point x="480" y="124"/>
      <point x="511" y="128"/>
      <point x="532" y="134" type="curve"/>
      <point x="532" y="224" type="line"/>
      <point x="524" y="224" type="line"/>
      <point x="510" y="220"/>
      <point x="486" y="216"/>
      <point x="456" y="216" type="curve" smooth="yes"/>
      <point x="388" y="216"/>
      <point x="364" y="243"/>
      <point x="364" y="284" type="curve" smooth="yes"/>
      <point x="364" y="319"/>
      <point x="388" y="356"/>
      <point x="456" y="356" type="curve" smooth="yes"/>
      <point x="486" y="356"/>
      <point x="510" y="352"/>
      <point x="524" y="348" type="curve"/>
      <point x="532" y="348" type="line"/>
      <point x="532" y="438" type="line"/>
      <point x="511" y="444"/>
      <point x="484" y="448"/>
      <point x="444" y="448" type="curve" smooth="yes"/>
      <point x="303" y="448"/>
      <point x="228" y="383"/>
    </contour>
    <contour>
      <point x="404" y="48" type="curve" smooth="yes"/>
      <point x="241" y="48"/>
      <point x="136" y="119"/>
      <point x="136" y="284" type="curve" smooth="yes"/>
      <point x="136" y="449"/>
      <point x="241" y="520"/>
      <point x="404" y="520" type="curve" smooth="yes"/>
      <point x="567" y="520"/>
      <point x="672" y="449"/>
      <point x="672" y="284" type="curve" smooth="yes"/>
      <point x="672" y="119"/>
      <point x="567" y="48"/>
    </contour>
    <contour>
      <point x="404" y="-28" type="curve" smooth="yes"/>
      <point x="627" y="-28"/>
      <point x="768" y="84"/>
      <point x="768" y="284" type="curve" smooth="yes"/>
      <point x="768" y="484"/>
      <point x="627" y="596"/>
      <point x="404" y="596" type="curve" smooth="yes"/>
      <point x="181" y="596"/>
      <point x="40" y="484"/>
      <point x="40" y="284" type="curve" smooth="yes"/>
      <point x="40" y="84"/>
      <point x="181" y="-28"/>
    </contour>
  </outline>
</glyph>
<glyph name="d.inferior" format="2">
  <advance width="521"/>
  <note>
d.inferior
</note>
  <outline>
    <contour>
      <point x="298" y="-169" type="curve" smooth="yes"/>
      <point x="360" y="-169"/>
      <point x="429" y="-161"/>
      <point x="464" y="-153" type="curve"/>
      <point x="467" y="-147" type="line"/>
      <point x="461" y="-121"/>
      <point x="461" y="-63"/>
      <point x="461" y="-34" type="curve" smooth="yes"/>
      <point x="461" y="395" type="line"/>
      <point x="289" y="395" type="line"/>
      <point x="286" y="389" type="line"/>
      <point x="291" y="366"/>
      <point x="295" y="281"/>
      <point x="296" y="240" type="curve"/>
      <point x="283" y="243"/>
      <point x="265" y="246"/>
      <point x="244" y="246" type="curve" smooth="yes"/>
      <point x="112" y="246"/>
      <point x="31" y="163"/>
      <point x="31" y="39" type="curve" smooth="yes"/>
      <point x="31" y="-120"/>
      <point x="130" y="-169"/>
    </contour>
    <contour>
      <point x="277" y="-51" type="curve" smooth="yes"/>
      <point x="216" y="-51"/>
      <point x="201" y="-4"/>
      <point x="201" y="39" type="curve" smooth="yes"/>
      <point x="201" y="90"/>
      <point x="221" y="131"/>
      <point x="277" y="131" type="curve" smooth="yes"/>
      <point x="281" y="131"/>
      <point x="290" y="130"/>
      <point x="296" y="130" type="curve"/>
      <point x="296" y="-21" type="line" smooth="yes"/>
      <point x="296" y="-31"/>
      <point x="296" y="-40"/>
      <point x="297" y="-50" type="curve"/>
      <point x="291" y="-51"/>
      <point x="285" y="-51"/>
    </contour>
  </outline>
</glyph>
<glyph name="d.sc" format="2">
  <advance width="696"/>
  <note>
d.sc
</note>
  <anchor x="348" y="0" name="bottom"/>
  <anchor x="172" y="286" name="center"/>
  <anchor x="348" y="572" name="top"/>
  <outline>
    <contour>
      <point x="64" y="572" type="line"/>
      <point x="64" y="0" type="line"/>
      <point x="296" y="0" type="line" smooth="yes"/>
      <point x="555" y="0"/>
      <point x="664" y="133"/>
      <point x="664" y="308" type="curve" smooth="yes"/>
      <point x="664" y="473"/>
      <point x="555" y="572"/>
      <point x="324" y="572" type="curve" smooth="yes"/>
    </contour>
    <contour>
      <point x="186" y="412" type="line"/>
      <point x="316" y="412" type="line" smooth="yes"/>
      <point x="415" y="412"/>
      <point x="452" y="371"/>
      <point x="452" y="304" type="curve" smooth="yes"/>
      <point x="452" y="202"/>
      <point x="389" y="160"/>
      <point x="300" y="160" type="curve" smooth="yes"/>
      <point x="186" y="160" type="line"/>
      <point x="272" y="74" type="line"/>
      <point x="272" y="498" type="line"/>
    </contour>
  </outline>
</glyph>
<glyph name="dagger.sc" format="2">
  <advance width="544"/>
  <note>
dagger.sc
</note>
  <outline>
    <contour>
      <point x="368" y="-196" type="line"/>
      <point x="368" y="572" type="line"/>
      <point x="176" y="572" type="line"/>
      <point x="176" y="-196" type="line"/>
    </contour>
    <contour>
      <point x="32" y="256" type="line"/>
      <point x="512" y="256" type="line"/>
      <point x="512" y="400" type="line"/>
      <point x="32" y="400" type="line"/>
    </contour>
  </outline>
</glyph>
<glyph name="degree.sc" format="2">
  <advance width="400"/>
  <note>
degree.sc
</note>
  <outline>
    <contour>
      <point x="200" y="288" type="curve" smooth="yes"/>
      <point x="288" y="288"/>
      <point x="356" y="344"/>
      <point x="356" y="436" type="curve" smooth="yes"/>
      <point x="356" y="528"/>
      <point x="288" y="584"/>
      <point x="200" y="584" type="curve" smooth="yes"/>
      <point x="112" y="584"/>
      <point x="44" y="528"/>
      <point x="44" y="436" type="curve" smooth="yes"/>
      <point x="44" y="344"/>
      <point x="112" y="288"/>
    </contour>
    <contour>
      <point x="200" y="376" type="curve" smooth="yes"/>
      <point x="164" y="376"/>
      <point x="140" y="400"/>
      <point x="140" y="436" type="curve" smooth="yes"/>
      <point x="140" y="472"/>
      <point x="164" y="496"/>
      <point x="200" y="496" type="curve" smooth="yes"/>
      <point x="236" y="496"/>
      <point x="260" y="472"/>
      <point x="260" y="436" type="curve" smooth="yes"/>
      <point x="260" y="400"/>
      <point x="236" y="376"/>
    </contour>
  </outline>
</glyph>
<glyph name="dollar.inferior" format="2">
  <advance width="398"/>
  <note>
dollar.inferior
</note>
  <outline>
    <contour>
      <point x="51" y="-33" type="line"/>
      <point x="51" y="-149" type="line"/>
      <point x="71" y="-157"/>
      <point x="103" y="-162"/>
      <point x="135" y="-165" type="curve"/>
      <point x="135" y="-245" type="line"/>
      <point x="260" y="-245" type="line"/>
      <point x="260" y="-158" type="line"/>
      <point x="318" y="-141"/>
      <point x="366" y="-105"/>
      <point x="366" y="-37" type="curve" smooth="yes"/>
      <point x="366" y="39"/>
      <point x="313" y="62"/>
      <point x="241" y="74" type="curve"/>
      <point x="212" y="80" type="line"/>
      <point x="191" y="83"/>
      <point x="183" y="96"/>
      <point x="183" y="109" type="curve" smooth="yes"/>
      <point x="183" y="125"/>
      <point x="188" y="139"/>
      <point x="224" y="139" type="curve" smooth="yes"/>
      <point x="267" y="139"/>
      <point x="306" y="128"/>
      <point x="330" y="118" type="curve"/>
      <point x="338" y="118" type="line"/>
      <point x="338" y="228" type="line"/>
      <point x="313" y="236"/>
      <point x="293" y="242"/>
      <point x="265" y="244" type="curve"/>
      <point x="265" y="318" type="line"/>
      <point x="137" y="318" type="line"/>
      <point x="137" y="235" type="line"/>
      <point x="56" y="213"/>
      <point x="32" y="159"/>
      <point x="32" y="100" type="curve" smooth="yes"/>
      <point x="32" y="28"/>
      <point x="65" y="-11"/>
      <point x="175" y="-31" type="curve"/>
      <point x="204" y="-35" type="line"/>
      <point x="215" y="-37"/>
      <point x="215" y="-42"/>
      <point x="215" y="-44" type="curve" smooth="yes"/>
      <point x="215" y="-51"/>
      <point x="214" y="-58"/>
      <point x="180" y="-58" type="curve" smooth="yes"/>
      <point x="129" y="-58"/>
      <point x="90" y="-48"/>
      <point x="61" y="-33" type="curve"/>
    </contour>
  </outline>
</glyph>
<glyph name="dot.below" format="2">
  <advance width="672"/>
  <note>
dot.below
</note>
  <outline>
    <contour>
      <point x="336" y="-212" type="curve" smooth="yes"/>
      <point x="379" y="-212"/>
      <point x="412" y="-184"/>
      <point x="412" y="-136" type="curve" smooth="yes"/>
      <point x="412" y="-90"/>
      <point x="379" y="-60"/>
      <point x="336" y="-60" type="curve" smooth="yes"/>
      <point x="293" y="-60"/>
      <point x="260" y="-90"/>
      <point x="260" y="-136" type="curve" smooth="yes"/>
      <point x="260" y="-184"/>
      <point x="293" y="-212"/>
    </contour>
  </outline>
</glyph>
<glyph name="dotabove_ar" format="2">
  <advance width="372"/>
  <note>
uniFBB2
</note>
  <anchor x="186" y="581" name="_top"/>
  <anchor x="166" y="789" name="top"/>
  <outline>
    <contour>
      <point x="186" y="609" type="curve" smooth="yes"/>
      <point x="236" y="609"/>
      <point x="276" y="641"/>
      <point x="276" y="699" type="curve" smooth="yes"/>
      <point x="276" y="757"/>
      <point x="236" y="789"/>
      <point x="186" y="789" type="curve" smooth="yes"/>
      <point x="136" y="789"/>
      <point x="96" y="757"/>
      <point x="96" y="699" type="curve" smooth="yes"/>
      <point x="96" y="641"/>
      <point x="136" y="609"/>
    </contour>
  </outline>
</glyph>
<glyph name="e.sc" format="2">
  <advance width="540"/>
  <note>
e.sc
</note>
  <anchor x="270" y="0" name="bottom"/>
  <anchor x="496" y="0" name="ogonek"/>
  <anchor x="270" y="572" name="top"/>
  <anchor x="20" y="572" name="topleft"/>
  <outline>
    <contour>
      <point x="64" y="572" type="line"/>
      <point x="64" y="0" type="line"/>
      <point x="496" y="0" type="line"/>
      <point x="496" y="160" type="line"/>
      <point x="272" y="160" type="line"/>
      <point x="272" y="208" type="line"/>
      <point x="448" y="208" type="line"/>
      <point x="448" y="356" type="line"/>
      <point x="272" y="356" type="line"/>
      <point x="272" y="412" type="line"/>
      <point x="492" y="412" type="line"/>
      <point x="492" y="572" type="line"/>
    </contour>
  </outline>
</glyph>
<glyph name="eight.tsc" format="2">
  <advance width="568"/>
  <note>
eight.sc
</note>
  <outline>
    <contour>
      <point x="252" y="236" type="curve"/>
      <point x="124" y="280" type="line"/>
      <point x="66" y="252"/>
      <point x="32" y="203"/>
      <point x="32" y="148" type="curve" smooth="yes"/>
      <point x="32" y="53"/>
      <point x="106" y="-12"/>
      <point x="280" y="-12" type="curve" smooth="yes"/>
      <point x="447" y="-12"/>
      <point x="536" y="61"/>
      <point x="536" y="168" type="curve" smooth="yes"/>
      <point x="536" y="225"/>
      <point x="486" y="309"/>
      <point x="348" y="339" type="curve" smooth="yes"/>
      <point x="316" y="346" type="line" smooth="yes"/>
      <point x="265" y="357"/>
      <point x="240" y="376"/>
      <point x="240" y="408" type="curve" smooth="yes"/>
      <point x="240" y="435"/>
      <point x="258" y="452"/>
      <point x="288" y="452" type="curve" smooth="yes"/>
      <point x="328" y="452"/>
      <point x="340" y="431"/>
      <point x="340" y="408" type="curve" smooth="yes"/>
      <point x="340" y="390"/>
      <point x="332" y="364"/>
      <point x="304" y="340" type="curve"/>
      <point x="440" y="292" type="line"/>
      <point x="500" y="329"/>
      <point x="528" y="376"/>
      <point x="528" y="428" type="curve" smooth="yes"/>
      <point x="528" y="530"/>
      <point x="435" y="584"/>
      <point x="296" y="584" type="curve" smooth="yes"/>
      <point x="115" y="584"/>
      <point x="44" y="504"/>
      <point x="44" y="404" type="curve" smooth="yes"/>
      <point x="44" y="354"/>
      <point x="64" y="267"/>
      <point x="208" y="236" type="curve" smooth="yes"/>
      <point x="245" y="228" type="line" smooth="yes"/>
      <point x="306" y="215"/>
      <point x="332" y="204"/>
      <point x="332" y="168" type="curve" smooth="yes"/>
      <point x="332" y="139"/>
      <point x="312" y="124"/>
      <point x="278" y="124" type="curve" smooth="yes"/>
      <point x="239" y="124"/>
      <point x="224" y="147"/>
      <point x="224" y="172" type="curve" smooth="yes"/>
      <point x="224" y="195"/>
      <point x="232" y="216"/>
    </contour>
  </outline>
</glyph>
<glyph name="emdash.sc" format="2">
  <advance width="1000"/>
  <note>
emdash.sc
</note>
  <outline>
    <contour>
      <point x="16" y="352" type="line"/>
      <point x="16" y="212" type="line"/>
      <point x="984" y="212" type="line"/>
      <point x="984" y="352" type="line"/>
    </contour>
  </outline>
</glyph>
<glyph name="endash.sc" format="2">
  <advance width="500"/>
  <note>
endash.sc
</note>
  <outline>
    <contour>
      <point x="16" y="352" type="line"/>
      <point x="16" y="212" type="line"/>
      <point x="484" y="212" type="line"/>
      <point x="484" y="352" type="line"/>
    </contour>
  </outline>
</glyph>
<glyph name="equal.inferior" format="2">
  <advance width="398"/>
  <note>
equal.inferior
</note>
  <outline>
    <contour>
      <point x="41" y="167" type="line"/>
      <point x="41" y="74" type="line"/>
      <point x="357" y="74" type="line"/>
      <point x="357" y="167" type="line"/>
    </contour>
    <contour>
      <point x="41" y="8" type="line"/>
      <point x="41" y="-85" type="line"/>
      <point x="357" y="-85" type="line"/>
      <point x="357" y="8" type="line"/>
    </contour>
  </outline>
</glyph>
<glyph name="euro.inferior" format="2">
  <advance width="397"/>
  <note>
euro.inferior
</note>
  <outline>
    <contour>
      <point x="292" y="-168" type="curve" smooth="yes"/>
      <point x="320" y="-168"/>
      <point x="340" y="-166"/>
      <point x="362" y="-160" type="curve"/>
      <point x="362" y="-54" type="line"/>
      <point x="354" y="-54" type="line"/>
      <point x="342" y="-59"/>
      <point x="328" y="-62"/>
      <point x="308" y="-62" type="curve" smooth="yes"/>
      <point x="278" y="-62"/>
      <point x="259" y="-54"/>
      <point x="247" y="-37" type="curve"/>
      <point x="301" y="-37" type="line"/>
      <point x="301" y="27" type="line"/>
      <point x="230" y="27" type="line"/>
      <point x="230" y="51" type="line"/>
      <point x="301" y="51" type="line"/>
      <point x="301" y="114" type="line"/>
      <point x="245" y="114" type="line"/>
      <point x="257" y="132"/>
      <point x="277" y="142"/>
      <point x="308" y="142" type="curve" smooth="yes"/>
      <point x="328" y="142"/>
      <point x="342" y="139"/>
      <point x="354" y="133" type="curve"/>
      <point x="362" y="133" type="line"/>
      <point x="362" y="240" type="line"/>
      <point x="340" y="246"/>
      <point x="320" y="248"/>
      <point x="292" y="248" type="curve" smooth="yes"/>
      <point x="175" y="248"/>
      <point x="110" y="197"/>
      <point x="88" y="114" type="curve"/>
      <point x="31" y="114" type="line"/>
      <point x="31" y="51" type="line"/>
      <point x="79" y="51" type="line"/>
      <point x="79" y="27" type="line"/>
      <point x="31" y="27" type="line"/>
      <point x="31" y="-37" type="line"/>
      <point x="88" y="-37" type="line"/>
      <point x="111" y="-120"/>
      <point x="176" y="-168"/>
    </contour>
  </outline>
</glyph>
<glyph name="euro.sc" format="2">
  <advance width="568"/>
  <note>
Euro.sc
</note>
  <outline>
    <contour>
      <point x="316" y="284" type="curve" smooth="yes"/>
      <point x="316" y="408"/>
      <point x="372" y="440"/>
      <point x="436" y="440" type="curve" smooth="yes"/>
      <point x="465" y="440"/>
      <point x="486" y="436"/>
      <point x="504" y="428" type="curve"/>
      <point x="516" y="428" type="line"/>
      <point x="516" y="572" type="line"/>
      <point x="485" y="581"/>
      <point x="454" y="584"/>
      <point x="416" y="584" type="curve" smooth="yes"/>
      <point x="252" y="584"/>
      <point x="116" y="510"/>
      <point x="116" y="284" type="curve" smooth="yes"/>
      <point x="116" y="58"/>
      <point x="252" y="-12"/>
      <point x="416" y="-12" type="curve" smooth="yes"/>
      <point x="454" y="-12"/>
      <point x="485" y="-8"/>
      <point x="516" y="0" type="curve"/>
      <point x="516" y="144" type="line"/>
      <point x="504" y="144" type="line"/>
      <point x="486" y="136"/>
      <point x="465" y="132"/>
      <point x="436" y="132" type="curve" smooth="yes"/>
      <point x="372" y="132"/>
      <point x="316" y="156"/>
    </contour>
    <contour>
      <point x="44" y="396" type="line"/>
      <point x="44" y="308" type="line"/>
      <point x="424" y="308" type="line"/>
      <point x="424" y="396" type="line"/>
    </contour>
    <contour>
      <point x="44" y="260" type="line"/>
      <point x="44" y="172" type="line"/>
      <point x="424" y="172" type="line"/>
      <point x="424" y="260" type="line"/>
    </contour>
  </outline>
</glyph>
<glyph name="f.inferior" format="2">
  <advance width="350"/>
  <note>
f.inferior
</note>
  <outline>
    <contour>
      <point x="4" y="240" type="line"/>
      <point x="4" y="115" type="line"/>
      <point x="71" y="115" type="line"/>
      <point x="71" y="-160" type="line"/>
      <point x="238" y="-160" type="line"/>
      <point x="238" y="115" type="line"/>
      <point x="322" y="115" type="line"/>
      <point x="322" y="240" type="line"/>
      <point x="238" y="240" type="line"/>
      <point x="242" y="273"/>
      <point x="265" y="289"/>
      <point x="304" y="289" type="curve" smooth="yes"/>
      <point x="320" y="289"/>
      <point x="336" y="285"/>
      <point x="344" y="282" type="curve"/>
      <point x="352" y="282" type="line"/>
      <point x="352" y="399" type="line"/>
      <point x="339" y="404"/>
      <point x="314" y="408"/>
      <point x="284" y="408" type="curve" smooth="yes"/>
      <point x="162" y="408"/>
      <point x="79" y="365"/>
      <point x="71" y="240" type="curve"/>
    </contour>
  </outline>
</glyph>
<glyph name="feh_alefMaksura-ar" format="2">
  <advance width="1060"/>
  <note>
uni06410649
</note>
  <anchor x="280" y="-256" name="bottom"/>
  <anchor x="928" y="-256" name="bottom_1"/>
  <anchor x="280" y="-256" name="bottom_2"/>
  <anchor x="728" y="808" name="top_1"/>
  <anchor x="220" y="176" name="top_2"/>
  <outline>
    <contour>
      <point x="748" y="176" type="line"/>
      <point x="384" y="176" type="line" smooth="yes"/>
      <point x="141" y="176"/>
      <point x="24" y="74"/>
      <point x="24" y="-64" type="curve" smooth="yes"/>
      <point x="24" y="-191"/>
      <point x="143" y="-256"/>
      <point x="280" y="-256" type="curve" smooth="yes"/>
      <point x="928" y="-256" type="line"/>
      <point x="988" y="-96" type="line"/>
      <point x="988" y="-84" type="line"/>
      <point x="330" y="-84" type="line" smooth="yes"/>
      <point x="257" y="-84"/>
      <point x="219" y="-75"/>
      <point x="202" y="-58" type="curve"/>
      <point x="212" y="-83" type="line"/>
      <point x="196" y="-45"/>
      <point x="243" y="0"/>
      <point x="374" y="0" type="curve" smooth="yes"/>
      <point x="728" y="0" type="line"/>
      <point x="748" y="20" type="line"/>
    </contour>
    <contour>
      <point x="384" y="176" type="line"/>
      <point x="364" y="156" type="line"/>
      <point x="364" y="0" type="line"/>
      <point x="804" y="0" type="line" smooth="yes"/>
      <point x="888" y="0"/>
      <point x="944" y="8"/>
      <point x="984" y="24" type="curve"/>
      <point x="988" y="32" type="line"/>
      <point x="988" y="360" type="line" smooth="yes"/>
      <point x="988" y="400"/>
      <point x="992" y="484"/>
      <point x="1000" y="520" type="curve"/>
      <point x="996" y="528" type="line"/>
      <point x="919" y="554"/>
      <point x="820" y="572"/>
      <point x="760" y="572" type="curve" smooth="yes"/>
      <point x="577" y="572"/>
      <point x="448" y="485"/>
      <point x="448" y="316" type="curve" smooth="yes"/>
      <point x="448" y="239"/>
      <point x="488" y="181"/>
      <point x="539" y="136" type="curve"/>
      <point x="586" y="176" type="line"/>
    </contour>
    <contour>
      <point x="656" y="324" type="curve" smooth="yes"/>
      <point x="656" y="378"/>
      <point x="682" y="404"/>
      <point x="736" y="404" type="curve" smooth="yes"/>
      <point x="770" y="404"/>
      <point x="798" y="391"/>
      <point x="809" y="387" type="curve"/>
      <point x="793" y="431" type="line"/>
      <point x="784" y="393"/>
      <point x="776" y="354"/>
      <point x="776" y="293" type="curve" smooth="yes"/>
      <point x="776" y="83" type="line"/>
      <point x="830" y="157" type="line"/>
      <point x="747" y="163"/>
      <point x="656" y="230"/>
    </contour>
    <contour>
      <point x="728" y="628" type="curve" smooth="yes"/>
      <point x="778" y="628"/>
      <point x="818" y="660"/>
      <point x="818" y="718" type="curve" smooth="yes"/>
      <point x="818" y="776"/>
      <point x="778" y="808"/>
      <point x="728" y="808" type="curve" smooth="yes"/>
      <point x="678" y="808"/>
      <point x="638" y="776"/>
      <point x="638" y="718" type="curve" smooth="yes"/>
      <point x="638" y="660"/>
      <point x="678" y="628"/>
    </contour>
  </outline>
</glyph>
<glyph name="five.osf" format="2">
  <advance width="608"/>
  <note>
five.oldstyle
</note>
  <outline>
    <contour>
      <point x="64" y="20" type="curve"/>
      <point x="52" y="20" type="line"/>
      <point x="52" y="-148" type="line"/>
      <point x="88" y="-164"/>
      <point x="158" y="-184"/>
      <point x="244" y="-184" type="curve" smooth="yes"/>
      <point x="468" y="-184"/>
      <point x="580" y="-96"/>
      <point x="580" y="56" type="curve" smooth="yes"/>
      <point x="580" y="196"/>
      <point x="488" y="274"/>
      <point x="316" y="274" type="curve" smooth="yes"/>
      <point x="281" y="274"/>
      <point x="246" y="269"/>
      <point x="210" y="270" type="curve"/>
      <point x="268" y="186" type="line"/>
      <point x="268" y="320" type="line" smooth="yes"/>
      <point x="268" y="366"/>
      <point x="264" y="404"/>
      <point x="250" y="421" type="curve"/>
      <point x="178" y="384" type="line"/>
      <point x="544" y="384" type="line"/>
      <point x="544" y="548" type="line"/>
      <point x="212" y="548" type="line" smooth="yes"/>
      <point x="138" y="548"/>
      <point x="102" y="544"/>
      <point x="70" y="540" type="curve"/>
      <point x="68" y="528" type="line"/>
      <point x="76" y="492"/>
      <point x="76" y="404"/>
      <point x="76" y="364" type="curve" smooth="yes"/>
      <point x="76" y="120" type="line"/>
      <point x="84" y="116" type="line"/>
      <point x="120" y="124"/>
      <point x="164" y="132"/>
      <point x="236" y="132" type="curve" smooth="yes"/>
      <point x="344" y="132"/>
      <point x="376" y="104"/>
      <point x="376" y="60" type="curve" smooth="yes"/>
      <point x="376" y="8"/>
      <point x="328" y="-20"/>
      <point x="232" y="-20" type="curve" smooth="yes"/>
      <point x="156" y="-20"/>
      <point x="88" y="4"/>
    </contour>
  </outline>
</glyph>
<glyph name="florin.sc" format="2">
  <advance width="568"/>
  <note>
florin.sc
</note>
  <outline>
    <contour>
      <point x="128" y="-196" type="curve" smooth="yes"/>
      <point x="269" y="-196"/>
      <point x="388" y="-139"/>
      <point x="388" y="24" type="curve" smooth="yes"/>
      <point x="388" y="368" type="line" smooth="yes"/>
      <point x="388" y="424"/>
      <point x="423" y="448"/>
      <point x="476" y="448" type="curve" smooth="yes"/>
      <point x="493" y="448"/>
      <point x="507" y="446"/>
      <point x="520" y="440" type="curve"/>
      <point x="532" y="440" type="line"/>
      <point x="532" y="572" type="line"/>
      <point x="511" y="578"/>
      <point x="478" y="584"/>
      <point x="436" y="584" type="curve" smooth="yes"/>
      <point x="295" y="584"/>
      <point x="176" y="523"/>
      <point x="176" y="360" type="curve" smooth="yes"/>
      <point x="176" y="20" type="line" smooth="yes"/>
      <point x="176" y="-36"/>
      <point x="141" y="-60"/>
      <point x="88" y="-60" type="curve" smooth="yes"/>
      <point x="72" y="-60"/>
      <point x="57" y="-58"/>
      <point x="44" y="-52" type="curve"/>
      <point x="32" y="-52" type="line"/>
      <point x="32" y="-184" type="line"/>
      <point x="53" y="-191"/>
      <point x="86" y="-196"/>
    </contour>
    <contour>
      <point x="56" y="196" type="line"/>
      <point x="504" y="196" type="line"/>
      <point x="504" y="324" type="line"/>
      <point x="56" y="324" type="line"/>
    </contour>
  </outline>
</glyph>
<glyph name="four-persian.urdu" format="2">
  <advance width="696"/>
  <note>
uni06F4.urdu
</note>
  <outline>
    <contour>
      <point x="109" y="0" type="line"/>
      <point x="314" y="0" type="line"/>
      <point x="314" y="13" type="line"/>
      <point x="221" y="396" type="line" smooth="yes"/>
      <point x="202" y="474"/>
      <point x="190" y="526"/>
      <point x="190" y="568" type="curve" smooth="yes"/>
      <point x="190" y="606"/>
      <point x="200" y="638"/>
      <point x="219" y="655" type="curve"/>
      <point x="165" y="626" type="line"/>
      <point x="230" y="618"/>
      <point x="265" y="530"/>
      <point x="302" y="360" type="curve"/>
      <point x="496" y="332" type="line"/>
      <point x="522" y="444"/>
      <point x="584" y="577"/>
      <point x="672" y="682" type="curve"/>
      <point x="558" y="777" type="line"/>
      <point x="546" y="777" type="line"/>
      <point x="455" y="691"/>
      <point x="422" y="598"/>
      <point x="405" y="519" type="curve"/>
      <point x="432" y="502" type="line"/>
      <point x="423" y="541" type="line" smooth="yes"/>
      <point x="395" y="664"/>
      <point x="323" y="775"/>
      <point x="203" y="775" type="curve" smooth="yes"/>
      <point x="70" y="775"/>
      <point x="4" y="670"/>
      <point x="4" y="521" type="curve" smooth="yes"/>
      <point x="4" y="477"/>
      <point x="11" y="428"/>
      <point x="22" y="378" type="curve" smooth="yes"/>
    </contour>
  </outline>
</glyph>
<glyph name="four.tsc" format="2">
  <advance width="568"/>
  <note>
four.sc
</note>
  <outline>
    <contour>
      <point x="296" y="0" type="line"/>
      <point x="496" y="0" type="line"/>
      <point x="496" y="432" type="line" smooth="yes"/>
      <point x="496" y="464"/>
      <point x="493" y="532"/>
      <point x="500" y="560" type="curve"/>
      <point x="500" y="568" type="line"/>
      <point x="475" y="572"/>
      <point x="432" y="576"/>
      <point x="400" y="576" type="curve" smooth="yes"/>
      <point x="239" y="576"/>
      <point x="112" y="558"/>
      <point x="68" y="372" type="curve" smooth="yes"/>
      <point x="36" y="236" type="line"/>
      <point x="36" y="108" type="line"/>
      <point x="544" y="108" type="line"/>
      <point x="544" y="260" type="line"/>
      <point x="137" y="260" type="line"/>
      <point x="203" y="176" type="line"/>
      <point x="244" y="364" type="line" smooth="yes"/>
      <point x="250" y="391"/>
      <point x="261" y="413"/>
      <point x="292" y="413" type="curve" smooth="yes"/>
      <point x="302" y="413"/>
      <point x="320" y="412"/>
      <point x="332" y="408" type="curve"/>
      <point x="314" y="457" type="line"/>
      <point x="296" y="443"/>
      <point x="296" y="412"/>
      <point x="296" y="380" type="curve" smooth="yes"/>
    </contour>
  </outline>
</glyph>
